<svg width="27" height="26" viewBox="0 0 27 26" fill="none" xmlns="http://www.w3.org/2000/svg">
<g id="Layer 2">
<path id="Vector" d="M20.0397 0.7399C19.717 0.571476 19.3538 0.496133 18.9908 0.522299C18.6277 0.548465 18.2791 0.675107 17.9839 0.888063C17.7397 1.08126 17.4339 1.1799 17.1228 1.16587C16.7545 1.17001 16.3991 1.0305 16.1319 0.776941C15.5397 0.297645 14.8009 0.0361414 14.0391 0.0361414C13.2772 0.0361414 12.5385 0.297645 11.9463 0.776941C11.6751 1.02701 11.3197 1.16585 10.9508 1.16585C10.5818 1.16585 10.2264 1.02701 9.95521 0.776941C9.36483 0.297702 8.62756 0.0361328 7.86715 0.0361328C7.10674 0.0361328 6.36947 0.297702 5.77909 0.776941C5.50923 1.03215 5.15029 1.17173 4.77891 1.16587C4.47334 1.18026 4.17321 1.08134 3.93609 0.888063C3.63918 0.674408 3.28838 0.548157 2.92342 0.523608C2.55846 0.499059 2.19391 0.577192 1.87106 0.74916C1.53782 0.920568 1.2585 1.18084 1.06402 1.50118C0.869547 1.82151 0.767503 2.18941 0.769186 2.56416V22.0754C0.768151 22.6128 0.979908 23.1288 1.35817 23.5105C1.73644 23.8923 2.25044 24.1087 2.78784 24.1126H15.141C14.2224 22.9147 13.7273 21.4458 13.7335 19.9363C13.7341 18.0945 14.466 16.3284 15.7684 15.026C17.0707 13.7237 18.8368 12.9918 20.6786 12.9911C20.8333 12.9911 20.988 13.0004 21.1416 13.0189V2.5549C21.1421 2.1804 21.0395 1.81298 20.8452 1.49286C20.6508 1.17274 20.3722 0.91225 20.0397 0.7399ZM5.95498 17.9916C5.73521 17.9916 5.52036 17.9265 5.33762 17.8044C5.15488 17.6823 5.01245 17.5087 4.92835 17.3057C4.84424 17.1026 4.82224 16.8792 4.86511 16.6636C4.90799 16.4481 5.01382 16.2501 5.16923 16.0947C5.32464 15.9393 5.52264 15.8334 5.7382 15.7905C5.95375 15.7477 6.17718 15.7697 6.38023 15.8538C6.58328 15.9379 6.75683 16.0803 6.87893 16.2631C7.00104 16.4458 7.06621 16.6606 7.06621 16.8804C7.06655 17.0264 7.03804 17.1711 6.98232 17.3061C6.92659 17.441 6.84476 17.5637 6.7415 17.6669C6.63825 17.7702 6.51561 17.852 6.38064 17.9077C6.24566 17.9635 6.10101 17.992 5.95498 17.9916ZM5.95498 13.3615C5.73521 13.3615 5.52036 13.2964 5.33762 13.1743C5.15488 13.0522 5.01245 12.8786 4.92835 12.6756C4.84424 12.4725 4.82224 12.2491 4.86511 12.0335C4.90799 11.818 5.01382 11.62 5.16923 11.4646C5.32464 11.3092 5.52264 11.2033 5.7382 11.1604C5.95375 11.1176 6.17718 11.1396 6.38023 11.2237C6.58328 11.3078 6.75683 11.4502 6.87893 11.633C7.00104 11.8157 7.06621 12.0305 7.06621 12.2503C7.06655 12.3963 7.03804 12.541 6.98232 12.676C6.92659 12.8109 6.84476 12.9336 6.7415 13.0368C6.63825 13.1401 6.51561 13.2219 6.38064 13.2777C6.24566 13.3334 6.10101 13.3619 5.95498 13.3615ZM5.95498 8.54624C5.73612 8.54532 5.52245 8.47953 5.34098 8.35717C5.15952 8.23482 5.01841 8.0614 4.9355 7.85885C4.85259 7.6563 4.83161 7.43371 4.87521 7.21923C4.9188 7.00476 5.02502 6.80802 5.18043 6.65391C5.33583 6.4998 5.53345 6.39524 5.74828 6.35344C5.96311 6.31164 6.18552 6.33448 6.38737 6.41908C6.58922 6.50368 6.76145 6.64623 6.88228 6.82872C7.00312 7.0112 7.06712 7.22542 7.06621 7.44428C7.06496 7.73776 6.94719 8.01873 6.7388 8.22538C6.53041 8.43203 6.24847 8.54745 5.95498 8.54624ZM11.8814 17.8064H9.28856C9.04296 17.8064 8.80743 17.7089 8.63377 17.5352C8.4601 17.3615 8.36254 17.126 8.36254 16.8804C8.36254 16.6348 8.4601 16.3993 8.63377 16.2256C8.80743 16.052 9.04296 15.9544 9.28856 15.9544H11.8814C12.127 15.9544 12.3625 16.052 12.5362 16.2256C12.7099 16.3993 12.8074 16.6348 12.8074 16.8804C12.8074 17.126 12.7099 17.3615 12.5362 17.5352C12.3625 17.7089 12.127 17.8064 11.8814 17.8064ZM16.1412 13.1763H9.28856C9.04296 13.1763 8.80743 13.0788 8.63377 12.9051C8.4601 12.7315 8.36254 12.4959 8.36254 12.2503C8.36254 12.0047 8.4601 11.7692 8.63377 11.5955C8.80743 11.4219 9.04296 11.3243 9.28856 11.3243H16.1412C16.3868 11.3243 16.6223 11.4219 16.796 11.5955C16.9697 11.7692 17.0672 12.0047 17.0672 12.2503C17.0672 12.4959 16.9697 12.7315 16.796 12.9051C16.6223 13.0788 16.3868 13.1763 16.1412 13.1763ZM16.1412 8.3703H9.28856C9.04296 8.3703 8.80743 8.27274 8.63377 8.09907C8.4601 7.92541 8.36254 7.68987 8.36254 7.44428C8.36254 7.19868 8.4601 6.96315 8.63377 6.78948C8.80743 6.61582 9.04296 6.51826 9.28856 6.51826H16.1412C16.3868 6.51826 16.6223 6.61582 16.796 6.78948C16.9697 6.96315 17.0672 7.19868 17.0672 7.44428C17.0672 7.68987 16.9697 7.92541 16.796 8.09907C16.6223 8.27274 16.3868 8.3703 16.1412 8.3703Z" fill="white"/>
<path id="Vector_2" d="M20.6786 13.917C19.4881 13.917 18.3243 14.27 17.3345 14.9314C16.3447 15.5928 15.5732 16.5328 15.1176 17.6327C14.662 18.7325 14.5428 19.9428 14.7751 21.1104C15.0073 22.278 15.5806 23.3505 16.4224 24.1923C17.2642 25.0341 18.3367 25.6073 19.5043 25.8396C20.6719 26.0718 21.8821 25.9526 22.982 25.4971C24.0818 25.0415 25.0219 24.27 25.6833 23.2802C26.3447 22.2903 26.6977 21.1266 26.6977 19.9361C26.6958 18.3403 26.0611 16.8104 24.9327 15.682C23.8043 14.5536 22.2744 13.9188 20.6786 13.917ZM22.7223 20.6704C22.8095 20.7561 22.879 20.8583 22.9265 20.9709C22.9741 21.0836 22.9989 21.2046 22.9994 21.3269C23 21.4492 22.9763 21.5704 22.9297 21.6835C22.8832 21.7966 22.8147 21.8993 22.7282 21.9858C22.6418 22.0723 22.539 22.1408 22.4259 22.1873C22.3128 22.2339 22.1916 22.2575 22.0693 22.257C21.947 22.2564 21.826 22.2317 21.7134 22.1841C21.6007 22.1365 21.4986 22.0671 21.4129 21.9798L20.6786 21.2455L19.9442 21.9798C19.77 22.1509 19.5354 22.2462 19.2913 22.2451C19.0471 22.244 18.8133 22.1466 18.6407 21.9739C18.4681 21.8013 18.3706 21.5675 18.3695 21.3234C18.3684 21.0793 18.4638 20.8446 18.6348 20.6704L19.3692 19.9361L18.6348 19.2018C18.4638 19.0276 18.3684 18.7929 18.3695 18.5488C18.3706 18.3047 18.4681 18.0709 18.6407 17.8983C18.8133 17.7257 19.0471 17.6282 19.2913 17.6271C19.5354 17.626 19.77 17.7213 19.9442 17.8924L20.6786 18.6267L21.4129 17.8924C21.5871 17.7213 21.8217 17.626 22.0658 17.6271C22.31 17.6282 22.5438 17.7257 22.7164 17.8983C22.889 18.0709 22.9865 18.3047 22.9876 18.5488C22.9887 18.7929 22.8933 19.0276 22.7223 19.2018L21.9879 19.9361L22.7223 20.6704Z" fill="white"/>
</g>
</svg>
