<svg width="17" height="16" viewBox="0 0 17 16" fill="none" xmlns="http://www.w3.org/2000/svg">
<g id="down-arrow">
<path id="Vector" d="M2.47137 4.01254C2.28154 4.01704 2.09711 4.06945 1.93971 4.16373C1.78231 4.258 1.65848 4.3902 1.58277 4.54475C1.50705 4.69931 1.48259 4.86985 1.51225 5.03631C1.54192 5.20277 1.62448 5.35828 1.75024 5.48455L7.73174 11.6893C7.82543 11.7867 7.94182 11.8649 8.07288 11.9186C8.20393 11.9722 8.34655 12 8.49088 12C8.6352 12 8.77782 11.9722 8.90888 11.9186C9.03993 11.8649 9.15632 11.7867 9.25001 11.6893L15.2374 5.48455C15.328 5.39691 15.3978 5.29397 15.4426 5.18187C15.4874 5.06978 15.5063 4.95083 15.4982 4.83211C15.4901 4.71339 15.4551 4.59728 15.3953 4.49082C15.3356 4.38435 15.2523 4.28973 15.1504 4.21245C15.0486 4.13517 14.9302 4.07684 14.8024 4.04104C14.6746 4.00524 14.54 3.99269 14.4066 4.00406C14.2732 4.01543 14.1437 4.0505 14.026 4.10724C13.9082 4.16397 13.8045 4.24114 13.721 4.33422L8.4899 9.75358L3.26072 4.33422C3.16496 4.23127 3.04423 4.14895 2.90754 4.09324C2.77085 4.03754 2.62175 4.0099 2.47137 4.01254Z" fill="white"/>
</g>
</svg>
