<svg width="56" height="56" viewBox="0 0 56 56" fill="none" xmlns="http://www.w3.org/2000/svg">
<g id="image">
<path id="Vector" fill-rule="evenodd" clip-rule="evenodd" d="M17.8872 51.3327H38.1102C46.0202 51.3327 51.3332 45.784 51.3332 37.5264V18.4723C51.3332 10.2147 46.0202 4.66602 38.1125 4.66602H17.8872C9.97717 4.66602 4.6665 10.2147 4.6665 18.4723V37.5264C4.6665 45.784 9.9795 51.3327 17.8872 51.3327ZM19.8332 25.666C18.2865 25.6648 16.8034 25.0498 15.7097 23.9561C14.6161 22.8624 14.0011 21.3794 13.9998 19.8327C13.9998 16.6173 16.6132 13.9993 19.8308 13.9993C21.377 14.0018 22.859 14.6173 23.9521 15.7108C25.0451 16.8043 25.66 18.2866 25.6618 19.8327C25.6618 23.048 23.0462 25.666 19.8285 25.666H19.8332ZM46.2512 34.8454C47.0328 36.8497 46.6245 39.2554 45.7915 41.2387C44.7998 43.6 42.9052 45.3874 40.5182 46.1667C39.4563 46.5055 38.3474 46.674 37.2328 46.666H17.5698C15.6122 46.666 13.8808 46.197 12.4598 45.322C11.5732 44.7737 11.4145 43.5067 12.0748 42.6854C13.1762 41.3134 14.2658 39.9367 15.3648 38.546C17.4555 35.886 18.8648 35.116 20.4328 35.7927C21.0698 36.0727 21.7068 36.4927 22.3648 36.936C24.1148 38.126 26.5485 39.7594 29.7545 37.986C31.9478 36.7564 33.2195 34.6494 34.3278 32.8154L34.3465 32.785L34.5798 32.3977C34.9532 31.7817 35.3195 31.175 35.7348 30.615C36.2552 29.915 38.1848 27.7217 40.6885 29.285C42.2798 30.265 43.6215 31.595 45.0542 33.0184C45.6002 33.562 45.9898 34.1804 46.2512 34.8454Z" fill="white"/>
</g>
</svg>
