<svg width="48" height="49" viewBox="0 0 48 49" fill="none" xmlns="http://www.w3.org/2000/svg">
<g id="Chart">
<path id="Red" d="M48 24.5C48 37.7548 37.2548 48.5 24 48.5C10.7452 48.5 0 37.7548 0 24.5C0 11.2452 10.7452 0.5 24 0.5C37.2548 0.5 48 11.2452 48 24.5ZM12 24.5C12 31.1274 17.3726 36.5 24 36.5C30.6274 36.5 36 31.1274 36 24.5C36 17.8726 30.6274 12.5 24 12.5C17.3726 12.5 12 17.8726 12 24.5Z" fill="#EBEBEB"/>
<path id="Gray" d="M24 48.5C20.0532 48.5 16.1673 47.5266 12.6865 45.6661C9.20569 43.8056 6.23747 41.1153 4.04473 37.8337C1.85199 34.552 0.502423 30.7802 0.115567 26.8524C-0.27129 22.9246 0.316507 18.962 1.82689 15.3156C3.33727 11.6692 5.72362 8.45159 8.77456 5.94775C11.8255 3.44391 15.4468 1.73114 19.3178 0.961154C23.1888 0.191166 27.19 0.387729 30.9668 1.53343C34.7437 2.67913 38.1797 4.73861 40.9706 7.52943L32.4853 16.0147C31.0899 14.6193 29.3719 13.5896 27.4834 13.0167C25.595 12.4439 23.5944 12.3456 21.6589 12.7306C19.7234 13.1156 17.9127 13.972 16.3873 15.2239C14.8618 16.4758 13.6686 18.0846 12.9134 19.9078C12.1583 21.731 11.8644 23.7123 12.0578 25.6762C12.2512 27.6401 12.926 29.526 14.0224 31.1668C15.1187 32.8077 16.6028 34.1528 18.3432 35.0831C20.0836 36.0133 22.0266 36.5 24 36.5L24 48.5Z" fill="#00CCB6"/>
</g>
</svg>
