<svg width="56" height="56" viewBox="0 0 56 56" fill="none" xmlns="http://www.w3.org/2000/svg">
<g id="allergy">
<path id="Vector" d="M27 36C28.6569 36 30 34.6569 30 33C30 31.3431 28.6569 30 27 30C25.3431 30 24 31.3431 24 33C24 34.6569 25.3431 36 27 36Z" fill="white"/>
<path id="Vector_2" d="M33 26C33.5523 26 34 25.1046 34 24C34 22.8954 33.5523 22 33 22C32.4477 22 32 22.8954 32 24C32 25.1046 32.4477 26 33 26Z" fill="white"/>
<path id="Vector_3" d="M41.4848 29.5C41.4848 22.6 36.0325 17 29.3144 17C22.5963 17 17.144 22.6 17.144 29.5C17.144 36.4 22.5963 42 29.3144 42C36.0325 42 41.4848 36.4 41.4848 29.5ZM27.3671 38.4C24.7383 38.4 22.6937 36.2 22.6937 33.6C22.6937 31 24.8357 28.8 27.3671 28.8C29.8986 28.8 32.0406 31 32.0406 33.6C32.0406 36.2 29.9959 38.4 27.3671 38.4ZM32.5274 27.6C30.5801 27.6 28.9249 26 28.9249 23.9C28.9249 21.8 30.4828 20.2 32.5274 20.2C34.572 20.2 36.1298 21.8 36.1298 23.9C36.1298 26 34.4746 27.6 32.5274 27.6ZM42.1663 41.5C41.3874 41.5 40.6085 41.7 40.0243 42L38.7586 40.2C38.2718 40.6 37.785 41.1 37.2008 41.4L38.4665 43.2C37.785 44 37.3955 45.1 37.3955 46.2C37.3955 48.9 39.5375 51 42.069 51C44.6004 51 46.7424 48.8 46.7424 46.2C46.8398 43.6 44.6978 41.5 42.1663 41.5ZM12.86 27.3L15.3915 27.7C15.4888 27 15.5862 26.4 15.7809 25.7L13.3469 25.3V25.2C13.3469 22.5 11.2049 20.4 8.67343 20.4C6.04462 20.4 4 22.6 4 25.2C4 27.9 6.14199 30 8.67343 30C10.426 30 12.0811 28.9 12.86 27.3ZM19.9675 13.6C20.4544 13.6 20.8438 13.5 21.2333 13.4L22.8884 16.6C23.4726 16.3 24.0568 16 24.641 15.8L22.9858 12.5C24.0568 11.6 24.641 10.3 24.641 8.8C24.641 6.1 22.499 4 19.9675 4C17.3387 4 15.2941 6.2 15.2941 8.8C15.2941 11.5 17.3387 13.6 19.9675 13.6ZM35.7404 16.6L37.2008 13.3C37.785 13.5 38.3692 13.7 38.9533 13.7C41.5821 13.7 43.6268 11.5 43.6268 8.9C43.6268 6.2 41.4848 4.1 38.9533 4.1C36.3245 4.1 34.2799 6.3 34.2799 8.9C34.2799 10.2 34.7667 11.4 35.5456 12.2L33.8905 15.8C34.572 16 35.1562 16.3 35.7404 16.6ZM17.9229 38L12.568 43C11.8864 42.6 11.1075 42.4 10.2312 42.4C7.60243 42.4 5.55781 44.6 5.55781 47.2C5.55781 49.8 7.6998 52 10.2312 52C12.7627 52 14.9047 49.8 14.9047 47.2C14.9047 46.1 14.5152 45.2 14.0284 44.4L19.1886 39.6C18.7018 39 18.3124 38.5 17.9229 38ZM47.3266 14.6C44.7951 14.6 42.6531 16.8 42.6531 19.4C42.6531 20 42.7505 20.5 42.9452 21L41.4848 22C41.8742 22.6 42.1663 23.2 42.3611 23.8L43.9189 22.7C44.7951 23.6 45.9635 24.2 47.3266 24.2C49.9554 24.2 52 22 52 19.4C52 16.7 49.858 14.6 47.3266 14.6Z" fill="white"/>
</g>
</svg>
