<svg width="24" height="18" viewBox="0 0 24 18" fill="none" xmlns="http://www.w3.org/2000/svg">
<g id="Group 21">
<path id="Vector" d="M12 11.5C13.1046 11.5 14 10.6046 14 9.5C14 8.39543 13.1046 7.5 12 7.5C10.8954 7.5 10 8.39543 10 9.5C10 10.6046 10.8954 11.5 12 11.5Z" fill="#A4A4A4"/>
<path id="Vector_2" d="M23.6594 7.58709C22.56 5.45328 20.8898 3.66255 18.8326 2.4121C16.7754 1.16166 14.4111 0.5 12 0.5C9.58891 0.5 7.22458 1.16166 5.1674 2.4121C3.11021 3.66255 1.43997 5.45328 0.340608 7.58709C0.116708 8.0248 0 8.50892 0 9C0 9.49108 0.116708 9.9752 0.340608 10.4129C1.43997 12.5467 3.11021 14.3374 5.1674 15.5879C7.22458 16.8383 9.58891 17.5 12 17.5C14.4111 17.5 16.7754 16.8383 18.8326 15.5879C20.8898 14.3374 22.56 12.5467 23.6594 10.4129C23.8833 9.9752 24 9.49108 24 9C24 8.50892 23.8833 8.0248 23.6594 7.58709ZM12 13.5093C11.1031 13.5093 10.2264 13.2448 9.48062 12.7493C8.73488 12.2538 8.15365 11.5496 7.81042 10.7256C7.46719 9.90166 7.37739 8.995 7.55237 8.12028C7.72734 7.24557 8.15924 6.44209 8.79344 5.81146C9.42763 5.18083 10.2357 4.75136 11.1153 4.57737C11.995 4.40338 12.9068 4.49267 13.7354 4.83397C14.564 5.17527 15.2722 5.75323 15.7705 6.49478C16.2688 7.23633 16.5348 8.10815 16.5348 9C16.5321 10.1951 16.0535 11.3405 15.2036 12.1856C14.3538 13.0307 13.2019 13.5066 12 13.5093Z" fill="#A4A4A4"/>
</g>
</svg>
