<svg width="28" height="28" viewBox="0 0 28 28" fill="none" xmlns="http://www.w3.org/2000/svg">
<g id="writing">
<path id="Vector" d="M18.3307 20.1048L15.8667 20.6088C15.4466 20.6979 15.0108 20.6796 14.5997 20.5557C14.1886 20.4317 13.8154 20.206 13.5147 19.8994C12.908 19.2928 12.6373 18.4248 12.8053 17.5661L13.3187 15.0554C13.4027 14.5888 13.6547 14.1034 14.0187 13.7394C20.2403 7.57105 20.0835 7.54398 20.7947 7.14078V5.54478C20.7947 4.03278 19.572 2.80078 18.06 2.80078H5.76799C4.25599 2.80078 3.02399 4.03278 3.02399 5.54478V22.4568C3.02399 23.9688 4.25599 25.2008 5.76799 25.2008H18.06C19.572 25.2008 20.7947 23.9688 20.7947 22.4568V18.2754L19.6747 19.3954C19.3107 19.7688 18.8347 20.0114 18.3307 20.1048ZM7.69065 6.53411H16.128C16.6413 6.53411 17.0613 6.95411 17.0613 7.46745C17.0613 7.99011 16.6413 8.40078 16.128 8.40078H7.69065C7.17732 8.40078 6.75732 7.99011 6.75732 7.46745C6.75732 6.95411 7.17732 6.53411 7.69065 6.53411ZM10.2293 21.4674H7.69065C7.17732 21.4674 6.75732 21.0568 6.75732 20.5341C6.75732 20.0208 7.17732 19.6008 7.69065 19.6008H10.2293C10.7427 19.6008 11.1627 20.0208 11.1627 20.5341C11.1627 21.0568 10.7427 21.4674 10.2293 21.4674ZM10.2293 17.1181H7.69065C7.17732 17.1181 6.75732 16.6981 6.75732 16.1848C6.75732 15.6714 7.17732 15.2514 7.69065 15.2514H10.2293C10.7427 15.2514 11.1627 15.6714 11.1627 16.1848C11.1627 16.6981 10.7427 17.1181 10.2293 17.1181ZM11.7787 12.7594H7.69065C7.17732 12.7594 6.75732 12.3394 6.75732 11.8261C6.75732 11.3128 7.17732 10.8928 7.69065 10.8928H11.7787C12.292 10.8928 12.712 11.3128 12.712 11.8261C12.712 12.3394 12.292 12.7594 11.7787 12.7594Z" fill="#00CCB6"/>
<path id="Vector_2" d="M24.3488 9.06264C23.9486 8.66356 23.4066 8.43945 22.8414 8.43945C22.2763 8.43945 21.7342 8.66356 21.3341 9.06264C15.1657 15.2926 15.2124 15.0397 15.1405 15.4317L14.6309 17.9265C14.5842 18.1682 14.657 18.4156 14.8269 18.5845C14.9125 18.6696 15.0177 18.7325 15.1332 18.7675C15.2488 18.8024 15.3711 18.8085 15.4896 18.7852L17.9853 18.2765C18.3708 18.2046 18.0889 18.2849 24.3534 12.082C24.7529 11.6808 24.9767 11.1375 24.9759 10.5713C24.975 10.0052 24.7494 9.46259 24.3488 9.06264Z" fill="#00CCB6"/>
</g>
</svg>
