<svg width="28" height="28" viewBox="0 0 28 28" fill="none" xmlns="http://www.w3.org/2000/svg">
<g id="writing">
<path id="Vector" d="M18.3307 20.1038L15.8667 20.6078C15.4466 20.6969 15.0108 20.6787 14.5997 20.5547C14.1886 20.4307 13.8154 20.205 13.5147 19.8985C12.908 19.2918 12.6373 18.4238 12.8053 17.5651L13.3187 15.0545C13.4027 14.5878 13.6547 14.1025 14.0187 13.7385C20.2403 7.57007 20.0835 7.543 20.7947 7.1398V5.5438C20.7947 4.0318 19.572 2.7998 18.06 2.7998H5.76799C4.25599 2.7998 3.02399 4.0318 3.02399 5.5438V22.4558C3.02399 23.9678 4.25599 25.1998 5.76799 25.1998H18.06C19.572 25.1998 20.7947 23.9678 20.7947 22.4558V18.2745L19.6747 19.3945C19.3107 19.7678 18.8347 20.0105 18.3307 20.1038ZM7.69065 6.53314H16.128C16.6413 6.53314 17.0613 6.95314 17.0613 7.46647C17.0613 7.98914 16.6413 8.3998 16.128 8.3998H7.69065C7.17732 8.3998 6.75732 7.98914 6.75732 7.46647C6.75732 6.95314 7.17732 6.53314 7.69065 6.53314ZM10.2293 21.4665H7.69065C7.17732 21.4665 6.75732 21.0558 6.75732 20.5331C6.75732 20.0198 7.17732 19.5998 7.69065 19.5998H10.2293C10.7427 19.5998 11.1627 20.0198 11.1627 20.5331C11.1627 21.0558 10.7427 21.4665 10.2293 21.4665ZM10.2293 17.1171H7.69065C7.17732 17.1171 6.75732 16.6971 6.75732 16.1838C6.75732 15.6705 7.17732 15.2505 7.69065 15.2505H10.2293C10.7427 15.2505 11.1627 15.6705 11.1627 16.1838C11.1627 16.6971 10.7427 17.1171 10.2293 17.1171ZM11.7787 12.7585H7.69065C7.17732 12.7585 6.75732 12.3385 6.75732 11.8251C6.75732 11.3118 7.17732 10.8918 7.69065 10.8918H11.7787C12.292 10.8918 12.712 11.3118 12.712 11.8251C12.712 12.3385 12.292 12.7585 11.7787 12.7585Z" fill="#A4A4A4"/>
<path id="Vector_2" d="M24.3488 9.06264C23.9486 8.66356 23.4066 8.43945 22.8414 8.43945C22.2763 8.43945 21.7342 8.66356 21.3341 9.06264C15.1657 15.2926 15.2124 15.0397 15.1405 15.4317L14.6309 17.9265C14.5842 18.1682 14.657 18.4156 14.8269 18.5845C14.9125 18.6696 15.0177 18.7325 15.1332 18.7675C15.2488 18.8024 15.3711 18.8085 15.4896 18.7852L17.9853 18.2765C18.3708 18.2046 18.0889 18.2849 24.3534 12.082C24.7529 11.6808 24.9767 11.1375 24.9759 10.5713C24.975 10.0052 24.7494 9.46259 24.3488 9.06264Z" fill="#A4A4A4"/>
</g>
</svg>
