<svg width="24" height="24" viewBox="0 0 24 24" fill="none" xmlns="http://www.w3.org/2000/svg">
<g id="Paperclip">
<path id="Vector" d="M19.6556 11.4697C19.7254 11.5393 19.7807 11.622 19.8184 11.7131C19.8562 11.8041 19.8756 11.9017 19.8756 12.0003C19.8756 12.0989 19.8562 12.1964 19.8184 12.2875C19.7807 12.3785 19.7254 12.4613 19.6556 12.5309L11.9634 20.2184C10.9787 21.203 9.64315 21.7561 8.2506 21.756C6.85806 21.756 5.52258 21.2027 4.53797 20.2179C3.55335 19.2332 3.00025 17.8977 3.00034 16.5051C3.00042 15.1126 3.55369 13.7771 4.53843 12.7925L13.8441 3.34998C14.5471 2.6462 15.5009 2.25053 16.4957 2.25C17.4904 2.24947 18.4447 2.64414 19.1484 3.34717C19.8522 4.0502 20.2479 5.00401 20.2484 5.99877C20.2489 6.99354 19.8543 7.94776 19.1512 8.65154L9.84375 18.094C9.42106 18.5167 8.84777 18.7542 8.25 18.7542C7.65223 18.7542 7.07894 18.5167 6.65625 18.094C6.23356 17.6714 5.99609 17.0981 5.99609 16.5003C5.99609 15.9025 6.23356 15.3292 6.65625 14.9065L14.4656 6.97342C14.534 6.90044 14.6163 6.84188 14.7077 6.8012C14.7991 6.76051 14.8977 6.73851 14.9977 6.7365C15.0977 6.73448 15.1971 6.7525 15.2901 6.78947C15.383 6.82645 15.4676 6.88165 15.5389 6.95181C15.6102 7.02198 15.6667 7.1057 15.7052 7.19804C15.7436 7.29038 15.7632 7.38948 15.7628 7.4895C15.7624 7.58953 15.7419 7.68846 15.7027 7.78048C15.6635 7.87249 15.6063 7.95573 15.5344 8.02529L7.72406 15.9669C7.65413 16.0362 7.59855 16.1187 7.56049 16.2096C7.52244 16.3004 7.50265 16.3979 7.50226 16.4964C7.50186 16.5949 7.52088 16.6925 7.55821 16.7836C7.59554 16.8748 7.65047 16.9577 7.71984 17.0276C7.78922 17.0976 7.87169 17.1531 7.96254 17.1912C8.05339 17.2293 8.15086 17.2491 8.24936 17.2494C8.34786 17.2498 8.44548 17.2308 8.53663 17.1935C8.62778 17.1562 8.71069 17.1012 8.78062 17.0319L18.0872 7.59404C18.5099 7.17222 18.7477 6.59977 18.7483 6.00261C18.7489 5.40545 18.5123 4.83251 18.0905 4.40982C17.6686 3.98713 17.0962 3.74932 16.499 3.74871C15.9019 3.74809 15.3289 3.98472 14.9062 4.40654L5.6025 13.8453C5.25396 14.1933 4.97738 14.6065 4.78854 15.0614C4.5997 15.5162 4.5023 16.0039 4.50191 16.4964C4.50152 16.9889 4.59814 17.4767 4.78626 17.9318C4.97437 18.387 5.2503 18.8007 5.59828 19.1492C5.94626 19.4977 6.35949 19.7743 6.81436 19.9632C7.26923 20.152 7.75684 20.2494 8.24936 20.2498C8.74187 20.2502 9.22964 20.1536 9.68481 19.9654C10.14 19.7773 10.5536 19.5014 10.9022 19.1534L18.5953 11.4659C18.7364 11.3259 18.9274 11.2476 19.1262 11.2483C19.3251 11.249 19.5155 11.3286 19.6556 11.4697Z" fill="#878787"/>
</g>
</svg>
