<svg width="56" height="56" viewBox="0 0 56 56" fill="none" xmlns="http://www.w3.org/2000/svg">
<g id="baby-bottle">
<path id="Vector" d="M43.4561 22.4558L30.6636 13.3033C29.4454 12.4213 27.933 12.0452 26.4436 12.254C24.9542 12.4628 23.6035 13.2403 22.6749 14.4233C17.8361 20.5921 13.0499 27.3033 8.43861 34.3471C7.61331 35.6097 7.30991 37.1433 7.59223 38.6251C7.87455 40.1069 8.72059 41.4214 9.95236 42.2921L22.7011 51.4096C23.9239 52.2809 25.4337 52.6513 26.9209 52.4446C28.408 52.238 29.7597 51.47 30.6986 50.2983C31.9791 49.0155 31.244 49.1289 30.1209 48.207C27.6711 46.3958 25.1248 44.4971 25.0811 44.4709C24.9006 44.3294 24.7825 44.1229 24.7522 43.8955C24.7218 43.6682 24.7816 43.438 24.9187 43.2541C25.0557 43.0702 25.2593 42.9472 25.4858 42.9113C25.7124 42.8754 25.9439 42.9296 26.1311 43.0621C26.1748 43.0971 32.1686 47.5509 32.6149 47.8921C33.6299 46.5884 34.6245 45.2905 35.5986 43.9984C34.5082 43.1711 31.066 40.6048 31.0749 40.6121C30.9829 40.5438 30.9054 40.458 30.8466 40.3596C30.7879 40.2613 30.749 40.1523 30.7324 40.039C30.7157 39.9256 30.7216 39.8101 30.7495 39.699C30.7775 39.5879 30.8271 39.4834 30.8955 39.3915C30.9639 39.2996 31.0497 39.222 31.148 39.1633C31.2464 39.1045 31.3553 39.0657 31.4687 39.049C31.582 39.0324 31.6975 39.0382 31.8086 39.0662C31.9197 39.0942 32.0242 39.1438 32.1161 39.2121C32.1424 39.2384 36.1849 42.2396 36.6486 42.5896C37.6374 41.2596 38.5999 39.9209 39.5274 38.5909C37.6702 37.2553 32.6738 33.578 32.7199 33.6121C32.5368 33.4738 32.4155 33.269 32.3823 33.042C32.349 32.815 32.4063 32.584 32.542 32.399C32.6776 32.2139 32.8806 32.0897 33.1071 32.0531C33.3336 32.0165 33.5654 32.0705 33.7524 32.2034C33.7961 32.2296 40.0874 36.8409 40.5249 37.1559C41.4699 35.7909 42.3799 34.4317 43.2549 33.0784C42.1329 32.2558 40.4572 31.0019 39.5186 30.3046C39.3753 30.1926 39.2703 30.0389 39.2178 29.8647C39.1653 29.6906 39.168 29.5045 39.2256 29.3319C39.2831 29.1593 39.3926 29.0088 39.5391 28.901C39.6856 28.7931 39.8618 28.7333 40.0437 28.7296C40.2327 28.7314 40.4164 28.7926 40.5686 28.9046C41.4978 29.599 43.1204 30.8011 44.2086 31.6084C46.518 28.8505 46.5369 24.6154 43.4561 22.4558ZM44.5674 17.2671L35.2574 10.6083C34.5404 10.0946 33.6555 9.87128 32.7806 9.98328C31.9057 10.0953 31.1056 10.5343 30.5411 11.2121C31.0771 11.4753 31.5869 11.7887 32.0636 12.1483C32.7962 12.7386 45.3601 21.5054 45.5211 21.9308C45.9786 21.1761 46.1345 20.2767 45.9577 19.4121C45.7809 18.5475 45.2844 17.7815 44.5674 17.2671ZM48.4436 6.65335C48.3642 6.16654 48.1895 5.70018 47.9296 5.28095C47.6697 4.86172 47.3297 4.49785 46.929 4.21016C46.5284 3.92247 46.0749 3.7166 45.5946 3.60434C45.1143 3.49207 44.6166 3.47561 44.1299 3.5559C41.9158 3.77276 40.5594 6.90508 39.5186 8.14084C38.9047 8.01516 38.2706 8.0277 37.6622 8.17753C37.0539 8.32736 36.4864 8.61073 36.0012 9.00709C36.0887 9.05959 36.1849 9.12084 36.2724 9.18209L37.5587 10.1008L44.3749 14.9746L45.5824 15.8408C45.6962 15.9196 45.8012 16.0071 45.9062 16.0946C46.1185 15.5087 46.2011 14.8837 46.1482 14.2628C46.0953 13.6419 45.9083 13.0398 45.5999 12.4983C46.4117 11.1225 48.9584 8.79625 48.4436 6.65335Z" fill="white"/>
</g>
</svg>
