<svg width="29" height="29" viewBox="0 0 29 29" fill="none" xmlns="http://www.w3.org/2000/svg">
<g id="baby-bottle">
<path id="Vector" d="M22.2281 11.7289L15.8318 7.15265C15.2227 6.71162 14.4665 6.52359 13.7218 6.62799C12.9771 6.7324 12.3018 7.12113 11.8374 7.71265C9.41806 10.797 7.02493 14.1526 4.71931 17.6745C4.30666 18.3058 4.15495 19.0726 4.29612 19.8135C4.43728 20.5544 4.8603 21.2117 5.47618 21.647L11.8506 26.2058C12.4619 26.6414 13.2169 26.8266 13.9604 26.7233C14.704 26.62 15.3799 26.236 15.8493 25.6502C16.4895 25.0087 16.122 25.0654 15.5605 24.6045C14.3355 23.6989 13.0624 22.7495 13.0405 22.7364C12.9503 22.6657 12.8913 22.5624 12.8761 22.4488C12.8609 22.3351 12.8908 22.22 12.9593 22.128C13.0279 22.0361 13.1296 21.9746 13.2429 21.9566C13.3562 21.9387 13.472 21.9658 13.5656 22.032C13.5874 22.0495 16.5843 24.2764 16.8074 24.447C17.3149 23.7952 17.8122 23.1462 18.2993 22.5002C17.7541 22.0865 16.033 20.8034 16.0374 20.807C15.9915 20.7729 15.9527 20.73 15.9233 20.6808C15.8939 20.6316 15.8745 20.5771 15.8662 20.5205C15.8579 20.4638 15.8608 20.406 15.8748 20.3505C15.8888 20.2949 15.9136 20.2427 15.9477 20.1967C15.9819 20.1508 16.0248 20.112 16.074 20.0826C16.1232 20.0532 16.1777 20.0338 16.2343 20.0255C16.291 20.0172 16.3488 20.0201 16.4043 20.0341C16.4599 20.0481 16.5121 20.0729 16.5581 20.107C16.5712 20.1202 18.5924 21.6208 18.8243 21.7958C19.3187 21.1308 19.7999 20.4614 20.2637 19.7964C19.3351 19.1286 16.8369 17.29 16.8599 17.307C16.7684 17.2379 16.7078 17.1355 16.6911 17.022C16.6745 16.9085 16.7032 16.793 16.771 16.7005C16.8388 16.6079 16.9403 16.5458 17.0536 16.5275C17.1668 16.5092 17.2827 16.5362 17.3762 16.6027C17.3981 16.6158 20.5437 18.9214 20.7624 19.0789C21.2349 18.3964 21.6899 17.7168 22.1274 17.0402C21.5665 16.6289 20.7286 16.0019 20.2593 15.6533C20.1877 15.5973 20.1351 15.5204 20.1089 15.4334C20.0827 15.3463 20.084 15.2532 20.1128 15.1669C20.1415 15.0806 20.1963 15.0054 20.2695 14.9515C20.3428 14.8976 20.4309 14.8676 20.5218 14.8658C20.6164 14.8667 20.7082 14.8973 20.7843 14.9533C21.2489 15.3005 22.0602 15.9015 22.6043 16.3052C23.759 14.9262 23.7685 12.8087 22.2281 11.7289ZM22.7837 9.13453L18.1287 5.80515C17.7702 5.54827 17.3278 5.43662 16.8903 5.49262C16.4528 5.54862 16.0528 5.76813 15.7706 6.10702C16.0386 6.2386 16.2935 6.39535 16.5318 6.57515C16.8981 6.87028 23.1801 11.2537 23.2606 11.4664C23.4893 11.089 23.5673 10.6393 23.4789 10.207C23.3905 9.77475 23.1422 9.39174 22.7837 9.13453ZM24.7218 3.82765C24.6821 3.58425 24.5947 3.35107 24.4648 3.14145C24.3348 2.93184 24.1648 2.7499 23.9645 2.60606C23.7642 2.46221 23.5374 2.35928 23.2973 2.30314C23.0571 2.24701 22.8083 2.23878 22.5649 2.27893C21.4579 2.38736 20.7797 3.95352 20.2593 4.5714C19.9524 4.50856 19.6353 4.51483 19.3311 4.58974C19.0269 4.66466 18.7432 4.80634 18.5006 5.00452C18.5443 5.03077 18.5925 5.0614 18.6362 5.09202L19.2793 5.5514L22.6875 7.98827L23.2912 8.4214C23.3481 8.46077 23.4006 8.50452 23.4531 8.54827C23.5593 8.25533 23.6005 7.94283 23.5741 7.63237C23.5477 7.32191 23.4541 7.02089 23.3 6.75012C23.7058 6.06225 24.9792 4.8991 24.7218 3.82765Z" fill="#00CCB6"/>
</g>
</svg>
