<svg width="28" height="28" viewBox="0 0 28 28" fill="none" xmlns="http://www.w3.org/2000/svg">
<g id="invoice">
<path id="Vector" d="M20.8182 3H6.18182C5.9313 3.00288 5.69015 3.09563 5.50227 3.26134C6.24783 3.52363 6.90378 3.99181 7.39412 4.61162C7.88445 5.23144 8.18909 5.9775 8.27273 6.76336C8.28871 6.90228 8.28871 7.04258 8.27273 7.18151V24.9529C8.27223 25.1529 8.32909 25.3488 8.43657 25.5174C8.54404 25.686 8.69762 25.8202 8.87909 25.9042C9.06099 25.9879 9.2631 26.0177 9.46141 25.9899C9.65972 25.9621 9.84587 25.8779 9.99773 25.7474L12.9773 23.1967L15.9568 25.7474C16.1462 25.9094 16.3872 25.9984 16.6364 25.9984C16.8855 25.9984 17.1265 25.9094 17.3159 25.7474L20.2955 23.1967L23.275 25.7474C23.4644 25.9093 23.7054 25.9983 23.9545 25.9983C24.1058 25.9972 24.2552 25.9652 24.3936 25.9042C24.5751 25.8202 24.7287 25.686 24.8362 25.5174C24.9436 25.3488 25.0005 25.1529 25 24.9529V7.18151C25 6.0725 24.5594 5.00892 23.7752 4.22474C22.9909 3.44055 21.9273 3 20.8182 3ZM19.7727 17.6353H13.5C13.2227 17.6353 12.9568 17.5251 12.7608 17.3291C12.5647 17.133 12.4545 16.8672 12.4545 16.5899C12.4545 16.3126 12.5647 16.0468 12.7608 15.8507C12.9568 15.6547 13.2227 15.5445 13.5 15.5445H19.7727C20.05 15.5445 20.3159 15.6547 20.512 15.8507C20.708 16.0468 20.8182 16.3126 20.8182 16.5899C20.8182 16.8672 20.708 17.133 20.512 17.3291C20.3159 17.5251 20.05 17.6353 19.7727 17.6353ZM19.7727 13.4538H13.5C13.2227 13.4538 12.9568 13.3436 12.7608 13.1476C12.5647 12.9515 12.4545 12.6856 12.4545 12.4084C12.4545 12.1311 12.5647 11.8652 12.7608 11.6692C12.9568 11.4732 13.2227 11.363 13.5 11.363H19.7727C20.05 11.363 20.3159 11.4732 20.512 11.6692C20.708 11.8652 20.8182 12.1311 20.8182 12.4084C20.8182 12.6856 20.708 12.9515 20.512 13.1476C20.3159 13.3436 20.05 13.4538 19.7727 13.4538ZM19.7727 9.27226H13.5C13.2227 9.27226 12.9568 9.16212 12.7608 8.96608C12.5647 8.77003 12.4545 8.50414 12.4545 8.22688C12.4545 7.94963 12.5647 7.68374 12.7608 7.48769C12.9568 7.29165 13.2227 7.18151 13.5 7.18151H19.7727C20.05 7.18151 20.3159 7.29165 20.512 7.48769C20.708 7.68374 20.8182 7.94963 20.8182 8.22688C20.8182 8.50414 20.708 8.77003 20.512 8.96608C20.3159 9.16212 20.05 9.27226 19.7727 9.27226ZM6.18182 7.18151V15.5445H3.04545C2.76818 15.5445 2.50227 15.4344 2.30621 15.2383C2.11015 15.0423 2 14.7764 2 14.4991V7.18151C2 7.03516 2 6.89926 2 6.76336C2.05545 6.20885 2.32893 5.69909 2.76026 5.34621C3.1916 4.99332 3.74546 4.82623 4.3 4.88168C4.85454 4.93713 5.36434 5.21058 5.71725 5.64189C6.07016 6.07319 6.23727 6.62701 6.18182 7.18151Z" fill="#00CCB6"/>
</g>
</svg>
