<svg width="24" height="24" viewBox="0 0 24 24" fill="none" xmlns="http://www.w3.org/2000/svg">
<g id="Layer 2">
<path id="Vector" d="M10.8333 19H13.1666V23.6667H10.8333V19Z" fill="#00CCB6"/>
<path id="Vector_2" d="M19 3.04023L12 0.240234L4.99998 3.04023V7.33357H0.333313V23.6669H8.49998V16.6669H15.5V23.6669H23.6666V7.33357H19V3.04023ZM6.16665 19.0002H3.83331V16.6669H6.16665V19.0002ZM6.16665 14.3336H3.83331V12.0002H6.16665V14.3336ZM10.8333 14.3336H8.49998V12.0002H10.8333V14.3336ZM10.8333 5.00023H13.1666V9.6669H10.8333V5.00023ZM15.5 14.3336H13.1666V12.0002H15.5V14.3336ZM20.1666 19.0002H17.8333V16.6669H20.1666V19.0002ZM20.1666 12.0002V14.3336H17.8333V12.0002H20.1666Z" fill="#00CCB6"/>
</g>
</svg>
