<svg width="16" height="16" viewBox="0 0 16 16" fill="none" xmlns="http://www.w3.org/2000/svg">
<g id="out">
<path id="Vector" d="M2.85817 14.8576H8.57193C9.02655 14.8576 9.46255 14.677 9.78401 14.3555C10.1055 14.034 10.2861 13.598 10.2861 13.1434V12.5721C10.2861 12.4205 10.2259 12.2752 10.1187 12.168C10.0116 12.0609 9.86623 12.0007 9.71469 12.0007C9.56315 12.0007 9.41782 12.0609 9.31066 12.168C9.20351 12.2752 9.14331 12.4205 9.14331 12.5721V13.1434C9.14331 13.295 9.08311 13.4403 8.97596 13.5475C8.8688 13.6546 8.72347 13.7148 8.57193 13.7148H2.85817C2.70663 13.7148 2.5613 13.6546 2.45415 13.5475C2.34699 13.4403 2.2868 13.295 2.2868 13.1434V2.85866C2.2868 2.70712 2.34699 2.56179 2.45415 2.45464C2.5613 2.34748 2.70663 2.28728 2.85817 2.28728H8.57193C8.72347 2.28728 8.8688 2.34748 8.97596 2.45464C9.08311 2.56179 9.14331 2.70712 9.14331 2.85866V3.43004C9.14331 3.58157 9.20351 3.72691 9.31066 3.83406C9.41782 3.94121 9.56315 4.00141 9.71469 4.00141C9.86623 4.00141 10.0116 3.94121 10.1187 3.83406C10.2259 3.72691 10.2861 3.58157 10.2861 3.43004V2.85866C10.2861 2.40404 10.1055 1.96805 9.78401 1.64659C9.46255 1.32513 9.02655 1.14453 8.57193 1.14453H2.85817C2.40356 1.14453 1.96756 1.32513 1.6461 1.64659C1.32464 1.96805 1.14404 2.40404 1.14404 2.85866V13.1434C1.14404 13.598 1.32464 14.034 1.6461 14.3555C1.96756 14.677 2.40356 14.8576 2.85817 14.8576Z" fill="#FFAB2D"/>
<path id="Vector_2" d="M12.7377 5.17255C12.6284 5.07894 12.4878 5.03003 12.344 5.03558C12.2002 5.04114 12.0638 5.10075 11.962 5.20251C11.8603 5.30427 11.8007 5.44068 11.7951 5.58448C11.7896 5.72828 11.8385 5.86888 11.9321 5.97819L13.3777 7.42948H5.14413C4.99259 7.42948 4.84726 7.48968 4.74011 7.59684C4.63295 7.70399 4.57275 7.84932 4.57275 8.00086C4.57275 8.1524 4.63295 8.29773 4.74011 8.40488C4.84726 8.51204 4.99259 8.57224 5.14413 8.57224H13.3777L11.9321 10.0235C11.8257 10.1306 11.7659 10.2754 11.7659 10.4264C11.7659 10.5773 11.8257 10.7221 11.9321 10.8292C12.0391 10.9356 12.184 10.9953 12.3349 10.9953C12.4858 10.9953 12.6307 10.9356 12.7377 10.8292L14.3547 9.21218C14.6757 8.89078 14.856 8.45511 14.856 8.00086C14.856 7.54661 14.6757 7.11094 14.3547 6.78954L12.7377 5.17255Z" fill="#FFAB2D"/>
</g>
</svg>
