<svg width="28" height="28" viewBox="0 0 28 28" fill="none" xmlns="http://www.w3.org/2000/svg">
<g id="check">
<path id="Vector" fill-rule="evenodd" clip-rule="evenodd" d="M14 25.6654C20.4435 25.6654 25.6667 20.4422 25.6667 13.9987C25.6667 7.5552 20.4435 2.33203 14 2.33203C7.5565 2.33203 2.33333 7.5552 2.33333 13.9987C2.33333 20.4422 7.5565 25.6654 14 25.6654ZM18.1253 9.87336C18.3444 9.65461 18.6414 9.53183 18.951 9.53205C19.2606 9.53227 19.5574 9.65546 19.7762 9.87453C19.9949 10.0936 20.1177 10.3906 20.1175 10.7002C20.1173 11.0098 19.9941 11.3066 19.775 11.5254L13.1798 18.1205L13.1752 18.1252C13.0671 18.2339 12.9385 18.3202 12.797 18.3791C12.6554 18.4379 12.5036 18.4682 12.3503 18.4682C12.197 18.4682 12.0452 18.4379 11.9037 18.3791C11.7621 18.3202 11.6336 18.2339 11.5255 18.1252L11.5208 18.1205L8.225 14.8247C8.11357 14.7171 8.02469 14.5883 7.96354 14.446C7.9024 14.3037 7.87022 14.1506 7.86887 13.9957C7.86752 13.8408 7.89704 13.6871 7.9557 13.5438C8.01436 13.4004 8.10099 13.2701 8.21053 13.1606C8.32008 13.051 8.45034 12.9644 8.59372 12.9057C8.73709 12.8471 8.89072 12.8176 9.04563 12.8189C9.20054 12.8203 9.35363 12.8524 9.49597 12.9136C9.63831 12.9747 9.76704 13.0636 9.87466 13.175L12.3503 15.6495L18.1253 9.87453V9.87336Z" fill="#00CCB6"/>
</g>
</svg>
