<svg width="28" height="28" viewBox="0 0 28 28" fill="none" xmlns="http://www.w3.org/2000/svg">
<g id="plus">
<path id="Layer 54" d="M14 4C12.0222 4 10.0888 4.58649 8.4443 5.6853C6.79981 6.78412 5.51809 8.3459 4.76121 10.1732C4.00433 12.0004 3.8063 14.0111 4.19215 15.9509C4.578 17.8907 5.53041 19.6725 6.92894 21.0711C8.32746 22.4696 10.1093 23.422 12.0491 23.8078C13.9889 24.1937 15.9996 23.9957 17.8268 23.2388C19.6541 22.4819 21.2159 21.2002 22.3147 19.5557C23.4135 17.9112 24 15.9778 24 14C24 11.3478 22.9464 8.8043 21.0711 6.92893C19.1957 5.05357 16.6522 4 14 4ZM14 22.1818C12.3818 22.1818 10.7999 21.702 9.45443 20.8029C8.10894 19.9039 7.06025 18.6261 6.44099 17.131C5.82173 15.636 5.6597 13.9909 5.9754 12.4038C6.29109 10.8167 7.07034 9.35883 8.21458 8.21458C9.35883 7.07033 10.8167 6.29109 12.4038 5.97539C13.9909 5.6597 15.636 5.82172 17.131 6.44099C18.6261 7.06025 19.9039 8.10893 20.8029 9.45442C21.702 10.7999 22.1818 12.3818 22.1818 14C22.1818 16.17 21.3198 18.251 19.7854 19.7854C18.251 21.3198 16.17 22.1818 14 22.1818ZM19.4545 14C19.4545 14.2411 19.3588 14.4723 19.1883 14.6428C19.0178 14.8133 18.7866 14.9091 18.5455 14.9091H14.9091V18.5455C14.9091 18.7866 14.8133 19.0178 14.6428 19.1883C14.4723 19.3588 14.2411 19.4545 14 19.4545C13.7589 19.4545 13.5277 19.3588 13.3572 19.1883C13.1867 19.0178 13.0909 18.7866 13.0909 18.5455V14.9091H9.45455C9.21344 14.9091 8.98221 14.8133 8.81172 14.6428C8.64124 14.4723 8.54546 14.2411 8.54546 14C8.54546 13.7589 8.64124 13.5277 8.81172 13.3572C8.98221 13.1867 9.21344 13.0909 9.45455 13.0909H13.0909V9.45454C13.0909 9.21344 13.1867 8.98221 13.3572 8.81172C13.5277 8.64123 13.7589 8.54545 14 8.54545C14.2411 8.54545 14.4723 8.64123 14.6428 8.81172C14.8133 8.98221 14.9091 9.21344 14.9091 9.45454V13.0909H18.5455C18.7866 13.0909 19.0178 13.1867 19.1883 13.3572C19.3588 13.5277 19.4545 13.7589 19.4545 14Z" fill="white"/>
</g>
</svg>
