<svg width="29" height="29" viewBox="0 0 29 29" fill="none" xmlns="http://www.w3.org/2000/svg">
<g id="coupon">
<path id="Vector" d="M14.5028 2.5C13.8164 2.5 13.1204 2.76402 12.5991 3.28565L10.6608 5.22978H7.91361C6.43528 5.22978 5.22443 6.44106 5.22443 7.90996V10.6629L3.28126 12.6055C2.23958 13.6479 2.23958 15.3561 3.28126 16.3977L5.22443 18.3403V21.0916C5.22443 22.5605 6.43528 23.7734 7.91361 23.7734H10.6608L12.5991 25.7175C13.6408 26.7608 15.364 26.7608 16.4057 25.7175L18.344 23.7734H21.0912C22.5696 23.7734 23.7804 22.5605 23.7804 21.0916V18.3403L25.7187 16.3977C26.7604 15.3553 26.7604 13.6471 25.7187 12.6055L23.7804 10.6629V7.90996C23.7804 6.44106 22.5696 5.22978 21.0912 5.22978H18.344L16.4057 3.28565C15.8837 2.76402 15.1892 2.5 14.5028 2.5ZM14.4899 7.52033C14.9362 7.51633 15.3012 7.86916 15.306 8.31159V8.33559V9.13084C16.6482 9.49007 17.6488 10.7117 17.6488 12.1558C17.6593 12.5983 17.3056 12.9639 16.8609 12.9727C16.4154 12.9823 16.0464 12.6319 16.0375 12.191V12.155C16.0375 11.291 15.3576 10.6125 14.5036 10.6125C13.6497 10.6125 12.9681 11.291 12.9681 12.155C12.9681 13.0191 13.6497 13.6959 14.5036 13.6959C16.2341 13.6959 17.6488 15.116 17.6488 16.8386C17.6488 18.2827 16.6482 19.5043 15.306 19.8636V20.6652C15.3157 21.1076 14.9628 21.4733 14.5173 21.4821C14.0726 21.4917 13.7036 21.1412 13.6948 20.6988V20.6644V19.8612C12.355 19.5003 11.3569 18.2787 11.3569 16.8386C11.3665 16.3953 11.7355 16.0465 12.1802 16.0553C12.6104 16.0649 12.9584 16.4089 12.9681 16.8386C12.9681 17.7018 13.6497 18.3811 14.5036 18.3811C15.3576 18.3811 16.0375 17.7018 16.0375 16.8386C16.0375 15.9745 15.3576 15.2969 14.5036 15.2969C12.7731 15.2969 11.3569 13.8776 11.3569 12.1542C11.3569 10.7109 12.3542 9.49487 13.6932 9.13244V8.33399C13.6843 7.89156 14.038 7.52594 14.4827 7.51793C14.4851 7.52033 14.4867 7.52033 14.4899 7.52033Z" fill="#00CCB6"/>
</g>
</svg>
