<svg width="29" height="29" viewBox="0 0 29 29" fill="none" xmlns="http://www.w3.org/2000/svg">
<g id="discount">
<path id="Vector" fill-rule="evenodd" clip-rule="evenodd" d="M24.5797 11.0765L25.4437 11.9407C26.1277 12.6128 26.4997 13.525 26.4997 14.4852C26.5058 14.9642 26.4154 15.4396 26.234 15.8829C26.0525 16.3262 25.7838 16.7285 25.4437 17.0658L25.4317 17.0778L24.5797 17.93C24.2425 18.2661 24.0505 18.7222 24.0505 19.2035V20.4386C24.0505 22.4311 22.4305 24.0526 20.4373 24.0526H19.2013C18.7213 24.0526 18.2653 24.2435 17.9293 24.5796L17.0641 25.4438C16.3561 26.1531 15.4321 26.5 14.5069 26.5C13.551 26.5019 12.6327 26.1272 11.9509 25.457L11.0737 24.5796C10.7377 24.2435 10.2817 24.0526 9.80173 24.0526H8.56573C7.60754 24.052 6.68875 23.6711 6.0111 22.9935C5.33344 22.3159 4.95229 21.397 4.95134 20.4386V19.2035C4.95134 18.7222 4.75934 18.2661 4.42334 17.918L3.55934 17.0658C2.88306 16.3879 2.50226 15.47 2.50001 14.5123C2.49776 13.5547 2.87425 12.635 3.54734 11.9539L4.42334 11.0765C4.75934 10.7404 4.95134 10.2843 4.95134 9.79217V8.56789C4.95134 6.57543 6.57134 4.95626 8.56453 4.95626H9.80053C10.2805 4.95626 10.7365 4.76302 11.0737 4.42694L11.9377 3.56274C12.6152 2.88421 13.534 2.50203 14.4927 2.50001C15.4514 2.49798 16.3718 2.87627 17.0521 3.55194L17.9281 4.42694C18.2641 4.76302 18.7201 4.95626 19.2001 4.95626H20.4361C21.394 4.95658 22.3126 5.33708 22.9903 6.01422C23.6679 6.69135 24.0492 7.60979 24.0505 8.56789V9.80537C24.0505 10.2843 24.2437 10.7404 24.5797 11.0765ZM11.4097 18.6382C11.6977 18.6382 11.9617 18.5302 12.1537 18.3261L18.3241 12.1579C18.5203 11.9597 18.6303 11.6921 18.6303 11.4131C18.6303 11.1342 18.5203 10.8666 18.3241 10.6684C18.128 10.4733 17.8627 10.3637 17.5861 10.3637C17.3095 10.3637 17.0442 10.4733 16.8481 10.6684L10.6777 16.8378C10.2697 17.2459 10.2697 17.918 10.6777 18.3261C10.8697 18.5302 11.1337 18.6382 11.4097 18.6382ZM16.5361 17.582C16.5353 17.7199 16.5617 17.8566 16.6138 17.9843C16.6658 18.112 16.7425 18.2283 16.8394 18.3263C16.9364 18.4244 17.0517 18.5024 17.1788 18.556C17.3059 18.6095 17.4422 18.6374 17.5801 18.6382C17.718 18.639 17.8547 18.6126 17.9824 18.5605C18.1101 18.5085 18.2263 18.4318 18.3243 18.3348C18.4224 18.2379 18.5004 18.1225 18.5539 17.9954C18.6074 17.8683 18.6353 17.7319 18.6361 17.594C18.6377 17.3154 18.5286 17.0476 18.3328 16.8496C18.137 16.6515 17.8706 16.5393 17.5921 16.5377C17.3136 16.5361 17.0459 16.6452 16.8479 16.8411C16.6499 17.0369 16.5377 17.3034 16.5361 17.582ZM11.4217 10.3683C11.9977 10.3683 12.4657 10.8364 12.4657 11.4125C12.4657 12.0019 11.9977 12.4688 11.4217 12.4688C11.1417 12.4688 10.8731 12.3575 10.675 12.1594C10.477 11.9613 10.3657 11.6927 10.3657 11.4125C10.3657 10.8364 10.8457 10.3683 11.4217 10.3683Z" fill="#A4A4A4"/>
</g>
</svg>
