<svg width="16" height="16" viewBox="0 0 16 16" fill="none" xmlns="http://www.w3.org/2000/svg">
<g id="down-arrow">
<path id="Vector" d="M1.97137 4.01254C1.78154 4.01704 1.59711 4.06945 1.43971 4.16373C1.28231 4.258 1.15848 4.3902 1.08277 4.54475C1.00705 4.69931 0.982589 4.86985 1.01225 5.03631C1.04192 5.20277 1.12448 5.35828 1.25024 5.48455L7.23174 11.6893C7.32543 11.7867 7.44182 11.8649 7.57288 11.9186C7.70393 11.9722 7.84655 12 7.99088 12C8.1352 12 8.27782 11.9722 8.40888 11.9186C8.53993 11.8649 8.65632 11.7867 8.75001 11.6893L14.7374 5.48455C14.828 5.39691 14.8978 5.29397 14.9426 5.18187C14.9874 5.06978 15.0063 4.95083 14.9982 4.83211C14.9901 4.71339 14.9551 4.59728 14.8953 4.49082C14.8356 4.38435 14.7523 4.28973 14.6504 4.21245C14.5486 4.13517 14.4302 4.07684 14.3024 4.04104C14.1746 4.00524 14.04 3.99269 13.9066 4.00406C13.7732 4.01543 13.6437 4.0505 13.526 4.10724C13.4082 4.16397 13.3045 4.24114 13.221 4.33422L7.9899 9.75358L2.76072 4.33422C2.66496 4.23127 2.54423 4.14895 2.40754 4.09324C2.27085 4.03754 2.12175 4.0099 1.97137 4.01254Z" fill="#00CCB6"/>
</g>
</svg>
