<svg width="28" height="28" viewBox="0 0 28 28" fill="none" xmlns="http://www.w3.org/2000/svg">
<g id="Analytic">
<path id="Vector" d="M13.4995 4C11.0908 4.00006 8.73341 4.6879 6.71094 5.98078C4.68846 7.27365 3.08703 9.1165 2.0993 11.2876C1.11157 13.4587 0.779613 15.8656 1.14336 18.2188C1.5071 20.572 2.55106 22.7712 4.14964 24.5518C4.26646 24.6817 4.40967 24.7858 4.56994 24.8573C4.7302 24.9288 4.90391 24.9661 5.07975 24.9668C15.7497 25.0093 10.9603 25.0001 21.8886 24.9969C22.0644 24.997 22.2383 24.9605 22.3988 24.8896C22.5593 24.8187 22.7028 24.7151 22.82 24.5855C24.4278 22.8078 25.4806 20.6081 25.8515 18.252C26.2223 15.896 25.8953 13.4842 24.9098 11.3078C23.9244 9.13132 22.3227 7.28322 20.298 5.98651C18.2733 4.68979 15.9122 3.99987 13.4995 4V4ZM19.2379 13.6437L17.0529 15.225C17.178 15.5885 17.2443 15.9693 17.2494 16.3533C17.2529 17.182 16.9764 17.9882 16.4637 18.644C15.9509 19.2998 15.2314 19.7677 14.4191 19.9736C13.6068 20.1794 12.7482 20.1114 11.9795 19.7803C11.2107 19.4491 10.5758 18.8739 10.1754 18.1458C9.77494 17.4176 9.63191 16.5782 9.76896 15.7606C9.90601 14.9429 10.3153 14.1939 10.9319 13.6323C11.5485 13.0706 12.3372 12.7284 13.1729 12.66C14.0087 12.5916 14.8436 12.8008 15.5453 13.2545L17.7609 11.6508C18.0287 11.4636 18.3601 11.3879 18.6838 11.44C19.0075 11.4921 19.2975 11.6679 19.4912 11.9293C19.685 12.1908 19.7671 12.5171 19.7197 12.8378C19.6723 13.1585 19.4993 13.4479 19.2379 13.6437V13.6437Z" fill="#00CCB6"/>
<path id="Vector_2" d="M13.5 18C14.3284 18 15 17.3284 15 16.5C15 15.6716 14.3284 15 13.5 15C12.6716 15 12 15.6716 12 16.5C12 17.3284 12.6716 18 13.5 18Z" fill="#00CCB6"/>
</g>
</svg>
