<svg width="29" height="29" viewBox="0 0 29 29" fill="none" xmlns="http://www.w3.org/2000/svg">
<g id="diaper">
<path id="Vector" d="M19.9168 25.5V23.3391C19.9168 19.0171 23.3192 15.5 27.5 15.5V16.6187C27.5 21.1857 24.1905 24.9477 19.9168 25.5ZM9.08322 25.5V23.3391C9.08322 19.0171 5.6808 15.5 1.5 15.5V16.6187C1.5 21.1857 4.80947 24.9477 9.08322 25.5Z" fill="#6418C3"/>
<path id="Vector_2" d="M21 10.1001V7.89993H27.5V3.5H1.5V7.89993H8V10.1001H1.5V13.4001C6.87647 13.4001 11.25 17.841 11.25 23.3002V25.5H17.75V23.3002C17.75 17.841 22.1235 13.4001 27.5 13.4001V10.1001H21Z" fill="#6418C3"/>
</g>
</svg>
