<svg width="56" height="56" viewBox="0 0 56 56" fill="none" xmlns="http://www.w3.org/2000/svg">
<g id="diaper">
<path id="Vector" d="M38.8335 50V45.6783C38.8335 37.0342 45.6384 30 54 30V32.2375C54 41.3714 47.381 48.8954 38.8335 50ZM17.1664 50V45.6783C17.1664 37.0342 10.3616 30 2 30V32.2375C2 41.3714 8.61895 48.8954 17.1664 50Z" fill="white"/>
<path id="Vector_2" d="M41 19.2001V14.7999H54V6H2V14.7999H15V19.2001H2V25.8002C12.7529 25.8002 21.5 34.6819 21.5 45.6004V50H34.5V45.6004C34.5 34.6819 43.247 25.8002 54 25.8002V19.2001H41Z" fill="white"/>
</g>
</svg>
