<svg width="36" height="36" viewBox="0 0 36 36" fill="none" xmlns="http://www.w3.org/2000/svg">
<g id="report">
<path id="Vector" d="M28.2685 28.8074V9.0389C28.2685 9.00413 28.2685 8.97251 28.2653 8.9409C28.2176 8.20112 27.7853 7.49296 27.0922 7.18314C26.7171 7.01242 26.3388 6.97448 25.9382 6.97448H23.3949C23.3949 6.65834 23.3949 6.30109 23.3885 5.96598V5.91224C23.379 5.69726 23.3027 5.49809 23.1501 5.34318C23.0452 5.23885 22.9307 5.17562 22.8068 5.14401C22.7877 5.13768 22.7686 5.13452 22.7495 5.13136C22.7114 5.12504 22.6701 5.11239 22.6319 5.11239C22.6287 5.11239 22.6256 5.11239 22.6256 5.10923C22.6256 5.10607 22.6224 5.10291 22.6224 5.09975C22.6097 5.0871 22.5938 5.11239 22.581 5.08078H19.8947C19.8883 4.9227 19.8724 4.7267 19.8375 4.54333C19.688 3.79723 19.138 3.12068 18.445 2.8077C17.7106 2.47891 16.8936 2.49156 16.1751 2.85512C15.5679 3.16178 15.1037 3.734 14.9162 4.37894C14.8494 4.60972 14.824 4.85948 14.8176 5.08078H13.1168C12.7957 5.08078 12.4682 5.08394 12.1472 5.09342C11.6766 5.10923 11.3238 5.46331 11.311 5.92804C11.3079 6.03237 11.3015 6.14618 11.3015 6.25367V6.98396C10.3796 6.98396 9.45125 6.9808 8.52295 6.98396C7.3721 6.99029 6.44698 7.90078 6.43108 9.04839C6.4279 9.20014 6.43744 9.34872 6.43744 9.50047V29.0002C6.43744 29.6894 6.35478 30.4513 6.69813 31.0773C7.0828 31.776 7.82672 32.1427 8.60561 32.1427H25.4868C25.7125 32.1427 25.9414 32.1332 26.1671 32.1332C27.1463 32.1301 28.0682 31.4535 28.2399 30.4672C28.3225 29.9297 28.2685 29.348 28.2685 28.8074ZM16.4485 5.01123C16.4485 4.99542 16.4517 4.98277 16.4517 4.96696C16.4549 4.93851 16.458 4.91006 16.4644 4.88161L16.4739 4.84367C16.4739 4.84051 16.4771 4.83735 16.4771 4.83418C16.4803 4.82786 16.4739 4.82154 16.4739 4.81205C16.4771 4.80257 16.4739 4.79309 16.4739 4.7836H16.4835C16.4835 4.78044 16.4898 4.77728 16.4898 4.77412C16.4898 4.77096 16.493 4.77096 16.493 4.76779C16.4962 4.76147 16.4962 4.75515 16.4994 4.75199C16.5026 4.7425 16.5057 4.73618 16.5089 4.7267C16.5089 4.72353 16.5089 4.72353 16.5121 4.72353C16.5121 4.72037 16.5057 4.72037 16.5057 4.71721C16.5089 4.71089 16.5026 4.70773 16.5026 4.70457C16.5026 4.7014 16.5121 4.7014 16.5121 4.7014C16.5153 4.69824 16.5184 4.69508 16.5216 4.68876C16.5216 4.6856 16.5248 4.6856 16.528 4.68244C16.528 4.68244 16.528 4.67927 16.5312 4.67927C16.5312 4.67611 16.5343 4.67611 16.5343 4.67611C16.5375 4.67295 16.5375 4.66663 16.5407 4.66347C16.5407 4.66347 16.5407 4.66031 16.5439 4.66031C16.5471 4.65714 16.5471 4.65082 16.5502 4.64766C16.5534 4.6445 16.5534 4.64134 16.5566 4.63818C16.5598 4.63185 16.5661 4.62237 16.5693 4.61604L16.5789 4.59708L16.5979 4.56862C16.6043 4.55598 16.6138 4.54333 16.6234 4.53385C16.6329 4.52436 16.6393 4.51172 16.6488 4.50223L16.652 4.49907C16.6615 4.48959 16.6679 4.47694 16.6774 4.46746C16.6869 4.45481 16.6997 4.44533 16.7092 4.43268C16.8109 4.33152 16.9286 4.26513 17.0589 4.22086C17.0653 4.2177 17.0684 4.2177 17.0748 4.21454C17.0812 4.21454 17.0843 4.21138 17.0907 4.21138H17.0939C17.1161 4.20506 17.1416 4.2019 17.1638 4.19557C17.1702 4.19557 17.1734 4.2019 17.1797 4.19873C17.2306 4.18609 17.2846 4.19241 17.3387 4.19241C17.3864 4.19241 17.434 4.18925 17.4754 4.19873C17.4881 4.2019 17.5008 4.19241 17.5103 4.19241C17.5135 4.19241 17.5199 4.19873 17.5231 4.2019C17.5294 4.20506 17.5358 4.19241 17.5421 4.22403C17.5994 4.22403 17.6534 4.24616 17.7074 4.26829C17.7138 4.27145 17.7202 4.27145 17.7265 4.27145C17.8187 4.31255 17.9045 4.36629 17.9745 4.439L17.9967 4.46113C18.0095 4.47378 18.019 4.48643 18.0317 4.49907C18.1207 4.60656 18.178 4.72986 18.2097 4.8658C18.2161 4.88477 18.2225 4.90374 18.2256 4.92587C18.2288 4.94167 18.232 4.95748 18.2352 4.97645C18.2352 4.97961 18.2447 4.98277 18.2447 4.98593C18.2447 4.99226 18.2543 4.99542 18.2543 5.00174V5.06181C18.2543 5.07129 18.2479 5.08078 18.2479 5.09026C18.2479 5.09975 18.2447 5.10607 18.2447 5.11555C18.2447 5.12504 18.2415 5.13136 18.2415 5.14084C18.2415 5.14401 18.2384 5.14717 18.2384 5.14717V5.15349C18.2384 5.15981 18.2352 5.16614 18.2352 5.17246C18.232 5.18827 18.2288 5.20091 18.2256 5.21672C18.2225 5.22304 18.2225 5.22936 18.2193 5.23569C18.2161 5.25149 18.2097 5.26414 18.2066 5.27679C18.2034 5.28943 18.2002 5.29892 18.197 5.31156C18.1938 5.31788 18.1938 5.32737 18.1907 5.33369C18.1907 5.33685 18.1907 5.34001 18.1875 5.34318C18.1875 5.34634 18.1907 5.3495 18.1875 5.35266V5.36531C18.1875 5.37479 18.1748 5.38427 18.1716 5.3906C18.1716 5.39376 18.1684 5.39692 18.1652 5.39692L18.1557 5.41589C18.1493 5.42854 18.143 5.44434 18.1366 5.45699C18.1303 5.46963 18.1239 5.48228 18.1144 5.49493C18.1112 5.50125 18.108 5.50441 18.1048 5.51073C18.0953 5.5297 18.0826 5.54551 18.0699 5.56448C18.0667 5.5708 18.0603 5.57712 18.054 5.58345C18.0381 5.60558 18.0158 5.62454 17.9967 5.64351C17.984 5.65932 17.984 5.67513 17.9522 5.69093H17.9586C17.9586 5.70358 17.9363 5.71307 17.9236 5.72571C17.9109 5.7352 17.9014 5.74468 17.8887 5.75416L17.8855 5.75733C17.8728 5.76681 17.86 5.77629 17.8441 5.78578C17.841 5.78894 17.8346 5.7921 17.8314 5.79526C17.8251 5.80159 17.8155 5.80475 17.8092 5.81107C17.7837 5.82688 17.7551 5.84268 17.7265 5.85533C17.7202 5.85849 17.7138 5.86165 17.7043 5.86481C17.6979 5.86798 17.6915 5.87114 17.682 5.8743H17.6757C17.6725 5.8743 17.6693 5.87746 17.6661 5.87746C17.6629 5.87746 17.6598 5.88062 17.6566 5.88062C17.6502 5.88378 17.6407 5.88694 17.6343 5.89011C17.628 5.89327 17.6184 5.89643 17.6089 5.89959C17.6025 5.90275 17.5962 5.90275 17.5898 5.90591C17.5072 5.93437 17.415 5.94701 17.3228 5.94385H17.2687C17.2624 5.94385 17.256 5.94385 17.2496 5.94069H17.2369C17.2338 5.94069 17.2274 5.94069 17.2242 5.93753C17.2179 5.93753 17.2147 5.93753 17.2083 5.93437C17.1988 5.93437 17.1924 5.9312 17.1829 5.9312C17.1765 5.9312 17.1702 5.92804 17.167 5.92804C17.1352 5.92172 17.1034 5.9154 17.0748 5.90591C17.0653 5.90275 17.0589 5.89327 17.0494 5.89011C17.0366 5.88694 17.0271 5.87114 17.0144 5.87114L17.0112 5.87746C17.008 5.87746 17.0049 5.88062 17.0017 5.88062V5.88378H16.9985C16.9953 5.88062 16.9921 5.88062 16.9858 5.88062C16.9826 5.88062 16.9826 5.87746 16.9794 5.87746C16.9762 5.87746 16.9762 5.8743 16.9731 5.8743C16.9699 5.8743 16.9667 5.87114 16.9635 5.87114C16.9572 5.86798 16.954 5.86798 16.9476 5.86481C16.9413 5.86165 16.9349 5.85849 16.9317 5.85533C16.9286 5.85217 16.9254 5.85217 16.919 5.84901C16.9158 5.84585 16.9127 5.84585 16.9063 5.84268C16.8999 5.83952 16.8968 5.83636 16.8904 5.8332C16.8872 5.83004 16.884 5.83004 16.8809 5.82688C16.8745 5.82372 16.8682 5.82055 16.865 5.81739C16.8618 5.81423 16.8586 5.81423 16.8554 5.81107C16.8523 5.81107 16.8491 5.80791 16.8491 5.80791C16.8459 5.80791 16.8459 5.80475 16.8427 5.80475L16.8395 5.80159C16.8395 5.80159 16.8364 5.80159 16.8364 5.79842C16.83 5.79526 16.8268 5.7921 16.8205 5.78894C16.8173 5.78578 16.8141 5.78578 16.8109 5.78262C16.7919 5.76997 16.7696 5.75416 16.7505 5.73836C16.7378 5.72887 16.7283 5.71939 16.7187 5.7099L16.706 5.69726C16.7028 5.6941 16.6965 5.69093 16.6933 5.68461L16.6869 5.67829L16.6806 5.67197L16.6647 5.65616L16.6615 5.653L16.6583 5.64984L16.6552 5.64667L16.652 5.64351L16.6424 5.63403C16.6393 5.62771 16.6329 5.62454 16.6297 5.61822C16.6202 5.60874 16.6106 5.59609 16.6043 5.58345C16.5979 5.57396 16.5884 5.56448 16.582 5.55499C16.563 5.5297 16.5471 5.50441 16.5343 5.47596C16.528 5.46647 16.5216 5.45383 16.5184 5.44434C16.5153 5.44118 16.5121 5.43486 16.5121 5.42854C16.5089 5.41905 16.5026 5.41273 16.4994 5.40324C16.493 5.3906 16.4898 5.37795 16.4835 5.36531C16.4803 5.36215 16.4803 5.35582 16.4771 5.35266C16.4739 5.34001 16.4676 5.33053 16.4644 5.31789C16.4612 5.31156 16.458 5.30208 16.458 5.29575C16.458 5.29259 16.4549 5.28943 16.4549 5.28311C16.4517 5.27679 16.4517 5.27046 16.4517 5.26414C16.4485 5.25782 16.4485 5.25149 16.4485 5.24517C16.4453 5.23885 16.4453 5.22936 16.4422 5.22304C16.439 5.21356 16.439 5.20407 16.4358 5.19459C16.4326 5.17878 16.4326 5.16614 16.4294 5.15033V5.14401C16.4294 5.14084 16.4263 5.13768 16.4263 5.13452C16.4263 5.12188 16.4199 5.11239 16.4199 5.09975C16.4199 5.08394 16.4231 5.07129 16.4231 5.05549C16.4453 5.03968 16.4485 5.02387 16.4485 5.01123ZM13.4887 26.196H10.5989C10.0489 26.196 9.63882 25.7598 9.61657 25.2318C9.59113 24.7038 10.0871 24.2676 10.5989 24.2676H13.4887C14.0387 24.2676 14.4488 24.7038 14.4711 25.2318C14.4965 25.7598 14.0038 26.196 13.4887 26.196ZM24.4694 24.3403L23.9671 24.8398C23.2518 25.5543 22.5334 26.2656 21.8181 26.9801L20.4637 28.3269C20.0886 28.6999 19.4496 28.6999 19.0745 28.3269C18.4609 27.7167 17.8473 27.1065 17.2306 26.4964C16.8427 26.1107 16.8713 25.5069 17.2306 25.1148C17.5898 24.726 18.2574 24.7576 18.6199 25.118L19.7675 26.2593C20.4192 25.608 21.0741 24.9536 21.7259 24.3055L23.0802 22.9587C23.468 22.573 24.0784 22.6015 24.4694 22.9587C24.8605 23.3128 24.835 23.9767 24.4694 24.3403ZM24.0975 20.2715C24.0911 20.2715 24.0816 20.2778 24.0752 20.2778C23.5284 20.2905 22.9784 20.2873 22.4284 20.2873H10.5989C10.0489 20.2873 9.63882 19.8321 9.61657 19.3041C9.59113 18.7761 10.0871 18.3209 10.5989 18.3209C10.6053 18.3209 10.6148 18.3241 10.6212 18.3241C11.168 18.3114 11.718 18.3272 12.268 18.3272H24.1007C24.6507 18.3272 25.0608 18.7698 25.083 19.3009C25.1053 19.8257 24.6125 20.2715 24.0975 20.2715ZM24.0975 14.3153C24.0911 14.3153 24.0816 14.3122 24.0752 14.3122C23.5284 14.3217 22.9784 14.309 22.4284 14.309H10.5989C10.0489 14.309 9.63882 13.8633 9.61657 13.3353C9.59113 12.8073 10.0871 12.3584 10.5989 12.3584C10.6053 12.3584 10.6148 12.3553 10.6212 12.3553C11.168 12.3426 11.718 12.3489 12.268 12.3489H24.1007C24.6507 12.3489 25.0608 12.801 25.083 13.3321C25.1053 13.8601 24.6125 14.3153 24.0975 14.3153Z" fill="#00CCB6"/>
</g>
</svg>
