<svg width="16" height="17" viewBox="0 0 16 17" fill="none" xmlns="http://www.w3.org/2000/svg">
<g id="email 1">
<path id="Vector" d="M7.99999 8.26657L14.5045 4.71864C14.2977 4.038 13.878 3.4416 13.3073 3.01698C12.7365 2.59236 12.0447 2.36188 11.3333 2.35938H4.66665C3.95527 2.36188 3.26343 2.59236 2.69268 3.01698C2.12193 3.4416 1.70232 4.038 1.49545 4.71864L7.99999 8.26657Z" fill="#00CCB6"/>
<path id="Vector_2" d="M8.31942 9.61064C8.22146 9.66404 8.11166 9.69202 8.00009 9.69202C7.88851 9.69202 7.77872 9.66404 7.68075 9.61064L1.33342 6.14844V11.0254C1.33446 11.9091 1.68598 12.7563 2.31088 13.3812C2.93578 14.0061 3.78302 14.3577 4.66675 14.3587H11.3334C12.2172 14.3577 13.0644 14.0061 13.6893 13.3812C14.3142 12.7563 14.6657 11.9091 14.6668 11.0254V6.14844L8.31942 9.61064Z" fill="#00CCB6"/>
</g>
</svg>
