<svg width="56" height="56" viewBox="0 0 56 56" fill="none" xmlns="http://www.w3.org/2000/svg">
<g id="exercise">
<path id="Vector" d="M4.73708 18.6029L8.82716 21.6115C9.18749 21.8735 9.60625 22 10.0347 22C10.6093 22 11.1742 21.7651 11.5636 21.3133L12.7907 19.8769C13.1121 19.4974 13.2581 19.0276 13.1997 18.5487C13.1413 18.0699 12.8784 17.6362 12.4693 17.3381L12.3038 17.2207L15.4493 13.5436L15.6149 13.6611C15.9557 13.923 16.3842 14.0586 16.8126 14.0586C16.8906 14.0586 16.9685 14.0495 17.0464 14.0405C17.5625 13.9863 18.0202 13.7513 18.3416 13.3719L19.5784 11.9354C19.8997 11.556 20.0458 11.0861 19.9874 10.6073C19.9192 10.1285 19.666 9.69482 19.257 9.39665L15.1669 6.38815C14.3294 5.77372 13.1023 5.90024 12.4402 6.68626L11.2034 8.12277C10.882 8.5022 10.736 8.97202 10.7943 9.45086C10.8626 9.9297 11.1157 10.3633 11.5247 10.6615L11.6903 10.779L8.54477 14.4561L8.37924 14.3296C7.97998 14.0314 7.46385 13.905 6.94771 13.9592C6.43157 14.0133 5.97388 14.2483 5.65248 14.6277L4.41575 16.0642C4.09436 16.4437 3.94827 16.9135 4.01642 17.3924C4.07486 17.8711 4.3281 18.3048 4.73708 18.6029Z" fill="white"/>
<path id="Vector_2" d="M29.1816 18.4296C31.9543 17.775 33.6713 14.9968 33.0167 12.2242C32.3622 9.45153 29.5839 7.7345 26.8113 8.38905C24.0387 9.0436 22.3216 11.8219 22.9762 14.5945C23.6307 17.3671 26.409 19.0842 29.1816 18.4296Z" fill="white"/>
<path id="Vector_3" d="M37.6491 13.3719C37.9705 13.7513 38.4381 13.9863 38.9543 14.0405C39.0322 14.0495 39.1004 14.0586 39.1783 14.0586C39.6167 14.0586 40.0356 13.923 40.3862 13.6611L40.5518 13.5436L43.6883 17.2207L43.5228 17.3381C43.1136 17.6362 42.8604 18.0699 42.8019 18.5487C42.7435 19.0276 42.8895 19.4974 43.211 19.8769L44.4384 21.3133C44.8279 21.7651 45.3929 22 45.9676 22C46.3865 22 46.8151 21.8735 47.1755 21.6115L51.2568 18.6029C51.6659 18.3048 51.9289 17.8711 51.9874 17.3924C52.0458 16.9135 51.8997 16.4437 51.5782 16.0642L50.3509 14.6277C50.0295 14.2483 49.5619 14.0133 49.0457 13.9592C48.5294 13.905 48.0229 14.0314 47.6138 14.3296L47.4482 14.4561L44.3117 10.779L44.4773 10.6615C44.8864 10.3633 45.1396 9.9297 45.1981 9.45086C45.2565 8.97202 45.1105 8.5022 44.789 8.12277L43.5617 6.68626C42.8895 5.90024 41.6719 5.77372 40.8246 6.38815L36.7432 9.39665C36.3341 9.69482 36.0711 10.1285 36.0126 10.6073C35.9542 11.0861 36.1004 11.556 36.4218 11.9354L37.6491 13.3719Z" fill="white"/>
<path id="Vector_4" d="M42 17.8894L40.7424 16.4261C40.4707 16.4723 40.189 16.5002 39.9073 16.5002C39.7464 16.5002 39.6055 16.4909 39.4545 16.4723C38.8911 16.4168 38.3579 16.2593 37.8951 16L29.9569 21.7794H26.0331L18.1049 16C17.6421 16.2501 17.1089 16.4168 16.5455 16.4723C16.3945 16.4909 16.2436 16.5002 16.0826 16.5002C15.8009 16.5002 15.5293 16.4723 15.2576 16.4168L14 17.8894C14.181 18.2506 14.3018 18.6397 14.3521 19.0472C14.4225 19.5751 14.3622 20.103 14.171 20.6032L22.2099 26.4566V46.8788C22.2099 48.6014 23.7391 50 25.6105 50C26.5462 50 27.3813 49.6481 27.995 49.0924C28.6087 49.6481 29.4538 50 30.3895 50C32.2609 50 33.7801 48.6014 33.7801 46.8788V26.4566L41.819 20.6032C41.6378 20.103 41.5775 19.5751 41.6479 19.0472C41.6982 18.6397 41.819 18.2506 42 17.8894Z" fill="white"/>
</g>
</svg>
