<svg width="28" height="29" viewBox="0 0 28 29" fill="none" xmlns="http://www.w3.org/2000/svg">
<g id="export">
<path id="Vector" fill-rule="evenodd" clip-rule="evenodd" d="M13.586 17.5H8V22.5H19C19.552 22.5 20 22.052 20 21.5C20 18.5 20 12.988 20 11.13C20 10.925 19.937 10.725 19.819 10.557C19.218 9.698 18.007 7.969 17.278 6.927C17.091 6.659 16.785 6.5 16.459 6.5C14.726 6.5 11.223 6.5 9 6.5C8.735 6.5 8.48 6.605 8.293 6.793C8.105 6.98 8 7.235 8 7.5V12.5C8 13.052 7.552 13.5 7 13.5C6.448 13.5 6 13.052 6 12.5C6 12.5 6 9.569 6 7.5C6 6.704 6.316 5.941 6.879 5.379C7.441 4.816 8.204 4.5 9 4.5C11.223 4.5 14.726 4.5 16.459 4.5C17.438 4.5 18.355 4.978 18.916 5.78C19.646 6.822 20.857 8.551 21.458 9.41C21.811 9.914 22 10.515 22 11.13C22 12.988 22 18.5 22 21.5C22 23.157 20.657 24.5 19 24.5C15.131 24.5 7 24.5 7 24.5C6.448 24.5 6 24.052 6 23.5C6 23.5 6 19.87 6 17.5C6 16.395 6.895 15.5 8 15.5H13.586L12.293 14.207C11.903 13.817 11.903 13.183 12.293 12.793C12.683 12.403 13.317 12.403 13.707 12.793L16.707 15.793C17.098 16.183 17.098 16.817 16.707 17.207L13.707 20.207C13.317 20.597 12.683 20.597 12.293 20.207C11.903 19.817 11.903 19.183 12.293 18.793L13.586 17.5Z" fill="#A4A4A4"/>
</g>
</svg>
