<svg width="28" height="28" viewBox="0 0 28 28" fill="none" xmlns="http://www.w3.org/2000/svg">
<path d="M14 17C15.1046 17 16 16.1046 16 15C16 13.8954 15.1046 13 14 13C12.8954 13 12 13.8954 12 15C12 16.1046 12.8954 17 14 17Z" fill="#A4A4A4"/>
<path d="M25.6594 13.0871C24.56 10.9533 22.8898 9.16255 20.8326 7.9121C18.7754 6.66166 16.4111 6 14 6C11.5889 6 9.22458 6.66166 7.1674 7.9121C5.11021 9.16255 3.43997 10.9533 2.34061 13.0871C2.11671 13.5248 2 14.0089 2 14.5C2 14.9911 2.11671 15.4752 2.34061 15.9129C3.43997 18.0467 5.11021 19.8374 7.1674 21.0879C9.22458 22.3383 11.5889 23 14 23C16.4111 23 18.7754 22.3383 20.8326 21.0879C22.8898 19.8374 24.56 18.0467 25.6594 15.9129C25.8833 15.4752 26 14.9911 26 14.5C26 14.0089 25.8833 13.5248 25.6594 13.0871ZM14 19.0093C13.1031 19.0093 12.2264 18.7448 11.4806 18.2493C10.7349 17.7538 10.1536 17.0496 9.81042 16.2256C9.46719 15.4017 9.37739 14.495 9.55237 13.6203C9.72734 12.7456 10.1592 11.9421 10.7934 11.3115C11.4276 10.6808 12.2357 10.2514 13.1153 10.0774C13.995 9.90338 14.9068 9.99267 15.7354 10.334C16.564 10.6753 17.2722 11.2532 17.7705 11.9948C18.2688 12.7363 18.5348 13.6081 18.5348 14.5C18.5321 15.6951 18.0535 16.8405 17.2036 17.6856C16.3538 18.5307 15.2019 19.0066 14 19.0093Z" fill="#A4A4A4"/>
</svg>
