<svg width="36" height="36" viewBox="0 0 36 36" fill="none" xmlns="http://www.w3.org/2000/svg">
<g id="baby-bottle">
<path id="Vector" d="M27.936 14.436L19.7123 8.55229C18.9291 7.98525 17.9569 7.7435 16.9994 7.87773C16.0419 8.01197 15.1736 8.51177 14.5766 9.27229C11.466 13.2379 8.38913 17.5523 5.42475 22.0804C4.8942 22.8921 4.69916 23.878 4.88065 24.8305C5.06214 25.7831 5.60603 26.6282 6.39788 27.1879L14.5935 33.0492C15.3796 33.6093 16.3502 33.8474 17.3062 33.7146C18.2622 33.5817 19.1312 33.088 19.7348 32.3348C20.5579 31.5101 20.0853 31.583 19.3634 30.9904C17.7885 29.826 16.1516 28.6054 16.1235 28.5886C16.0074 28.4976 15.9316 28.3649 15.9121 28.2187C15.8925 28.0726 15.931 27.9246 16.0191 27.8063C16.1072 27.6881 16.238 27.609 16.3837 27.586C16.5293 27.5629 16.6782 27.5977 16.7985 27.6829C16.8266 27.7054 20.6798 30.5686 20.9666 30.7879C21.6191 29.9498 22.2585 29.1154 22.8848 28.2848C22.1838 27.753 19.9709 26.1032 19.9766 26.1079C19.9175 26.064 19.8677 26.0088 19.8299 25.9456C19.7921 25.8824 19.7672 25.8123 19.7565 25.7395C19.7458 25.6666 19.7495 25.5923 19.7675 25.5209C19.7855 25.4495 19.8174 25.3823 19.8613 25.3232C19.9053 25.2642 19.9604 25.2143 20.0237 25.1765C20.0869 25.1387 20.1569 25.1138 20.2298 25.1031C20.3026 25.0924 20.3769 25.0961 20.4483 25.1141C20.5197 25.1321 20.5869 25.164 20.646 25.2079C20.6629 25.2248 23.2616 27.1542 23.5598 27.3792C24.1954 26.5242 24.8141 25.6636 25.4104 24.8086C24.2165 23.95 21.0045 21.586 21.0341 21.6079C20.9165 21.519 20.8385 21.3874 20.8171 21.2414C20.7957 21.0955 20.8326 20.947 20.9198 20.828C21.007 20.7091 21.1375 20.6292 21.2831 20.6057C21.4287 20.5822 21.5777 20.6169 21.6979 20.7023C21.726 20.7192 25.7704 23.6836 26.0516 23.8861C26.6591 23.0086 27.2441 22.1348 27.8066 21.2648C27.0854 20.736 26.0081 19.9299 25.4048 19.4817C25.3127 19.4096 25.2451 19.3109 25.2114 19.1989C25.1776 19.0869 25.1794 18.9673 25.2164 18.8564C25.2533 18.7454 25.3237 18.6487 25.4179 18.5793C25.5121 18.51 25.6254 18.4715 25.7423 18.4692C25.8638 18.4703 25.9819 18.5097 26.0798 18.5817C26.6771 19.0281 27.7202 19.8009 28.4198 20.3198C29.9044 18.5469 29.9165 15.8243 27.936 14.436ZM28.6504 11.1004L22.6654 6.81979C22.2045 6.48952 21.6356 6.34596 21.0732 6.41796C20.5107 6.48996 19.9964 6.77219 19.6335 7.20792C19.9781 7.37709 20.3058 7.57862 20.6123 7.80979C21.0832 8.18925 29.16 13.825 29.2635 14.0985C29.5576 13.6134 29.6578 13.0352 29.5442 12.4794C29.4305 11.9236 29.1113 11.4311 28.6504 11.1004ZM31.1423 4.27729C31.0912 3.96434 30.9789 3.66454 30.8118 3.39504C30.6447 3.12553 30.4262 2.89162 30.1686 2.70667C29.911 2.52173 29.6195 2.38938 29.3107 2.31721C29.002 2.24504 28.682 2.23446 28.3691 2.28607C26.9458 2.42548 26.0739 4.43912 25.4047 5.23354C25.0101 5.15275 24.6025 5.1608 24.2114 5.25712C23.8203 5.35344 23.4555 5.53561 23.1435 5.79041C23.1998 5.82416 23.2617 5.86354 23.3179 5.90291L24.1448 6.49354L28.5267 9.62666L29.3029 10.1835C29.376 10.2342 29.4435 10.2904 29.511 10.3467C29.6475 9.97002 29.7006 9.56824 29.6666 9.16908C29.6326 8.76991 29.5124 8.38289 29.3142 8.03476C29.836 7.15034 31.4732 5.65487 31.1423 4.27729Z" fill="#00CCB6"/>
</g>
</svg>
