<svg width="36" height="36" viewBox="0 0 36 36" fill="none" xmlns="http://www.w3.org/2000/svg">
<g id="invoice">
<path id="Vector" d="M26.7661 3.85693H7.94791C7.62582 3.86064 7.31577 3.97988 7.07421 4.19295C8.03278 4.53017 8.87615 5.13212 9.50658 5.92902C10.137 6.72592 10.5287 7.68515 10.6362 8.69554C10.6568 8.87415 10.6568 9.05454 10.6362 9.23316V32.0821C10.6356 32.3392 10.7087 32.591 10.8469 32.8078C10.9851 33.0246 11.1825 33.1972 11.4158 33.3052C11.6497 33.4129 11.9096 33.4511 12.1645 33.4153C12.4195 33.3796 12.6588 33.2714 12.8541 33.1036L16.6849 29.8241L20.5158 33.1036C20.7592 33.3118 21.0691 33.4263 21.3895 33.4263C21.7099 33.4263 22.0197 33.3118 22.2632 33.1036L26.094 29.8241L29.9249 33.1036C30.1683 33.3118 30.4782 33.4262 30.7986 33.4262C30.993 33.4248 31.1851 33.3836 31.3631 33.3052C31.5964 33.1972 31.7939 33.0246 31.9321 32.8078C32.0702 32.591 32.1433 32.3392 32.1427 32.0821V9.23316C32.1427 7.80729 31.5762 6.43983 30.5679 5.43159C29.5596 4.42336 28.1921 3.85693 26.7661 3.85693ZM25.4219 22.6737H17.357C17.0005 22.6737 16.6586 22.5321 16.4065 22.2801C16.1545 22.028 16.0128 21.6861 16.0128 21.3297C16.0128 20.9732 16.1545 20.6313 16.4065 20.3793C16.6586 20.1272 17.0005 19.9856 17.357 19.9856H25.4219C25.7784 19.9856 26.1203 20.1272 26.3724 20.3793C26.6245 20.6313 26.7661 20.9732 26.7661 21.3297C26.7661 21.6861 26.6245 22.028 26.3724 22.2801C26.1203 22.5321 25.7784 22.6737 25.4219 22.6737ZM25.4219 17.2975H17.357C17.0005 17.2975 16.6586 17.1559 16.4065 16.9038C16.1545 16.6518 16.0128 16.3099 16.0128 15.9534C16.0128 15.597 16.1545 15.2551 16.4065 15.003C16.6586 14.751 17.0005 14.6094 17.357 14.6094H25.4219C25.7784 14.6094 26.1203 14.751 26.3724 15.003C26.6245 15.2551 26.7661 15.597 26.7661 15.9534C26.7661 16.3099 26.6245 16.6518 26.3724 16.9038C26.1203 17.1559 25.7784 17.2975 25.4219 17.2975ZM25.4219 11.9213H17.357C17.0005 11.9213 16.6586 11.7797 16.4065 11.5276C16.1545 11.2755 16.0128 10.9337 16.0128 10.5772C16.0128 10.2207 16.1545 9.87888 16.4065 9.62682C16.6586 9.37476 17.0005 9.23316 17.357 9.23316H25.4219C25.7784 9.23316 26.1203 9.37476 26.3724 9.62682C26.6245 9.87888 26.7661 10.2207 26.7661 10.5772C26.7661 10.9337 26.6245 11.2755 26.3724 11.5276C26.1203 11.7797 25.7784 11.9213 25.4219 11.9213ZM7.94791 9.23316V19.9856H3.91544C3.55895 19.9856 3.21706 19.844 2.96498 19.5919C2.7129 19.3399 2.57129 18.998 2.57129 18.6416V9.23316C2.57129 9.04499 2.57129 8.87026 2.57129 8.69554C2.64259 7.9826 2.9942 7.32719 3.54877 6.87349C4.10334 6.41978 4.81545 6.20494 5.52843 6.27623C6.24142 6.34753 6.89687 6.69911 7.35062 7.25364C7.80436 7.80817 8.01921 8.52023 7.94791 9.23316Z" fill="#00CCB6"/>
</g>
</svg>
