<svg width="56" height="56" viewBox="0 0 56 56" fill="none" xmlns="http://www.w3.org/2000/svg">
<g id="food">
<path id="Vector" d="M28 1.75C13.65 1.75 1.75 13.65 1.75 28C1.75 38.85 8.05 47.95 17.5 52.15L18.2 40.6C18.2 40.25 18.2 40.25 18.55 39.9L18.9 35.35L18.55 34.3C14 32.9 12.95 30.1 12.95 28.7V17.15C12.95 16.45 13.3 15.75 14 15.75C14.7 15.75 15.05 16.45 15.05 17.15V26.25C15.05 26.6 15.4 26.95 15.75 26.95C16.1 26.95 16.45 26.6 16.45 26.25V17.15C16.45 16.45 17.15 15.75 17.5 15.75C18.2 15.75 18.55 16.45 18.55 17.15V26.25C18.55 26.6 18.9 26.95 19.25 26.95C19.6 26.95 19.95 26.6 19.95 26.25V17.15C19.95 16.45 20.3 15.75 21 15.75C21.7 15.75 22.05 16.45 22.05 17.15V26.25C22.05 26.6 22.4 26.95 22.75 26.95C24.15 26.95 24.5 26.6 24.5 26.25V17.15C24.5 16.45 24.85 15.75 25.55 15.75C26.25 15.75 26.6 16.45 26.6 17.15V28.7C26.6 30.1 25.55 32.9 21.35 34.3C21.35 34.3 21 34.3 21 34.65V39.55C21.35 39.9 21.35 39.9 21.35 40.25L22.05 53.55C23.8 53.9 25.9 54.25 28 54.25C30.1 54.25 32.55 53.9 34.65 53.55L35.35 40.25V33.95C35.35 33.6 35.35 33.6 35 33.25C32.2 32.2 30.45 28.7 30.45 24.5C30.45 19.6 33.25 14.35 36.75 14.35C40.25 14.35 43.05 19.6 43.05 24.5C43.05 28.7 41.3 31.85 38.5 32.9C38.15 32.9 38.15 33.25 38.15 33.6V39.9L38.5 51.8C47.6 47.6 53.9 38.5 53.9 28C54.25 13.65 42.35 1.75 28 1.75Z" fill="white"/>
</g>
</svg>
