<svg width="34" height="34" viewBox="0 0 34 34" fill="none" xmlns="http://www.w3.org/2000/svg">
<g id="graduation" clip-path="url(#clip0_934_22668)">
<path id="Vector" d="M33.558 10.0642L17.6445 2.90664C17.568 2.87416 17.4859 2.85742 17.4029 2.85742C17.3199 2.85742 17.2378 2.87416 17.1613 2.90664L1.2478 10.0642C1.14412 10.1117 1.05619 10.1885 0.994507 10.2852C0.932828 10.382 0.900024 10.4948 0.900024 10.61C0.900024 10.7251 0.932828 10.8379 0.994507 10.9347C1.05619 11.0314 1.14412 11.1082 1.2478 11.1557C2.1738 11.5753 6.32089 13.4341 7.13572 13.804L17.1613 18.3133C17.237 18.3486 17.3195 18.3669 17.4029 18.3669C17.4863 18.3669 17.5688 18.3486 17.6445 18.3133L23.5915 15.6411L24.7702 15.1102V16.4165C24.0639 16.7338 18.9557 19.0314 18.1219 19.4048C17.8936 19.5078 17.6463 19.5605 17.3964 19.5595C17.1464 19.5585 16.8995 19.5037 16.6721 19.3988L5.957 14.5794V23.0373C5.95617 23.1462 5.98483 23.2532 6.0399 23.3468C6.09496 23.4404 6.17431 23.5169 6.26932 23.5681C9.08264 25.0958 12.174 26.0275 15.3548 26.3064C18.5356 26.5854 21.7392 26.2057 24.7702 25.1905L24.7702 27.0574C24.2957 27.2007 23.888 27.512 23.6216 27.9344C23.3553 28.3569 23.248 28.8622 23.3196 29.3581C23.3911 29.854 23.6366 30.3072 24.0112 30.635C24.3858 30.9628 24.8644 31.1431 25.3596 31.1431C25.8548 31.1431 26.3334 30.9628 26.708 30.635C27.0826 30.3072 27.3281 29.854 27.3996 29.3581C27.4712 28.8622 27.3639 28.3569 27.0976 27.9344C26.8312 27.512 26.4235 27.2007 25.949 27.0574L25.949 14.1917C25.9616 13.8375 25.6579 13.6386 25.3655 13.5356L18.1765 10.3034C18.036 10.2374 17.9268 10.1183 17.8723 9.97154C17.8179 9.82483 17.8227 9.66235 17.8856 9.51915C17.9485 9.37596 18.0645 9.26353 18.2086 9.20614C18.3527 9.14875 18.5133 9.15098 18.6558 9.21237L26.0846 12.5574C26.3753 12.6877 26.6252 12.8961 26.807 13.1601C26.9889 13.424 27.0957 13.7334 27.116 14.0545C28.3421 13.4997 32.2796 11.7309 33.558 11.1557C33.6603 11.1069 33.7467 11.0297 33.8073 10.9331C33.8679 10.8365 33.9 10.7244 33.9 10.61C33.9 10.4955 33.8679 10.3834 33.8073 10.2868C33.7467 10.1902 33.6603 10.113 33.558 10.0642Z" fill="white"/>
<path id="Vector_2" d="M25.9119 15.5777V23.2824C26.3434 23.0089 27.3855 22.8247 27.4178 22.2201L27.4177 14.9072L25.9119 15.5777Z" fill="white"/>
</g>
<defs>
<clipPath id="clip0_934_22668">
<rect width="33" height="33" fill="white" transform="translate(0.900024 0.5)"/>
</clipPath>
</defs>
</svg>
