<svg width="29" height="29" viewBox="0 0 29 29" fill="none" xmlns="http://www.w3.org/2000/svg">
<g id="image">
<path id="Vector" fill-rule="evenodd" clip-rule="evenodd" d="M9.44383 26.1673H19.5553C23.5103 26.1673 26.1668 23.393 26.1668 19.2642V9.73715C26.1668 5.60832 23.5103 2.83398 19.5565 2.83398H9.44383C5.48883 2.83398 2.8335 5.60832 2.8335 9.73715V19.2642C2.8335 23.393 5.49 26.1673 9.44383 26.1673ZM10.4168 13.334C9.64347 13.3334 8.90196 13.0259 8.35512 12.479C7.80827 11.9322 7.50078 11.1907 7.50016 10.4173C7.50016 8.80965 8.80683 7.50065 10.4157 7.50065C11.1887 7.50189 11.9298 7.80961 12.4763 8.35636C13.0228 8.90311 13.3302 9.64426 13.3312 10.4173C13.3312 12.025 12.0233 13.334 10.4145 13.334H10.4168ZM23.6258 17.9237C24.0167 18.9258 23.8125 20.1287 23.396 21.1203C22.9002 22.301 21.9528 23.1947 20.7593 23.5843C20.2284 23.7537 19.674 23.838 19.1167 23.834H9.28516C8.30633 23.834 7.44066 23.5995 6.73016 23.162C6.28683 22.8878 6.2075 22.2543 6.53766 21.8437C7.08833 21.1577 7.63316 20.4693 8.18266 19.774C9.228 18.444 9.93266 18.059 10.7167 18.3973C11.0352 18.5373 11.3537 18.7473 11.6827 18.969C12.5577 19.564 13.7745 20.3807 15.3775 19.494C16.4742 18.8792 17.11 17.8257 17.6642 16.9087L17.6735 16.8935L17.7902 16.6998C17.9768 16.3918 18.16 16.0885 18.3677 15.8085C18.6278 15.4585 19.5927 14.3618 20.8445 15.1435C21.6402 15.6335 22.311 16.2985 23.0273 17.0102C23.3003 17.282 23.4952 17.5912 23.6258 17.9237Z" fill="#E328AF"/>
</g>
</svg>
