<svg width="19" height="19" viewBox="0 0 19 19" fill="none" xmlns="http://www.w3.org/2000/svg">
<g id="arrow" clip-path="url(#clip0_648_1845)">
<path id="Vector" d="M18.0961 9.33965C18.0961 4.49458 14.185 0.583496 9.33991 0.583496C4.49484 0.583495 0.583753 4.49458 0.583753 9.33965C0.583753 14.1847 4.49484 18.0958 9.33991 18.0958C14.185 18.0958 18.0961 14.1847 18.0961 9.33965ZM8.75617 12.9005L8.75617 7.53005L7.23843 8.87266C6.88819 9.16453 6.42119 9.10616 6.12932 8.81428C6.01257 8.63916 5.9542 8.46404 5.9542 8.28891C5.9542 8.05542 6.07095 7.82192 6.24607 7.70517L9.04804 5.25345C9.10641 5.19507 9.16479 5.19507 9.22316 5.1367C9.28154 5.1367 9.28154 5.1367 9.33991 5.07832C9.39829 5.07832 9.39829 5.07832 9.45666 5.07832L9.51503 5.07832C9.57341 5.07832 9.57341 5.07832 9.63178 5.07832L9.69016 5.07832C9.74853 5.07832 9.74853 5.07832 9.80691 5.1367C9.80691 5.1367 9.86528 5.1367 9.86528 5.19507L9.92366 5.25345C9.92366 5.25345 9.92366 5.25345 9.98203 5.31182L12.4338 7.82192C12.7256 8.11379 12.7256 8.63916 12.4338 8.93103C12.1419 9.2229 11.6165 9.2229 11.3246 8.93103L10.2155 7.76355L10.2155 12.9589C10.2155 13.3675 9.86528 13.7761 9.39829 13.7761C9.10641 13.6594 8.75617 13.3091 8.75617 12.9005Z" fill="white"/>
</g>
<defs>
<clipPath id="clip0_648_1845">
<rect width="18.6798" height="18.6798" fill="white" transform="translate(18.6798) rotate(90)"/>
</clipPath>
</defs>
</svg>
