<svg width="60" height="61" viewBox="0 0 60 61" fill="none" xmlns="http://www.w3.org/2000/svg">
<g id="Group">
<g id="Group_2">
<g id="Group_3">
<path id="Vector" d="M42.585 0.229641C40.7797 0.712763 40.5 0.94161 35.3128 6.10338L30.5579 10.8583L39.8643 20.1647L49.1707 29.4712L53.6968 24.9451C58.528 20.1139 59.1892 19.3002 59.6723 17.8254C60.0283 16.7066 60.1045 14.9521 59.8503 13.8842C59.7486 13.4265 59.4689 12.6637 59.2146 12.1805C58.8077 11.3669 58.3755 10.8837 53.6968 6.20509C49.0436 1.5773 48.5351 1.1196 47.7977 0.763618C46.1449 -0.0246328 44.3141 -0.202625 42.585 0.229641Z" fill="white"/>
<path id="Vector_2" d="M20.7427 20.6703L12.3771 29.0359L21.6835 38.3424L30.99 47.6488L39.3556 39.2832L47.7212 30.9176L38.3893 21.6111L29.0829 12.3047L20.7427 20.6703ZM30.6085 17.8479C31.5239 18.4581 31.8036 19.6786 31.1934 20.594C30.4051 21.7891 28.7523 21.7891 27.8624 20.594C27.659 20.3398 27.6081 20.0601 27.6081 19.5261C27.6081 18.7124 27.837 18.3056 28.5235 17.8479C29.1083 17.4665 30.0491 17.4665 30.6085 17.8479ZM25.4976 22.7554C26.1842 23.1113 26.6673 24.0267 26.5402 24.7641C26.2096 26.5441 24.0737 27.1035 22.9803 25.6795C21.7344 24.0267 23.6414 21.7891 25.4976 22.7554ZM36.2026 23.3656C36.584 23.6708 37.0925 24.5607 37.0925 24.993C37.0925 25.4761 36.584 26.3661 36.1263 26.6712C35.5415 27.0526 34.6007 27.0526 34.0412 26.6712C33.3547 26.2135 33.1259 25.8067 33.1259 24.993C33.1259 24.1793 33.3547 23.7725 34.0412 23.3148C34.3718 23.0605 34.5752 23.0351 35.1601 23.0605C35.6178 23.1113 35.9992 23.2385 36.2026 23.3656ZM20.1579 27.5611C20.7173 27.7137 21.4292 28.502 21.531 29.0868C21.7089 29.9768 21.2512 30.8921 20.463 31.2227C19.8019 31.5278 19.2679 31.5278 18.6577 31.2227C17.4626 30.6124 17.2337 29.0359 18.2254 28.0697C18.8102 27.5103 19.3696 27.3577 20.1579 27.5611ZM31.1171 28.324C32.0579 28.9597 32.3376 29.9005 31.8291 30.8413C31.4222 31.655 31.0154 31.8838 30.0746 31.8838C29.1592 31.8838 28.7523 31.655 28.3201 30.8413C27.837 29.9259 28.1675 28.8325 29.0829 28.2731C29.6169 27.968 30.5831 27.968 31.1171 28.324ZM41.4406 28.7308C42.5594 29.2648 42.9154 30.7904 42.1272 31.7058C41.0084 33.0535 38.847 32.4941 38.6182 30.7904C38.491 29.9005 39.0505 28.9342 39.8896 28.6037C40.271 28.502 41.0338 28.5528 41.4406 28.7308ZM25.5485 33.0789C25.9299 33.1806 26.235 33.384 26.5147 33.6892C28.0149 35.3419 26.1333 37.7321 24.1245 36.715C23.2092 36.2573 22.8532 35.1894 23.26 34.2486C23.5397 33.6129 23.8448 33.3332 24.4805 33.1043C25.0654 32.9263 24.9128 32.9263 25.5485 33.0789ZM36.6094 33.8163C37.296 34.2994 37.5248 34.7063 37.5248 35.4945C37.5248 36.2828 37.296 36.715 36.6094 37.1727C36.05 37.5541 35.0838 37.5541 34.5244 37.1727C33.9395 36.7913 33.5073 35.9013 33.609 35.2657C33.8378 33.8417 35.4652 33.0535 36.6094 33.8163ZM31.6002 38.8255C32.3122 39.3086 32.5919 39.8426 32.541 40.6054C32.3885 42.5125 29.9729 43.1736 28.9303 41.5717C28.5489 40.9868 28.4981 40.1477 28.8286 39.5629C29.3372 38.5967 30.7357 38.2407 31.6002 38.8255Z" fill="white"/>
<path id="Vector_3" d="M6.14752 35.2921C0.909467 40.5556 0.706048 40.7844 0.248354 42.6406C-0.20934 44.3951 -0.0313477 46.1496 0.756903 47.8024C1.11289 48.5652 1.59601 49.0737 6.19837 53.727C10.877 58.4056 11.3601 58.8379 12.1738 59.2447C12.6569 59.499 13.4198 59.7787 13.8775 59.8804C14.9454 60.1347 16.6999 60.0584 17.8187 59.7024C19.2935 59.2193 20.1072 58.5328 24.9638 53.6761L29.5153 49.1246L20.2089 39.8182L10.9024 30.5117L6.14752 35.2921Z" fill="white"/>
</g>
</g>
</g>
</svg>
