<svg width="33" height="33" viewBox="0 0 33 33" fill="none" xmlns="http://www.w3.org/2000/svg">
<g id="mastercard" clip-path="url(#clip0_920_21555)">
<path id="Vector" d="M20.8267 24.2743H12.1733V8.72363H20.8267V24.2743Z" fill="#FF5F00"/>
<path id="Vector_2" d="M12.7227 16.4998C12.7214 15.0023 13.0608 13.5241 13.7152 12.1771C14.3696 10.8301 15.3219 9.64968 16.5 8.72515C15.0411 7.57865 13.2892 6.8657 11.4443 6.66776C9.59941 6.46983 7.73606 6.79491 6.06719 7.60584C4.39832 8.41677 2.99125 9.68085 2.00678 11.2536C1.02231 12.8264 0.50016 14.6444 0.5 16.4998C0.500356 18.355 1.02257 20.1728 2.00697 21.7453C2.99137 23.3178 4.39826 24.5817 6.0669 25.3926C7.73553 26.2035 9.59861 26.5287 11.4433 26.3309C13.2879 26.1332 15.0398 25.4206 16.4987 24.2745C15.321 23.3497 14.369 22.1692 13.7149 20.8222C13.0607 19.4753 12.7214 17.9972 12.7227 16.4998Z" fill="#EB001B"/>
<path id="Vector_3" d="M32.5 16.4998C32.4998 18.3553 31.9777 20.1733 30.9932 21.746C30.0088 23.3188 28.6017 24.5829 26.9328 25.3938C25.2639 26.2047 23.4006 26.5298 21.5557 26.3319C19.7108 26.1339 17.9589 25.421 16.5 24.2745C18.8 22.4638 20.2773 19.6545 20.2773 16.4998C20.2773 13.3451 18.8 10.5358 16.5 8.72515C17.9589 7.57865 19.7108 6.8657 21.5557 6.66776C23.4006 6.46983 25.2639 6.79491 26.9328 7.60584C28.6017 8.41677 30.0088 9.68085 30.9932 11.2536C31.9777 12.8264 32.4998 14.6444 32.5 16.4998Z" fill="#F79E1B"/>
</g>
<defs>
<clipPath id="clip0_920_21555">
<rect width="32" height="32" fill="white" transform="translate(0.5 0.5)"/>
</clipPath>
</defs>
</svg>
