<svg width="34" height="48" viewBox="0 0 34 48" fill="none" xmlns="http://www.w3.org/2000/svg">
<g id="Group">
<path id="Vector" d="M8.86624 11.6178H24.7643C25.8854 11.6178 26.8026 10.7006 26.8026 9.57962V2.03822C26.8026 0.917197 25.8854 0 24.7643 0H8.86624C7.74522 0 6.82803 0.917197 6.82803 2.03822V9.68153C6.92994 10.8025 7.74522 11.6178 8.86624 11.6178ZM31.5924 14.879H2.03822C0.917198 14.879 0 15.7962 0 16.9172V45.9618C0 47.0828 0.917198 48 2.03822 48H31.5924C32.7134 48 33.6306 47.0828 33.6306 45.9618V16.8153C33.5287 15.6943 32.7134 14.879 31.5924 14.879ZM22.2166 33.3248H18.8535V36.7898C18.8535 37.9108 17.9363 38.828 16.8153 38.828C15.6943 38.828 14.7771 37.9108 14.7771 36.7898V33.3248H11.3121C10.1911 33.3248 9.27389 32.4076 9.27389 31.2866C9.27389 30.1656 10.1911 29.2484 11.3121 29.2484H14.7771V25.9873C14.7771 24.8662 15.6943 23.949 16.8153 23.949C17.9363 23.949 18.8535 24.8662 18.8535 25.9873V29.4522H22.3185C23.4395 29.4522 24.3567 30.3694 24.3567 31.4904C24.3567 32.6115 23.3376 33.3248 22.2166 33.3248Z" fill="white"/>
</g>
</svg>
