<svg width="28" height="28" viewBox="0 0 28 28" fill="none" xmlns="http://www.w3.org/2000/svg">
<g id="chat">
<path id="Vector" d="M19.6 11.6767C19.6001 10.805 19.472 9.93799 19.2199 9.10345C18.862 7.91634 18.2587 6.81753 17.4489 5.8781C16.6392 4.93867 15.6411 4.17955 14.5191 3.64986C13.3972 3.12017 12.1765 2.83171 10.936 2.80313C9.69545 2.77456 8.46273 3.00651 7.31758 3.48398C6.17243 3.96144 5.14035 4.6738 4.28813 5.57494C3.43591 6.47608 2.78252 7.54595 2.37025 8.71531C1.95797 9.88468 1.79599 11.1275 1.89478 12.3634C1.99357 13.5992 2.35093 14.8006 2.94375 15.8898L1.89922 19.5529C1.86653 19.6675 1.86092 19.7881 1.88281 19.9053C1.90471 20.0224 1.95352 20.1329 2.0254 20.228C2.09728 20.3231 2.19028 20.4003 2.29706 20.4534C2.40385 20.5065 2.52151 20.5341 2.6408 20.5341C2.7122 20.534 2.78326 20.5241 2.85202 20.5048L6.51905 19.4604C7.03934 19.7453 7.58812 19.9748 8.15638 20.1452C8.9915 20.4034 9.86076 20.5345 10.7349 20.5341C13.0853 20.5315 15.3386 19.5974 17.0005 17.9369C18.6625 16.2764 19.5973 14.025 19.6 11.6767Z" fill="#00CCB6"/>
<path id="Vector_2" d="M25.1696 25.1229L24.0935 21.3485C25.1926 19.3271 25.4858 16.965 24.9143 14.7365C24.3427 12.5079 22.9486 10.578 21.012 9.33398C21.3302 10.8893 21.2977 12.4959 20.917 14.0372C20.5363 15.5784 19.8168 17.0156 18.8109 18.2443C17.805 19.473 16.5379 20.4625 15.1016 21.1408C13.6652 21.8192 12.0957 22.1693 10.507 22.1659C9.79917 22.1637 9.0933 22.0906 8.40002 21.9477C9.23041 23.2259 10.3658 24.2777 11.7041 25.0084C13.0423 25.7392 14.5414 26.126 16.0665 26.134C17.5843 26.1342 19.0779 25.7541 20.4108 25.0285L24.188 26.1038C24.2588 26.1237 24.332 26.1338 24.4056 26.134C24.5285 26.134 24.6497 26.1055 24.7597 26.0508C24.8698 25.9961 24.9656 25.9166 25.0396 25.8186C25.1137 25.7206 25.164 25.6068 25.1865 25.486C25.2091 25.3653 25.2033 25.241 25.1696 25.1229Z" fill="#00CCB6"/>
</g>
</svg>
