<svg width="28" height="28" viewBox="0 0 28 28" fill="none" xmlns="http://www.w3.org/2000/svg">
<g id="chat">
<path id="Vector" d="M19.6 11.6757C19.6001 10.804 19.472 9.93701 19.2199 9.10247C18.862 7.91536 18.2587 6.81655 17.4489 5.87712C16.6392 4.93769 15.6411 4.17858 14.5191 3.64889C13.3972 3.1192 12.1765 2.83073 10.936 2.80216C9.69545 2.77358 8.46273 3.00553 7.31758 3.483C6.17243 3.96047 5.14035 4.67282 4.28813 5.57396C3.43591 6.47511 2.78252 7.54497 2.37025 8.71434C1.95797 9.8837 1.79599 11.1265 1.89478 12.3624C1.99357 13.5982 2.35093 14.7996 2.94375 15.8888L1.89922 19.5519C1.86653 19.6665 1.86092 19.7871 1.88281 19.9043C1.90471 20.0215 1.95352 20.1319 2.0254 20.2271C2.09728 20.3222 2.19028 20.3993 2.29706 20.4524C2.40385 20.5055 2.52151 20.5332 2.6408 20.5331C2.7122 20.533 2.78326 20.5231 2.85202 20.5039L6.51905 19.4595C7.03934 19.7443 7.58812 19.9738 8.15638 20.1442C8.9915 20.4024 9.86076 20.5335 10.7349 20.5331C13.0853 20.5305 15.3386 19.5964 17.0005 17.9359C18.6625 16.2754 19.5973 14.0241 19.6 11.6757Z" fill="#A4A4A4"/>
<path id="Vector_2" d="M25.1696 25.1224L24.0935 21.348C25.1926 19.3266 25.4858 16.9645 24.9143 14.736C24.3427 12.5074 22.9486 10.5775 21.012 9.3335C21.3302 10.8888 21.2977 12.4954 20.917 14.0367C20.5363 15.5779 19.8168 17.0151 18.8109 18.2438C17.805 19.4726 16.5379 20.462 15.1016 21.1403C13.6652 21.8187 12.0957 22.1688 10.507 22.1654C9.79917 22.1632 9.0933 22.0901 8.40002 21.9472C9.23041 23.2254 10.3658 24.2772 11.7041 25.008C13.0423 25.7387 14.5414 26.1255 16.0665 26.1335C17.5843 26.1337 19.0779 25.7536 20.4108 25.028L24.188 26.1033C24.2588 26.1232 24.332 26.1333 24.4056 26.1335C24.5285 26.1335 24.6497 26.1051 24.7597 26.0503C24.8698 25.9956 24.9656 25.9161 25.0396 25.8181C25.1137 25.7201 25.164 25.6063 25.1865 25.4856C25.2091 25.3648 25.2033 25.2405 25.1696 25.1224Z" fill="#A4A4A4"/>
</g>
</svg>
