<svg width="56" height="56" viewBox="0 0 56 56" fill="none" xmlns="http://www.w3.org/2000/svg">
<g id="moody">
<path id="Vector" d="M28 3.5C23.1544 3.5 18.4175 4.9369 14.3885 7.62899C10.3595 10.3211 7.21931 14.1475 5.36496 18.6243C3.51062 23.101 3.02543 28.0272 3.97077 32.7797C4.91611 37.5322 7.24951 41.8977 10.6759 45.3241C14.1023 48.7505 18.4678 51.0839 23.2203 52.0292C27.9728 52.9746 32.899 52.4894 37.3758 50.635C41.8525 48.7807 45.6789 45.6405 48.371 41.6115C51.0631 37.5825 52.5 32.8456 52.5 28C52.5 21.5022 49.9188 15.2705 45.3241 10.6759C40.7295 6.08124 34.4978 3.5 28 3.5ZM12.6 17.5C12.6 17.0359 12.7844 16.5908 13.1126 16.2626C13.4408 15.9344 13.8859 15.75 14.35 15.75H20.65C21.1141 15.75 21.5593 15.9344 21.8874 16.2626C22.2156 16.5908 22.4 17.0359 22.4 17.5C22.4 17.9641 22.2156 18.4092 21.8874 18.7374C21.5593 19.0656 21.1141 19.25 20.65 19.25H14.35C13.8859 19.25 13.4408 19.0656 13.1126 18.7374C12.7844 18.4092 12.6 17.9641 12.6 17.5ZM28 40.25C24.7511 40.25 21.6353 38.9594 19.338 36.6621C17.0406 34.3647 15.75 31.2489 15.75 28C15.75 27.5359 15.9344 27.0908 16.2626 26.7626C16.5908 26.4344 17.0359 26.25 17.5 26.25C17.9641 26.25 18.4093 26.4344 18.7374 26.7626C19.0656 27.0908 19.25 27.5359 19.25 28C19.25 30.3206 20.1719 32.5462 21.8128 34.1872C23.4538 35.8281 25.6794 36.75 28 36.75C30.3207 36.75 32.5463 35.8281 34.1872 34.1872C35.8281 32.5462 36.75 30.3206 36.75 28C36.75 27.5359 36.9344 27.0908 37.2626 26.7626C37.5908 26.4344 38.0359 26.25 38.5 26.25C38.9641 26.25 39.4093 26.4344 39.7374 26.7626C40.0656 27.0908 40.25 27.5359 40.25 28C40.25 31.2489 38.9594 34.3647 36.6621 36.6621C34.3647 38.9594 31.2489 40.25 28 40.25ZM41.65 19.25H35.35C34.8859 19.25 34.4408 19.0656 34.1126 18.7374C33.7844 18.4092 33.6 17.9641 33.6 17.5C33.6 17.0359 33.7844 16.5908 34.1126 16.2626C34.4408 15.9344 34.8859 15.75 35.35 15.75H41.65C42.1141 15.75 42.5593 15.9344 42.8874 16.2626C43.2156 16.5908 43.4 17.0359 43.4 17.5C43.4 17.9641 43.2156 18.4092 42.8874 18.7374C42.5593 19.0656 42.1141 19.25 41.65 19.25Z" fill="white"/>
</g>
</svg>
