<svg width="28" height="29" viewBox="0 0 28 29" fill="none" xmlns="http://www.w3.org/2000/svg">
<g id="email 1">
<path id="Vector" d="M13.9999 14.0563L25.3829 7.84747C25.0209 6.65635 24.2865 5.61264 23.2877 4.86956C22.2889 4.12647 21.0782 3.72313 19.8333 3.71875H8.1666C6.92169 3.72313 5.71097 4.12647 4.71215 4.86956C3.71333 5.61264 2.97902 6.65635 2.617 7.84747L13.9999 14.0563Z" fill="#A5A5A5"/>
<path id="Vector_2" d="M14.5589 16.4094C14.3874 16.5029 14.1953 16.5519 14 16.5519C13.8048 16.5519 13.6126 16.5029 13.4412 16.4094L2.33337 10.3506V18.8852C2.3352 20.4318 2.95036 21.9144 4.04393 23.008C5.1375 24.1016 6.62017 24.7167 8.16671 24.7186H19.8334C21.3799 24.7167 22.8626 24.1016 23.9562 23.008C25.0497 21.9144 25.6649 20.4318 25.6667 18.8852V10.3506L14.5589 16.4094Z" fill="#A5A5A5"/>
</g>
</svg>
