<svg width="28" height="29" viewBox="0 0 28 29" fill="none" xmlns="http://www.w3.org/2000/svg">
<g id="next-arrow">
<path id="Vector" d="M26.4915 15.5749C26.7102 15.3561 26.8331 15.0594 26.8331 14.7501C26.8331 14.4407 26.7102 14.144 26.4915 13.9252L20.6582 8.0919C20.4381 7.87938 20.1434 7.76179 19.8375 7.76445C19.5316 7.76711 19.239 7.8898 19.0227 8.10611C18.8064 8.32242 18.6837 8.61504 18.681 8.92093C18.6784 9.22683 18.796 9.52153 19.0085 9.74157L22.8503 13.5834H2.33332C2.0239 13.5834 1.72716 13.7063 1.50837 13.9251C1.28957 14.1439 1.16666 14.4406 1.16666 14.7501C1.16666 15.0595 1.28957 15.3562 1.50837 15.575C1.72716 15.7938 2.0239 15.9167 2.33332 15.9167H22.8503L19.0085 19.7586C18.796 19.9786 18.6784 20.2733 18.681 20.5792C18.6837 20.8851 18.8064 21.1777 19.0227 21.394C19.239 21.6103 19.5316 21.733 19.8375 21.7357C20.1434 21.7383 20.4381 21.6208 20.6582 21.4082L26.4915 15.5749Z" fill="white"/>
</g>
</svg>
