<svg width="56" height="56" viewBox="0 0 56 56" fill="none" xmlns="http://www.w3.org/2000/svg">
<g id="report">
<path id="Vector" d="M43.973 44.8117V14.0607C43.973 14.0066 43.973 13.9575 43.9681 13.9083C43.8939 12.7575 43.2213 11.6559 42.1432 11.174C41.5597 10.9084 40.9712 10.8494 40.3481 10.8494H36.3918C36.3918 10.3576 36.3918 9.80192 36.382 9.28063V9.19703C36.3671 8.86262 36.2484 8.5528 36.0111 8.31182C35.8479 8.14954 35.6698 8.05118 35.477 8.002C35.4473 7.99217 35.4176 7.98725 35.388 7.98233C35.3286 7.9725 35.2643 7.95283 35.205 7.95283C35.2 7.95283 35.1951 7.95283 35.1951 7.94791C35.1951 7.94299 35.1901 7.93807 35.1901 7.93315C35.1704 7.91348 35.1456 7.95283 35.1258 7.90365H30.9471C30.9372 7.65776 30.9124 7.35285 30.858 7.06762C30.6256 5.90702 29.7701 4.85461 28.692 4.36775C27.5496 3.8563 26.2787 3.87597 25.1611 4.44152C24.2165 4.91854 23.4945 5.80867 23.2027 6.8119C23.0989 7.1709 23.0593 7.5594 23.0494 7.90365H20.4037C19.9042 7.90365 19.3948 7.90857 18.8954 7.92332C18.1634 7.94791 17.6145 8.4987 17.5947 9.22162C17.5898 9.3839 17.5799 9.56095 17.5799 9.72815V10.8642C16.1458 10.8642 14.7017 10.8592 13.2577 10.8642C11.4675 10.874 10.0284 12.2903 10.0037 14.0755C9.99875 14.3115 10.0136 14.5427 10.0136 14.7787V45.1117C10.0136 46.1838 9.885 47.369 10.4191 48.3427C11.0175 49.4295 12.1747 50 13.3863 50H39.6459C39.997 50 40.353 49.9852 40.7042 49.9852C42.2273 49.9803 43.6614 48.9279 43.9285 47.3936C44.0571 46.5575 43.973 45.6527 43.973 44.8117ZM25.5864 7.79546C25.5864 7.77087 25.5913 7.7512 25.5913 7.72661C25.5962 7.68235 25.6012 7.63809 25.6111 7.59383L25.6259 7.53481C25.6259 7.52989 25.6309 7.52498 25.6309 7.52006C25.6358 7.51022 25.6259 7.50039 25.6259 7.48563C25.6309 7.47088 25.6259 7.45613 25.6259 7.44137H25.6407C25.6407 7.43646 25.6506 7.43154 25.6506 7.42662C25.6506 7.4217 25.6556 7.4217 25.6556 7.41679C25.6605 7.40695 25.6605 7.39711 25.6655 7.3922C25.6704 7.37744 25.6754 7.36761 25.6803 7.35285C25.6803 7.34794 25.6803 7.34794 25.6853 7.34794C25.6853 7.34302 25.6754 7.34302 25.6754 7.3381C25.6803 7.32827 25.6704 7.32335 25.6704 7.31843C25.6704 7.31351 25.6853 7.31351 25.6853 7.31351C25.6902 7.30859 25.6951 7.30368 25.7001 7.29384C25.7001 7.28892 25.705 7.28892 25.71 7.28401C25.71 7.28401 25.71 7.27909 25.7149 7.27909C25.7149 7.27417 25.7199 7.27417 25.7199 7.27417C25.7248 7.26925 25.7248 7.25942 25.7298 7.2545C25.7298 7.2545 25.7298 7.24958 25.7347 7.24958C25.7397 7.24466 25.7397 7.23483 25.7446 7.22991C25.7495 7.22499 25.7495 7.22007 25.7545 7.21516C25.7594 7.20532 25.7693 7.19057 25.7743 7.18073L25.7891 7.15122L25.8188 7.10696C25.8287 7.08729 25.8435 7.06762 25.8583 7.05287C25.8732 7.03812 25.8831 7.01844 25.8979 7.00369L25.9029 6.99877C25.9177 6.98402 25.9276 6.96435 25.9424 6.94959C25.9573 6.92992 25.977 6.91517 25.9919 6.8955C26.1501 6.73813 26.3331 6.63486 26.5359 6.56601C26.5457 6.56109 26.5507 6.56109 26.5606 6.55617C26.5705 6.55617 26.5754 6.55125 26.5853 6.55125H26.5903C26.6249 6.54142 26.6644 6.5365 26.699 6.52666C26.7089 6.52666 26.7139 6.5365 26.7238 6.53158C26.8029 6.51191 26.887 6.52175 26.971 6.52175C27.0452 6.52175 27.1194 6.51683 27.1837 6.53158C27.2035 6.5365 27.2232 6.52175 27.2381 6.52175C27.243 6.52175 27.2529 6.53158 27.2579 6.5365C27.2678 6.54142 27.2776 6.52175 27.2875 6.57092C27.3766 6.57092 27.4606 6.60535 27.5447 6.63977C27.5546 6.64469 27.5645 6.64469 27.5744 6.64469C27.7178 6.70862 27.8513 6.79223 27.9601 6.90533L27.9947 6.93976C28.0145 6.95943 28.0293 6.9791 28.0491 6.99877C28.1876 7.16598 28.2766 7.35777 28.326 7.56924C28.3359 7.59874 28.3458 7.62825 28.3508 7.66268C28.3557 7.68726 28.3607 7.71185 28.3656 7.74136C28.3656 7.74628 28.3805 7.7512 28.3805 7.75611C28.3805 7.76595 28.3953 7.77087 28.3953 7.7807V7.87414C28.3953 7.88889 28.3854 7.90365 28.3854 7.9184C28.3854 7.93315 28.3805 7.94299 28.3805 7.95774C28.3805 7.9725 28.3755 7.98233 28.3755 7.99709C28.3755 8.002 28.3706 8.00692 28.3706 8.00692V8.01676C28.3706 8.02659 28.3656 8.03643 28.3656 8.04626C28.3607 8.07085 28.3557 8.09052 28.3508 8.11511C28.3458 8.12495 28.3458 8.13478 28.3409 8.14462C28.3359 8.16921 28.3261 8.18888 28.3211 8.20855C28.3162 8.22822 28.3112 8.24298 28.3063 8.26265C28.3013 8.27248 28.3013 8.28724 28.2964 8.29707C28.2964 8.30199 28.2964 8.30691 28.2914 8.31182C28.2914 8.31674 28.2964 8.32166 28.2914 8.32658V8.34625C28.2914 8.361 28.2717 8.37576 28.2667 8.38559C28.2667 8.39051 28.2618 8.39543 28.2568 8.39543L28.242 8.42493C28.2321 8.44461 28.2222 8.46919 28.2123 8.48887C28.2024 8.50854 28.1925 8.52821 28.1777 8.54788C28.1727 8.55771 28.1678 8.56263 28.1629 8.57247C28.148 8.60197 28.1282 8.62656 28.1085 8.65607C28.1035 8.66591 28.0936 8.67574 28.0837 8.68558C28.059 8.72 28.0244 8.74951 27.9947 8.77902C27.9749 8.8036 27.9749 8.82819 27.9255 8.85278H27.9354C27.9354 8.87245 27.9008 8.88721 27.881 8.90688C27.8612 8.92163 27.8464 8.93638 27.8266 8.95114L27.8216 8.95606C27.8018 8.97081 27.7821 8.98556 27.7573 9.00032C27.7524 9.00523 27.7425 9.01015 27.7376 9.01507C27.7277 9.02491 27.7128 9.02982 27.7029 9.03966C27.6634 9.06425 27.6189 9.08884 27.5744 9.10851C27.5645 9.11343 27.5546 9.11834 27.5397 9.12326C27.5299 9.12818 27.52 9.1331 27.5051 9.13801H27.4952C27.4903 9.13801 27.4853 9.14293 27.4804 9.14293C27.4755 9.14293 27.4705 9.14785 27.4656 9.14785C27.4557 9.15277 27.4408 9.15769 27.431 9.1626C27.4211 9.16752 27.4062 9.17244 27.3914 9.17736C27.3815 9.18228 27.3716 9.18228 27.3617 9.18719C27.2331 9.23145 27.0897 9.25112 26.9463 9.24621H26.8622C26.8524 9.24621 26.8425 9.24621 26.8326 9.24129H26.8128C26.8078 9.24129 26.798 9.24129 26.793 9.23637C26.7831 9.23637 26.7782 9.23637 26.7683 9.23145C26.7534 9.23145 26.7436 9.22654 26.7287 9.22654C26.7188 9.22654 26.7089 9.22162 26.704 9.22162C26.6545 9.21178 26.6051 9.20195 26.5606 9.18719C26.5457 9.18228 26.5359 9.16752 26.521 9.1626C26.5012 9.15769 26.4864 9.1331 26.4666 9.1331L26.4617 9.14293C26.4567 9.14293 26.4518 9.14785 26.4468 9.14785V9.15277H26.4419C26.4369 9.14785 26.432 9.14785 26.4221 9.14785C26.4172 9.14785 26.4172 9.14293 26.4122 9.14293C26.4073 9.14293 26.4073 9.13801 26.4023 9.13801C26.3974 9.13801 26.3924 9.1331 26.3875 9.1331C26.3776 9.12818 26.3727 9.12818 26.3628 9.12326C26.3529 9.11834 26.343 9.11343 26.338 9.10851C26.3331 9.10359 26.3281 9.10359 26.3183 9.09867C26.3133 9.09375 26.3084 9.09375 26.2985 9.08884C26.2886 9.08392 26.2836 9.079 26.2738 9.07408C26.2688 9.06917 26.2639 9.06917 26.2589 9.06425C26.249 9.05933 26.2391 9.05441 26.2342 9.04949C26.2292 9.04458 26.2243 9.04458 26.2194 9.03966C26.2144 9.03966 26.2095 9.03474 26.2095 9.03474C26.2045 9.03474 26.2045 9.02982 26.1996 9.02982L26.1946 9.02491C26.1946 9.02491 26.1897 9.02491 26.1897 9.01999C26.1798 9.01507 26.1748 9.01015 26.165 9.00523C26.16 9.00032 26.1551 9.00032 26.1501 8.9954C26.1204 8.97573 26.0858 8.95114 26.0562 8.92655C26.0364 8.9118 26.0215 8.89704 26.0067 8.88229L25.9869 8.86262C25.982 8.8577 25.9721 8.85278 25.9671 8.84295L25.9573 8.83311L25.9474 8.82328L25.9226 8.79869L25.9177 8.79377L25.9127 8.78885L25.9078 8.78393L25.9029 8.77902L25.888 8.76426C25.8831 8.75443 25.8732 8.74951 25.8682 8.73967C25.8534 8.72492 25.8386 8.70525 25.8287 8.68558C25.8188 8.67082 25.8039 8.65607 25.7941 8.64132C25.7644 8.60197 25.7397 8.56263 25.7199 8.51837C25.71 8.50362 25.7001 8.48395 25.6951 8.46919C25.6902 8.46428 25.6853 8.45444 25.6853 8.44461C25.6803 8.42985 25.6704 8.42002 25.6655 8.40526C25.6556 8.38559 25.6506 8.36592 25.6407 8.34625C25.6358 8.34133 25.6358 8.3315 25.6309 8.32658C25.6259 8.30691 25.616 8.29215 25.6111 8.27248C25.6061 8.26265 25.6012 8.24789 25.6012 8.23806C25.6012 8.23314 25.5962 8.22822 25.5962 8.21839C25.5913 8.20855 25.5913 8.19872 25.5913 8.18888C25.5864 8.17904 25.5864 8.16921 25.5864 8.15937C25.5814 8.14954 25.5814 8.13478 25.5765 8.12495C25.5715 8.1102 25.5715 8.09544 25.5666 8.08069C25.5616 8.0561 25.5616 8.03643 25.5567 8.01184V8.002C25.5567 7.99709 25.5517 7.99217 25.5517 7.98725C25.5517 7.96758 25.5418 7.95283 25.5418 7.93315C25.5418 7.90857 25.5468 7.88889 25.5468 7.86431C25.5814 7.83972 25.5864 7.81513 25.5864 7.79546ZM20.9823 40.7496H16.487C15.6315 40.7496 14.9935 40.071 14.9589 39.2497C14.9193 38.4284 15.6908 37.7498 16.487 37.7498H20.9823C21.8378 37.7498 22.4758 38.4284 22.5104 39.2497C22.5499 40.071 21.7834 40.7496 20.9823 40.7496ZM38.0634 37.8629L37.282 38.6399C36.1693 39.7513 35.0517 40.8578 33.939 41.9692L31.8323 44.0642C31.2487 44.6445 30.2547 44.6445 29.6712 44.0642C28.7167 43.1151 27.7623 42.166 26.8029 41.2168C26.1996 40.6168 26.2441 39.6775 26.8029 39.0677C27.3617 38.4628 28.4002 38.512 28.964 39.0727L30.7493 40.848C31.763 39.8349 32.7818 38.8169 33.7956 37.8088L35.9023 35.7138C36.5056 35.1138 37.4551 35.1581 38.0634 35.7138C38.6716 36.2646 38.6321 37.2973 38.0634 37.8629ZM37.4848 31.5337C37.4749 31.5337 37.46 31.5435 37.4501 31.5435C36.5995 31.5632 35.744 31.5583 34.8885 31.5583H16.487C15.6315 31.5583 14.9935 30.8501 14.9589 30.0288C14.9193 29.2076 15.6908 28.4994 16.487 28.4994C16.4969 28.4994 16.5117 28.5043 16.5216 28.5043C17.3722 28.4846 18.2277 28.5092 19.0833 28.5092H37.4897C38.3452 28.5092 38.9832 29.1977 39.0178 30.0239C39.0524 30.8403 38.2859 31.5337 37.4848 31.5337ZM37.4848 22.2685C37.4749 22.2685 37.46 22.2636 37.4501 22.2636C36.5995 22.2784 35.744 22.2587 34.8885 22.2587H16.487C15.6315 22.2587 14.9935 21.5653 14.9589 20.744C14.9193 19.9227 15.6908 19.2244 16.487 19.2244C16.4969 19.2244 16.5117 19.2195 16.5216 19.2195C17.3722 19.1998 18.2277 19.2097 19.0833 19.2097H37.4897C38.3452 19.2097 38.9832 19.9129 39.0178 20.7391C39.0524 21.5604 38.2859 22.2685 37.4848 22.2685Z" fill="white"/>
</g>
</svg>
