<svg width="22" height="22" viewBox="0 0 22 22" fill="none" xmlns="http://www.w3.org/2000/svg">
<g id="out">
<path id="Vector" d="M4.25175 20.0003H11.7511C12.3477 20.0003 12.92 19.7633 13.3419 19.3414C13.7638 18.9194 14.0009 18.3472 14.0009 17.7505V17.0006C14.0009 16.8017 13.9218 16.6109 13.7812 16.4703C13.6406 16.3297 13.4498 16.2506 13.2509 16.2506C13.052 16.2506 12.8613 16.3297 12.7206 16.4703C12.58 16.6109 12.501 16.8017 12.501 17.0006V17.7505C12.501 17.9494 12.422 18.1402 12.2813 18.2808C12.1407 18.4214 11.95 18.5004 11.7511 18.5004H4.25175C4.05285 18.5004 3.86211 18.4214 3.72147 18.2808C3.58083 18.1402 3.50182 17.9494 3.50182 17.7505V4.25175C3.50182 4.05285 3.58083 3.86211 3.72147 3.72147C3.86211 3.58083 4.05285 3.50182 4.25175 3.50182H11.7511C11.95 3.50182 12.1407 3.58083 12.2813 3.72147C12.422 3.86211 12.501 4.05285 12.501 4.25175V5.00168C12.501 5.20057 12.58 5.39132 12.7206 5.53196C12.8613 5.6726 13.052 5.75161 13.2509 5.75161C13.4498 5.75161 13.6406 5.6726 13.7812 5.53196C13.9218 5.39132 14.0009 5.20057 14.0009 5.00168V4.25175C14.0009 3.65506 13.7638 3.08282 13.3419 2.6609C12.92 2.23898 12.3477 2.00195 11.7511 2.00195H4.25175C3.65506 2.00195 3.08282 2.23898 2.6609 2.6609C2.23898 3.08282 2.00195 3.65506 2.00195 4.25175V17.7505C2.00195 18.3472 2.23898 18.9194 2.6609 19.3414C3.08282 19.7633 3.65506 20.0003 4.25175 20.0003Z" fill="white"/>
<path id="Vector_2" d="M17.218 7.28873C17.0745 7.16587 16.89 7.10167 16.7012 7.10896C16.5125 7.11625 16.3335 7.19449 16.1999 7.32805C16.0663 7.46161 15.9881 7.64065 15.9808 7.82939C15.9735 8.01813 16.0377 8.20267 16.1606 8.34613L18.0579 10.251H7.2514C7.0525 10.251 6.86175 10.33 6.72111 10.4706C6.58048 10.6112 6.50146 10.802 6.50146 11.0009C6.50146 11.1998 6.58048 11.3905 6.72111 11.5312C6.86175 11.6718 7.0525 11.7508 7.2514 11.7508H18.0579L16.1606 13.6556C16.0209 13.7962 15.9425 13.9862 15.9425 14.1843C15.9425 14.3825 16.0209 14.5725 16.1606 14.713C16.3011 14.8527 16.4912 14.9311 16.6893 14.9311C16.8874 14.9311 17.0775 14.8527 17.218 14.713L19.3403 12.5907C19.7616 12.1689 19.9982 11.5971 19.9982 11.0009C19.9982 10.4047 19.7616 9.83287 19.3403 9.41103L17.218 7.28873Z" fill="white"/>
</g>
</svg>
