<svg width="64" height="64" viewBox="0 0 64 64" fill="none" xmlns="http://www.w3.org/2000/svg">
<g id="pdf">
<path id="Vector" d="M55 18H42V5C42 4.73478 41.8946 4.48043 41.7071 4.29289C41.5196 4.10536 41.2652 4 41 4H13C12.7348 4 12.4804 4.10536 12.2929 4.29289C12.1054 4.48043 12 4.73478 12 5V33C12 33.2652 12.1054 33.5196 12.2929 33.7071C12.4804 33.8946 12.7348 34 13 34H40V50H13C12.7348 50 12.4804 50.1054 12.2929 50.2929C12.1054 50.4804 12 50.7348 12 51V59C12 59.2652 12.1054 59.5196 12.2929 59.7071C12.4804 59.8946 12.7348 60 13 60H55C55.2652 60 55.5196 59.8946 55.7071 59.7071C55.8946 59.5196 56 59.2652 56 59V19C56 18.7348 55.8946 18.4804 55.7071 18.2929C55.5196 18.1054 55.2652 18 55 18Z" fill="#EEEEEE"/>
<path id="Vector_2" d="M41 32H9C8.44772 32 8 32.4477 8 33V51C8 51.5523 8.44772 52 9 52H41C41.5523 52 42 51.5523 42 51V33C42 32.4477 41.5523 32 41 32Z" fill="#EF5350"/>
<path id="Vector_3" d="M55.71 18.29L41.71 4.28996C41.5701 4.14893 41.3914 4.05275 41.1967 4.01368C41.002 3.97461 40.8 3.99442 40.6165 4.07059C40.4331 4.14675 40.2765 4.27582 40.1667 4.44134C40.0569 4.60686 39.9989 4.80133 40 4.99996V19C40 19.2652 40.1054 19.5195 40.2929 19.7071C40.4804 19.8946 40.7348 20 41 20H55C55.1986 20.0011 55.3931 19.9431 55.5586 19.8333C55.7241 19.7235 55.8532 19.5669 55.9294 19.3834C56.0056 19.2 56.0254 18.998 55.9863 18.8033C55.9472 18.6085 55.851 18.4298 55.71 18.29Z" fill="#E0E0E0"/>
<path id="Vector_4" d="M15 45.9998V37.9998H17.66C18.3429 37.9544 19.0188 38.1608 19.56 38.5798C19.8331 38.8174 20.0495 39.1132 20.1932 39.4455C20.3368 39.7778 20.4041 40.1381 20.39 40.4998C20.384 40.9673 20.249 41.4241 20 41.8198C19.7661 42.2099 19.4166 42.5174 19 42.6998C18.6384 42.8608 18.2456 42.9393 17.85 42.9298H16.65V45.9998H15ZM16.69 41.4798H17.63C17.9261 41.4954 18.2167 41.395 18.44 41.1998C18.5389 41.1005 18.6158 40.9816 18.6658 40.8506C18.7157 40.7197 18.7376 40.5797 18.73 40.4398C18.73 39.8265 18.3633 39.5198 17.63 39.5198H16.69V41.4798ZM21.95 45.9998V37.9998H24.95C25.7019 37.9733 26.4389 38.2142 27.03 38.6798C27.5195 39.078 27.9079 39.5864 28.1634 40.1634C28.4189 40.7404 28.5342 41.3697 28.5 41.9998C28.5086 42.7335 28.3369 43.458 28 44.1098C27.6846 44.7193 27.198 45.2233 26.6 45.5598C25.909 45.8915 25.1453 46.0429 24.38 45.9998H21.95ZM23.64 44.4798H24.72C25.1041 44.4938 25.4836 44.3929 25.81 44.1898C26.156 43.9301 26.4296 43.5859 26.6047 43.1902C26.7798 42.7946 26.8505 42.3606 26.81 41.9298C26.8441 41.5249 26.7748 41.118 26.6086 40.7472C26.4424 40.3764 26.1849 40.0539 25.86 39.8098C25.538 39.6053 25.1612 39.5041 24.78 39.5198H23.64V44.4798ZM30.24 45.9998V37.9998H34.82V39.5198H31.93V41.1498H34.58V42.6698H31.93V45.9998H30.24Z" fill="white"/>
</g>
</svg>
