<svg width="16" height="17" viewBox="0 0 16 17" fill="none" xmlns="http://www.w3.org/2000/svg">
<g id="phone 1">
<g id="x32 7 Phone">
<path id="Vector" d="M13.037 11.0278L11.4174 9.89624C11.2056 9.74854 10.958 9.67065 10.7013 9.67065C10.2931 9.67065 9.90993 9.87085 9.67654 10.2058L9.30056 10.7446C8.67043 10.322 7.96731 9.73193 7.29702 9.06177C6.62685 8.3916 6.03689 7.68848 5.6144 7.05835L6.15298 6.68237C6.42751 6.49121 6.61086 6.20483 6.66909 5.87622C6.72719 5.54785 6.65395 5.21606 6.46255 4.94141L5.3312 3.32178C5.09463 2.9834 4.71291 2.78125 4.30996 2.78125C4.17031 2.78125 4.03335 2.80591 3.90298 2.854C3.7549 2.90869 3.61696 2.97583 3.48171 3.06079L3.25808 3.21826C3.20217 3.26172 3.15017 3.30933 3.10036 3.35913C2.82754 3.63184 2.63393 3.97705 2.52468 4.38525C2.05849 6.13281 3.2134 8.77539 5.39846 10.9604C7.23342 12.7954 9.43789 13.9353 11.1514 13.9355H11.1515C11.445 13.9355 11.7216 13.9014 11.9738 13.834C12.382 13.7249 12.7272 13.5312 13.0001 13.2583C13.0497 13.2087 13.0971 13.1567 13.1479 13.0911L13.3054 12.8662C13.3825 12.7432 13.4495 12.6052 13.5049 12.4561C13.6955 11.9409 13.5031 11.3535 13.037 11.0278Z" fill="#00CCB6"/>
</g>
</g>
</svg>
