<svg width="36" height="36" viewBox="0 0 36 36" fill="none" xmlns="http://www.w3.org/2000/svg">
<g id="image">
<path id="Vector" fill-rule="evenodd" clip-rule="evenodd" d="M11.499 33H24.4995C29.5845 33 33 29.433 33 24.1245V11.8755C33 6.567 29.5845 3 24.501 3H11.499C6.414 3 3 6.567 3 11.8755V24.1245C3 29.433 6.4155 33 11.499 33ZM12.75 16.5C11.7557 16.4992 10.8023 16.1039 10.0992 15.4008C9.39614 14.6977 9.00079 13.7443 9 12.75C9 10.683 10.68 9 12.7485 9C13.7424 9.00159 14.6952 9.39723 15.3979 10.1002C16.1005 10.8032 16.4958 11.7561 16.497 12.75C16.497 14.817 14.8155 16.5 12.747 16.5H12.75ZM29.733 22.401C30.2355 23.6895 29.973 25.236 29.4375 26.511C28.8 28.029 27.582 29.178 26.0475 29.679C25.3649 29.8968 24.652 30.0052 23.9355 30H11.295C10.0365 30 8.9235 29.6985 8.01 29.136C7.44 28.7835 7.338 27.969 7.7625 27.441C8.4705 26.559 9.171 25.674 9.8775 24.78C11.2215 23.07 12.1275 22.575 13.1355 23.01C13.545 23.19 13.9545 23.46 14.3775 23.745C15.5025 24.51 17.067 25.56 19.128 24.42C20.538 23.6295 21.3555 22.275 22.068 21.096L22.08 21.0765L22.23 20.8275C22.47 20.4315 22.7055 20.0415 22.9725 19.6815C23.307 19.2315 24.5475 17.8215 26.157 18.8265C27.18 19.4565 28.0425 20.3115 28.9635 21.2265C29.3145 21.576 29.565 21.9735 29.733 22.401Z" fill="#00CCB6"/>
</g>
</svg>
