<svg width="34" height="33" viewBox="0 0 34 33" fill="none" xmlns="http://www.w3.org/2000/svg">
<g id="Layer 2">
<path id="Vector" d="M28.832 32.628H5.168C3.80024 32.6251 2.48918 32.0812 1.52096 31.1151C0.552747 30.149 0.00598259 28.8391 0 27.4714V11.0947H34V27.4714C33.994 28.8391 33.4472 30.149 32.479 31.1151C31.5108 32.0812 30.1997 32.6251 28.832 32.628ZM2.26667 13.3614V27.4714C2.27263 28.238 2.58057 28.9713 3.12371 29.5123C3.66685 30.0533 4.40139 30.3584 5.168 30.3614H28.832C29.5986 30.3584 30.3331 30.0533 30.8763 29.5123C31.4194 28.9713 31.7274 28.238 31.7333 27.4714V13.3614H2.26667Z" fill="#A4A4A4"/>
<path id="Vector_2" d="M34 13.3615H1.24279e-05V8.35216C-0.00147751 7.672 0.131015 6.99821 0.389925 6.36925C0.648835 5.7403 1.02909 5.1685 1.50899 4.6865C1.98888 4.2045 2.55901 3.82175 3.18683 3.56009C3.81464 3.29843 4.48785 3.16299 5.16801 3.1615H28.832C29.5122 3.16299 30.1854 3.29843 30.8132 3.56009C31.441 3.82175 32.0111 4.2045 32.491 4.6865C32.9709 5.1685 33.3512 5.7403 33.6101 6.36925C33.869 6.99821 34.0015 7.672 34 8.35216V13.3615ZM2.26668 11.0948H31.7333V8.35216C31.7348 7.96967 31.661 7.59062 31.516 7.23667C31.371 6.88272 31.1577 6.56079 30.8882 6.28927C30.6188 6.01775 30.2986 5.80196 29.9458 5.65421C29.5929 5.50646 29.2145 5.42965 28.832 5.42816H5.16801C4.78551 5.42965 4.40705 5.50646 4.05424 5.65421C3.70143 5.80196 3.38117 6.01775 3.11176 6.28927C2.84234 6.56079 2.62905 6.88272 2.48405 7.23667C2.33905 7.59062 2.26519 7.96967 2.26668 8.35216V11.0948Z" fill="#A4A4A4"/>
<path id="Vector_3" d="M8.99811 2.0054C8.99811 1.37948 8.4907 0.87207 7.86478 0.87207C7.23886 0.87207 6.73145 1.37948 6.73145 2.0054V6.60673C6.73145 7.23266 7.23886 7.74007 7.86478 7.74007C8.4907 7.74007 8.99811 7.23266 8.99811 6.60673V2.0054Z" fill="#A4A4A4"/>
<path id="Vector_4" d="M27.2681 2.0054C27.2681 1.37948 26.7607 0.87207 26.1348 0.87207C25.5089 0.87207 25.0015 1.37948 25.0015 2.0054V6.60673C25.0015 7.23266 25.5089 7.74007 26.1348 7.74007C26.7607 7.74007 27.2681 7.23266 27.2681 6.60673V2.0054Z" fill="#A4A4A4"/>
<path id="Vector_5" d="M18.1334 2.0054C18.1334 1.37948 17.626 0.87207 17 0.87207C16.3741 0.87207 15.8667 1.37948 15.8667 2.0054V6.60673C15.8667 7.23266 16.3741 7.74007 17 7.74007C17.626 7.74007 18.1334 7.23266 18.1334 6.60673V2.0054Z" fill="#A4A4A4"/>
<path id="Vector_6" d="M1.48486 12.228V30.6447H32.3002V12.228H1.48486ZM11.3335 23.652C11.1094 23.652 10.8903 23.5856 10.7039 23.461C10.5175 23.3365 10.3722 23.1595 10.2865 22.9524C10.2007 22.7453 10.1782 22.5174 10.222 22.2976C10.2657 22.0777 10.3736 21.8758 10.5321 21.7173C10.6906 21.5588 10.8926 21.4509 11.1124 21.4071C11.3323 21.3634 11.5601 21.3858 11.7672 21.4716C11.9743 21.5574 12.1513 21.7027 12.2759 21.889C12.4004 22.0754 12.4669 22.2945 12.4669 22.5187C12.4669 22.8193 12.3475 23.1075 12.1349 23.3201C11.9224 23.5326 11.6341 23.652 11.3335 23.652ZM17.0002 23.652C16.776 23.652 16.5569 23.5856 16.3705 23.461C16.1842 23.3365 16.0389 23.1595 15.9531 22.9524C15.8673 22.7453 15.8449 22.5174 15.8886 22.2976C15.9324 22.0777 16.0403 21.8758 16.1988 21.7173C16.3573 21.5588 16.5592 21.4509 16.7791 21.4071C16.9989 21.3634 17.2268 21.3858 17.4339 21.4716C17.641 21.5574 17.818 21.7027 17.9425 21.889C18.0671 22.0754 18.1335 22.2945 18.1335 22.5187C18.1335 22.8193 18.0141 23.1075 17.8016 23.3201C17.589 23.5326 17.3008 23.652 17.0002 23.652ZM22.6668 23.652C22.4427 23.652 22.2236 23.5856 22.0372 23.461C21.8508 23.3365 21.7056 23.1595 21.6198 22.9524C21.534 22.7453 21.5116 22.5174 21.5553 22.2976C21.599 22.0777 21.707 21.8758 21.8655 21.7173C22.024 21.5588 22.2259 21.4509 22.4457 21.4071C22.6656 21.3634 22.8935 21.3858 23.1006 21.4716C23.3076 21.5574 23.4846 21.7027 23.6092 21.889C23.7337 22.0754 23.8002 22.2945 23.8002 22.5187C23.8002 22.8193 23.6808 23.1075 23.4682 23.3201C23.2557 23.5326 22.9674 23.652 22.6668 23.652Z" fill="#A4A4A4"/>
</g>
</svg>
