<svg width="30" height="33" viewBox="0 0 30 33" fill="none" xmlns="http://www.w3.org/2000/svg">
<path id="Layer 18" d="M25.9357 2.73508H23.7681V1.56356C23.7681 1.34779 23.6824 1.14086 23.53 0.988286C23.3775 0.835714 23.1708 0.75 22.9552 0.75C22.7396 0.75 22.5329 0.835714 22.3804 0.988286C22.228 1.14086 22.1423 1.34779 22.1423 1.56356V2.73508H7.90101V1.56356C7.85509 1.39005 7.75313 1.23661 7.61101 1.12713C7.46889 1.01766 7.29459 0.958302 7.11525 0.958302C6.93591 0.958302 6.7616 1.01766 6.61948 1.12713C6.47736 1.23661 6.3754 1.39005 6.32948 1.56356V2.73508H4.16185C3.62035 2.72355 3.08199 2.82017 2.57824 3.01929C2.07448 3.21841 1.61544 3.51604 1.22794 3.89478C0.840442 4.27351 0.532267 4.72577 0.321429 5.22509C0.11059 5.72442 0.00131783 6.2608 0 6.80288V28.6822C0.00286068 29.7602 0.431982 30.7932 1.19357 31.5554C1.95515 32.3176 2.98726 32.7471 4.06431 32.75H25.9357C27.0127 32.7471 28.0448 32.3176 28.8064 31.5554C29.568 30.7932 29.9971 29.7602 30 28.6822V6.80288C29.9971 5.72492 29.568 4.69192 28.8064 3.92968C28.0448 3.16744 27.0127 2.73795 25.9357 2.73508ZM7.99855 25.8293H6.32948C6.1139 25.8293 5.90714 25.7436 5.7547 25.591C5.60226 25.4385 5.51662 25.2315 5.51662 25.0158C5.51662 24.8 5.60226 24.5931 5.7547 24.4405C5.90714 24.2879 6.1139 24.2022 6.32948 24.2022H7.9552C8.17079 24.2022 8.37754 24.2879 8.52998 24.4405C8.68242 24.5931 8.76806 24.8 8.76806 25.0158C8.76806 25.2315 8.68242 25.4385 8.52998 25.591C8.37754 25.7436 8.17079 25.8293 7.9552 25.8293H7.99855ZM7.99855 19.3208H6.32948C6.1139 19.3208 5.90714 19.2351 5.7547 19.0826C5.60226 18.93 5.51662 18.7231 5.51662 18.5073C5.51662 18.2915 5.60226 18.0846 5.7547 17.932C5.90714 17.7794 6.1139 17.6937 6.32948 17.6937H7.9552C8.17079 17.6937 8.37754 17.7794 8.52998 17.932C8.68242 18.0846 8.76806 18.2915 8.76806 18.5073C8.76806 18.7231 8.68242 18.93 8.52998 19.0826C8.37754 19.2351 8.17079 19.3208 7.9552 19.3208H7.99855ZM15.8129 25.8293H14.1871C13.9716 25.8293 13.7648 25.7436 13.6124 25.591C13.4599 25.4385 13.3743 25.2315 13.3743 25.0158C13.3743 24.8 13.4599 24.5931 13.6124 24.4405C13.7648 24.2879 13.9716 24.2022 14.1871 24.2022H15.8129C16.0284 24.2022 16.2352 24.2879 16.3876 24.4405C16.5401 24.5931 16.6257 24.8 16.6257 25.0158C16.6257 25.2315 16.5401 25.4385 16.3876 25.591C16.2352 25.7436 16.0284 25.8293 15.8129 25.8293ZM15.8129 19.3208H14.1871C13.9716 19.3208 13.7648 19.2351 13.6124 19.0826C13.4599 18.93 13.3743 18.7231 13.3743 18.5073C13.3743 18.2915 13.4599 18.0846 13.6124 17.932C13.7648 17.7794 13.9716 17.6937 14.1871 17.6937H15.8129C16.0284 17.6937 16.2352 17.7794 16.3876 17.932C16.5401 18.0846 16.6257 18.2915 16.6257 18.5073C16.6257 18.7231 16.5401 18.93 16.3876 19.0826C16.2352 19.2351 16.0284 19.3208 15.8129 19.3208ZM23.6272 25.8293H22.0014C21.7859 25.8293 21.5791 25.7436 21.4267 25.591C21.2742 25.4385 21.1886 25.2315 21.1886 25.0158C21.1886 24.8 21.2742 24.5931 21.4267 24.4405C21.5791 24.2879 21.7859 24.2022 22.0014 24.2022H23.6705C23.8861 24.2022 24.0929 24.2879 24.2453 24.4405C24.3977 24.5931 24.4834 24.8 24.4834 25.0158C24.4834 25.2315 24.3977 25.4385 24.2453 25.591C24.0929 25.7436 23.8861 25.8293 23.6705 25.8293H23.6272ZM23.6272 19.3208H22.0014C21.7859 19.3208 21.5791 19.2351 21.4267 19.0826C21.2742 18.93 21.1886 18.7231 21.1886 18.5073C21.1886 18.2915 21.2742 18.0846 21.4267 17.932C21.5791 17.7794 21.7859 17.6937 22.0014 17.6937H23.6705C23.8861 17.6937 24.0929 17.7794 24.2453 17.932C24.3977 18.0846 24.4834 18.2915 24.4834 18.5073C24.4834 18.7231 24.3977 18.93 24.2453 19.0826C24.0929 19.2351 23.8861 19.3208 23.6705 19.3208H23.6272ZM28.3743 10.7731H1.62572V6.80288C1.62572 6.15557 1.88264 5.53478 2.33997 5.07706C2.79729 4.61935 3.41755 4.3622 4.06431 4.3622H6.32948V5.52288C6.32948 5.73865 6.41512 5.94558 6.56756 6.09816C6.72 6.25073 6.92676 6.33644 7.14234 6.33644C7.35792 6.33644 7.56468 6.25073 7.71712 6.09816C7.86956 5.94558 7.9552 5.73865 7.9552 5.52288V4.3622H22.1532V5.52288C22.1532 5.73865 22.2388 5.94558 22.3913 6.09816C22.5437 6.25073 22.7505 6.33644 22.966 6.33644C23.1816 6.33644 23.3884 6.25073 23.5408 6.09816C23.6933 5.94558 23.7789 5.73865 23.7789 5.52288V4.3622H25.9465C26.5933 4.3622 27.2135 4.61935 27.6709 5.07706C28.1282 5.53478 28.3851 6.15557 28.3851 6.80288L28.3743 10.7731Z" fill="#A4A4A4"/>
</svg>
