<svg width="28" height="29" viewBox="0 0 28 29" fill="none" xmlns="http://www.w3.org/2000/svg">
<g id="plus">
<path id="Layer 54" d="M14 4.5C12.0222 4.5 10.0888 5.08649 8.4443 6.1853C6.79981 7.28412 5.51809 8.8459 4.76121 10.6732C4.00433 12.5004 3.8063 14.5111 4.19215 16.4509C4.578 18.3907 5.53041 20.1725 6.92894 21.5711C8.32746 22.9696 10.1093 23.922 12.0491 24.3078C13.9889 24.6937 15.9996 24.4957 17.8268 23.7388C19.6541 22.9819 21.2159 21.7002 22.3147 20.0557C23.4135 18.4112 24 16.4778 24 14.5C24 11.8478 22.9464 9.3043 21.0711 7.42893C19.1957 5.55357 16.6522 4.5 14 4.5ZM14 22.6818C12.3818 22.6818 10.7999 22.202 9.45443 21.3029C8.10894 20.4039 7.06025 19.1261 6.44099 17.631C5.82173 16.136 5.6597 14.4909 5.9754 12.9038C6.29109 11.3167 7.07034 9.85883 8.21458 8.71458C9.35883 7.57033 10.8167 6.79109 12.4038 6.47539C13.9909 6.1597 15.636 6.32172 17.131 6.94099C18.6261 7.56025 19.9039 8.60893 20.8029 9.95442C21.702 11.2999 22.1818 12.8818 22.1818 14.5C22.1818 16.67 21.3198 18.751 19.7854 20.2854C18.251 21.8198 16.17 22.6818 14 22.6818ZM19.4545 14.5C19.4545 14.7411 19.3588 14.9723 19.1883 15.1428C19.0178 15.3133 18.7866 15.4091 18.5455 15.4091H14.9091V19.0455C14.9091 19.2866 14.8133 19.5178 14.6428 19.6883C14.4723 19.8588 14.2411 19.9545 14 19.9545C13.7589 19.9545 13.5277 19.8588 13.3572 19.6883C13.1867 19.5178 13.0909 19.2866 13.0909 19.0455V15.4091H9.45455C9.21344 15.4091 8.98221 15.3133 8.81172 15.1428C8.64124 14.9723 8.54546 14.7411 8.54546 14.5C8.54546 14.2589 8.64124 14.0277 8.81172 13.8572C8.98221 13.6867 9.21344 13.5909 9.45455 13.5909H13.0909V9.95454C13.0909 9.71344 13.1867 9.48221 13.3572 9.31172C13.5277 9.14123 13.7589 9.04545 14 9.04545C14.2411 9.04545 14.4723 9.14123 14.6428 9.31172C14.8133 9.48221 14.9091 9.71344 14.9091 9.95454V13.5909H18.5455C18.7866 13.5909 19.0178 13.6867 19.1883 13.8572C19.3588 14.0277 19.4545 14.2589 19.4545 14.5Z" fill="#00CCB6"/>
</g>
</svg>
