<svg width="28" height="29" viewBox="0 0 28 29" fill="none" xmlns="http://www.w3.org/2000/svg">
<g id="prev-arrow">
<path id="Vector" d="M1.50817 13.9251C1.28946 14.1439 1.16659 14.4406 1.16659 14.7499C1.16659 15.0593 1.28946 15.356 1.50817 15.5748L7.34151 21.4081C7.56154 21.6206 7.85625 21.7382 8.16214 21.7356C8.46804 21.7329 8.76065 21.6102 8.97696 21.3939C9.19327 21.1776 9.31597 20.885 9.31863 20.5791C9.32129 20.2732 9.20369 19.9785 8.99117 19.7584L5.14934 15.9166L25.6663 15.9166C25.9758 15.9166 26.2725 15.7937 26.4913 15.5749C26.7101 15.3561 26.833 15.0594 26.833 14.7499C26.833 14.4405 26.7101 14.1438 26.4913 13.925C26.2725 13.7062 25.9758 13.5833 25.6663 13.5833L5.14934 13.5833L8.99117 9.74143C9.20369 9.5214 9.32129 9.22669 9.31863 8.9208C9.31597 8.6149 9.19327 8.32229 8.97696 8.10598C8.76065 7.88967 8.46804 7.76697 8.16214 7.76431C7.85625 7.76165 7.56154 7.87925 7.34151 8.09176L1.50817 13.9251Z" fill="#A4A4A4"/>
</g>
</svg>
