<svg width="28" height="28" viewBox="0 0 28 28" fill="none" xmlns="http://www.w3.org/2000/svg">
<g id="report">
<path id="Vector" d="M21.9865 22.4059V7.03037C21.9865 7.00332 21.9865 6.97873 21.984 6.95414C21.9469 6.37876 21.6107 5.82796 21.0716 5.58699C20.7798 5.45421 20.4856 5.4247 20.174 5.4247H18.1959C18.1959 5.17881 18.1959 4.90096 18.191 4.64032V4.59851C18.1836 4.43131 18.1242 4.2764 18.0055 4.15591C17.9239 4.07477 17.8349 4.02559 17.7385 4.001C17.7236 3.99608 17.7088 3.99363 17.694 3.99117C17.6643 3.98625 17.6322 3.97641 17.6025 3.97641C17.6 3.97641 17.5975 3.97641 17.5975 3.97395C17.5975 3.9715 17.5951 3.96904 17.5951 3.96658C17.5852 3.95674 17.5728 3.97641 17.5629 3.95182H15.4735C15.4686 3.82888 15.4562 3.67643 15.429 3.53381C15.3128 2.95351 14.885 2.42731 14.346 2.18388C13.7748 1.92815 13.1393 1.93799 12.5805 2.22076C12.1083 2.45927 11.7472 2.90433 11.6014 3.40595C11.5494 3.58545 11.5296 3.7797 11.5247 3.95182H10.2018C9.9521 3.95182 9.69741 3.95428 9.44768 3.96166C9.08172 3.97395 8.80726 4.24935 8.79737 4.61081C8.7949 4.69195 8.78995 4.78047 8.78995 4.86408V5.43208C8.07288 5.43208 7.35087 5.42962 6.62885 5.43208C5.73375 5.437 5.01421 6.14516 5.00185 7.03774C4.99937 7.15577 5.00679 7.27134 5.00679 7.38936V22.5559C5.00679 23.0919 4.9425 23.6845 5.20955 24.1714C5.50874 24.7148 6.08734 25 6.69314 25H19.8229C19.9985 25 20.1765 24.9926 20.3521 24.9926C21.1137 24.9902 21.8307 24.464 21.9642 23.6968C22.0285 23.2788 21.9865 22.8263 21.9865 22.4059ZM12.7932 3.89773C12.7932 3.88543 12.7956 3.8756 12.7956 3.8633C12.7981 3.84117 12.8006 3.81904 12.8055 3.79691L12.813 3.76741C12.813 3.76495 12.8154 3.76249 12.8154 3.76003C12.8179 3.75511 12.813 3.75019 12.813 3.74282C12.8154 3.73544 12.813 3.72806 12.813 3.72069H12.8204C12.8204 3.71823 12.8253 3.71577 12.8253 3.71331C12.8253 3.71085 12.8278 3.71085 12.8278 3.70839C12.8303 3.70347 12.8303 3.69856 12.8327 3.6961C12.8352 3.68872 12.8377 3.6838 12.8402 3.67643C12.8402 3.67397 12.8402 3.67397 12.8426 3.67397C12.8426 3.67151 12.8377 3.67151 12.8377 3.66905C12.8402 3.66413 12.8352 3.66167 12.8352 3.65921C12.8352 3.65676 12.8426 3.65676 12.8426 3.65676C12.8451 3.6543 12.8476 3.65184 12.85 3.64692C12.85 3.64446 12.8525 3.64446 12.855 3.642C12.855 3.642 12.855 3.63954 12.8575 3.63954C12.8575 3.63708 12.8599 3.63708 12.8599 3.63708C12.8624 3.63463 12.8624 3.62971 12.8649 3.62725C12.8649 3.62725 12.8649 3.62479 12.8674 3.62479C12.8698 3.62233 12.8698 3.61741 12.8723 3.61495C12.8748 3.6125 12.8748 3.61004 12.8772 3.60758C12.8797 3.60266 12.8847 3.59528 12.8871 3.59037L12.8946 3.57561L12.9094 3.55348C12.9143 3.54365 12.9218 3.53381 12.9292 3.52643C12.9366 3.51906 12.9415 3.50922 12.949 3.50185L12.9514 3.49939C12.9588 3.49201 12.9638 3.48217 12.9712 3.4748C12.9786 3.46496 12.9885 3.45759 12.9959 3.44775C13.0751 3.36906 13.1665 3.31743 13.2679 3.283C13.2729 3.28054 13.2753 3.28054 13.2803 3.27809C13.2852 3.27809 13.2877 3.27563 13.2927 3.27563H13.2951C13.3124 3.27071 13.3322 3.26825 13.3495 3.26333C13.3545 3.26333 13.3569 3.26825 13.3619 3.26579C13.4014 3.25596 13.4435 3.26087 13.4855 3.26087C13.5226 3.26087 13.5597 3.25841 13.5918 3.26579C13.6017 3.26825 13.6116 3.26087 13.619 3.26087C13.6215 3.26087 13.6265 3.26579 13.6289 3.26825C13.6339 3.27071 13.6388 3.26087 13.6438 3.28546C13.6883 3.28546 13.7303 3.30267 13.7723 3.31989C13.7773 3.32235 13.7822 3.32235 13.7872 3.32235C13.8589 3.35431 13.9257 3.39611 13.9801 3.45267L13.9974 3.46988C14.0072 3.47972 14.0147 3.48955 14.0246 3.49939C14.0938 3.58299 14.1383 3.67889 14.163 3.78462C14.168 3.79937 14.1729 3.81413 14.1754 3.83134C14.1779 3.84363 14.1803 3.85593 14.1828 3.87068C14.1828 3.87314 14.1902 3.8756 14.1902 3.87806C14.1902 3.88297 14.1976 3.88543 14.1976 3.89035V3.93707C14.1976 3.94445 14.1927 3.95182 14.1927 3.9592C14.1927 3.96658 14.1902 3.97149 14.1902 3.97887C14.1902 3.98625 14.1878 3.99117 14.1878 3.99854C14.1878 4.001 14.1853 4.00346 14.1853 4.00346V4.00838C14.1853 4.0133 14.1828 4.01821 14.1828 4.02313C14.1803 4.03543 14.1779 4.04526 14.1754 4.05756C14.1729 4.06247 14.1729 4.06739 14.1704 4.07231C14.168 4.0846 14.163 4.09444 14.1606 4.10428C14.1581 4.11411 14.1556 4.12149 14.1531 4.13132C14.1507 4.13624 14.1507 4.14362 14.1482 4.14854C14.1482 4.15099 14.1482 4.15345 14.1457 4.15591C14.1457 4.15837 14.1482 4.16083 14.1457 4.16329V4.17312C14.1457 4.1805 14.1358 4.18788 14.1334 4.1928C14.1334 4.19525 14.1309 4.19771 14.1284 4.19771L14.121 4.21247C14.116 4.2223 14.1111 4.2346 14.1062 4.24443C14.1012 4.25427 14.0963 4.2641 14.0888 4.27394C14.0864 4.27886 14.0839 4.28132 14.0814 4.28623C14.074 4.30099 14.0641 4.31328 14.0542 4.32804C14.0518 4.33295 14.0468 4.33787 14.0419 4.34279C14.0295 4.36 14.0122 4.37475 13.9974 4.38951C13.9875 4.4018 13.9875 4.4141 13.9627 4.42639H13.9677C13.9677 4.43623 13.9504 4.4436 13.9405 4.45344C13.9306 4.46082 13.9232 4.46819 13.9133 4.47557L13.9108 4.47803C13.9009 4.4854 13.891 4.49278 13.8787 4.50016C13.8762 4.50262 13.8713 4.50508 13.8688 4.50753C13.8638 4.51245 13.8564 4.51491 13.8515 4.51983C13.8317 4.53212 13.8094 4.54442 13.7872 4.55425C13.7822 4.55671 13.7773 4.55917 13.7699 4.56163C13.7649 4.56409 13.76 4.56655 13.7526 4.56901H13.7476C13.7451 4.56901 13.7427 4.57147 13.7402 4.57147C13.7377 4.57147 13.7353 4.57393 13.7328 4.57393C13.7278 4.57638 13.7204 4.57884 13.7155 4.5813C13.7105 4.58376 13.7031 4.58622 13.6957 4.58868C13.6908 4.59114 13.6858 4.59114 13.6809 4.5936C13.6166 4.61573 13.5449 4.62556 13.4732 4.6231H13.4311C13.4262 4.6231 13.4212 4.6231 13.4163 4.62064H13.4064C13.4039 4.62064 13.399 4.62064 13.3965 4.61819C13.3916 4.61819 13.3891 4.61819 13.3841 4.61573C13.3767 4.61573 13.3718 4.61327 13.3644 4.61327C13.3594 4.61327 13.3545 4.61081 13.352 4.61081C13.3273 4.60589 13.3025 4.60097 13.2803 4.5936C13.2729 4.59114 13.2679 4.58376 13.2605 4.5813C13.2506 4.57884 13.2432 4.56655 13.2333 4.56655L13.2308 4.57147C13.2284 4.57147 13.2259 4.57393 13.2234 4.57393V4.57638H13.2209C13.2185 4.57393 13.216 4.57393 13.2111 4.57393C13.2086 4.57393 13.2086 4.57147 13.2061 4.57147C13.2036 4.57147 13.2036 4.56901 13.2012 4.56901C13.1987 4.56901 13.1962 4.56655 13.1937 4.56655C13.1888 4.56409 13.1863 4.56409 13.1814 4.56163C13.1764 4.55917 13.1715 4.55671 13.169 4.55425C13.1665 4.5518 13.1641 4.5518 13.1591 4.54934C13.1567 4.54688 13.1542 4.54688 13.1492 4.54442C13.1443 4.54196 13.1418 4.5395 13.1369 4.53704C13.1344 4.53458 13.1319 4.53458 13.1295 4.53212C13.1245 4.52966 13.1196 4.52721 13.1171 4.52475C13.1146 4.52229 13.1121 4.52229 13.1097 4.51983C13.1072 4.51983 13.1047 4.51737 13.1047 4.51737C13.1023 4.51737 13.1023 4.51491 13.0998 4.51491L13.0973 4.51245C13.0973 4.51245 13.0948 4.51245 13.0948 4.50999C13.0899 4.50754 13.0874 4.50508 13.0825 4.50262C13.08 4.50016 13.0775 4.50016 13.0751 4.4977C13.0602 4.48786 13.0429 4.47557 13.0281 4.46327C13.0182 4.4559 13.0108 4.44852 13.0034 4.44114L12.9935 4.43131C12.991 4.42885 12.986 4.42639 12.9836 4.42147L12.9786 4.41656L12.9737 4.41164L12.9613 4.39934L12.9588 4.39688L12.9564 4.39443L12.9539 4.39197L12.9514 4.38951L12.944 4.38213C12.9415 4.37721 12.9366 4.37475 12.9341 4.36984C12.9267 4.36246 12.9193 4.35262 12.9143 4.34279C12.9094 4.33541 12.902 4.32804 12.897 4.32066C12.8822 4.30099 12.8698 4.28132 12.8599 4.25919C12.855 4.25181 12.85 4.24197 12.8476 4.2346C12.8451 4.23214 12.8426 4.22722 12.8426 4.2223C12.8402 4.21493 12.8352 4.21001 12.8327 4.20263C12.8278 4.1928 12.8253 4.18296 12.8204 4.17312C12.8179 4.17067 12.8179 4.16575 12.8154 4.16329C12.813 4.15345 12.808 4.14608 12.8055 4.13624C12.8031 4.13132 12.8006 4.12395 12.8006 4.11903C12.8006 4.11657 12.7981 4.11411 12.7981 4.10919C12.7956 4.10428 12.7956 4.09936 12.7956 4.09444C12.7932 4.08952 12.7932 4.0846 12.7932 4.07969C12.7907 4.07477 12.7907 4.06739 12.7882 4.06247C12.7858 4.0551 12.7858 4.04772 12.7833 4.04034C12.7808 4.02805 12.7808 4.01821 12.7783 4.00592V4.001C12.7783 3.99854 12.7759 3.99608 12.7759 3.99363C12.7759 3.98379 12.7709 3.97641 12.7709 3.96658C12.7709 3.95428 12.7734 3.94445 12.7734 3.93215C12.7907 3.91986 12.7932 3.90756 12.7932 3.89773ZM10.4911 20.3748H8.24349C7.81573 20.3748 7.49675 20.0355 7.47944 19.6248C7.45966 19.2142 7.8454 18.8749 8.24349 18.8749H10.4911C10.9189 18.8749 11.2379 19.2142 11.2552 19.6248C11.275 20.0355 10.8917 20.3748 10.4911 20.3748ZM19.0317 18.9314L18.641 19.3199C18.0847 19.8757 17.5258 20.4289 16.9695 20.9846L15.9161 22.0321C15.6244 22.3223 15.1274 22.3223 14.8356 22.0321C14.3584 21.5575 13.8811 21.083 13.4014 20.6084C13.0998 20.3084 13.122 19.8388 13.4014 19.5339C13.6809 19.2314 14.2001 19.256 14.482 19.5363L15.3746 20.424C15.8815 19.9175 16.3909 19.4085 16.8978 18.9044L17.9511 17.8569C18.2528 17.5569 18.7275 17.579 19.0317 17.8569C19.3358 18.1323 19.316 18.6487 19.0317 18.9314ZM18.7424 15.7668C18.7374 15.7668 18.73 15.7718 18.7251 15.7718C18.2998 15.7816 17.872 15.7791 17.4442 15.7791H8.24349C7.81573 15.7791 7.49675 15.425 7.47944 15.0144C7.45966 14.6038 7.8454 14.2497 8.24349 14.2497C8.24844 14.2497 8.25586 14.2522 8.2608 14.2522C8.6861 14.2423 9.11387 14.2546 9.54164 14.2546H18.7449C19.1726 14.2546 19.4916 14.5989 19.5089 15.012C19.5262 15.4201 19.143 15.7668 18.7424 15.7668ZM18.7424 11.1343C18.7374 11.1343 18.73 11.1318 18.7251 11.1318C18.2998 11.1392 17.872 11.1293 17.4442 11.1293H8.24349C7.81573 11.1293 7.49675 10.7826 7.47944 10.372C7.45966 9.96137 7.8454 9.61221 8.24349 9.61221C8.24844 9.61221 8.25586 9.60975 8.2608 9.60975C8.6861 9.59992 9.11387 9.60483 9.54164 9.60483H18.7449C19.1726 9.60483 19.4916 9.95646 19.5089 10.3696C19.5262 10.7802 19.143 11.1343 18.7424 11.1343Z" fill="#A4A4A4"/>
</g>
</svg>
