<svg width="28" height="28" viewBox="0 0 28 28" fill="none" xmlns="http://www.w3.org/2000/svg">
<g id="review">
<path id="Vector" d="M21.4405 3H5.55952C4.35026 3 3.19053 3.46684 2.33545 4.29782C1.48038 5.1288 1 6.25586 1 7.43104V17.0914C0.999682 18.2677 1.47958 19.3962 2.33438 20.2291C3.18919 21.0619 4.34907 21.5313 5.55952 21.534H14.6071L20.0357 25.8725C20.1426 25.9585 20.278 26.0037 20.4167 25.9998C20.5063 26.0013 20.5953 25.9856 20.6786 25.9535C20.7792 25.9032 20.8635 25.8269 20.9223 25.733C20.9812 25.6391 21.0122 25.5312 21.0119 25.4213V21.534H21.4405C22.6509 21.5313 23.8108 21.0619 24.6656 20.2291C25.5204 19.3962 26.0003 18.2677 26 17.0914V7.43104C26 6.25586 25.5196 5.1288 24.6645 4.29782C23.8095 3.46684 22.6497 3 21.4405 3ZM17.9167 11.5844L16.381 13.3892L16.5357 15.7956C16.543 15.8971 16.5227 15.9987 16.4767 16.0901C16.4307 16.1815 16.3607 16.2595 16.2738 16.3163C16.1736 16.3763 16.0582 16.4083 15.9405 16.4088C15.8501 16.4062 15.7612 16.3866 15.6786 16.351L13.5 15.3213L11.3214 16.351C11.2278 16.3958 11.1237 16.4159 11.0196 16.4093C10.9155 16.4027 10.815 16.3696 10.7282 16.3134C10.6413 16.2571 10.5713 16.1797 10.5249 16.0888C10.4786 15.998 10.4577 15.8968 10.4643 15.7956L10.619 13.3892L9.08333 11.5844C9.01996 11.5075 8.97704 11.4166 8.95835 11.3198C8.93967 11.2229 8.94579 11.1231 8.97619 11.0291C9.01182 10.9373 9.06918 10.8548 9.14362 10.7885C9.21807 10.7222 9.30753 10.6738 9.40476 10.6473L11.7976 10.0688L12.9405 8.10206C12.9946 8.00538 13.076 7.92573 13.1751 7.87245C13.2743 7.81916 13.387 7.79447 13.5 7.80126C13.6127 7.79664 13.7245 7.82227 13.8232 7.87533C13.9219 7.92839 14.0037 8.00683 14.0595 8.10206L15.2024 10.0688L17.5952 10.6473C17.6925 10.6738 17.7819 10.7222 17.8564 10.7885C17.9308 10.8548 17.9882 10.9373 18.0238 11.0291C18.0542 11.1231 18.0603 11.2229 18.0416 11.3198C18.023 11.4166 17.98 11.5075 17.9167 11.5844Z" fill="#A4A4A4"/>
</g>
</svg>
