<svg width="29" height="28" viewBox="0 0 29 28" fill="none" xmlns="http://www.w3.org/2000/svg">
<g id="Layer 2">
<path id="Vector" d="M13.025 22.25H15.775V27.75H13.025V22.25Z" fill="white"/>
<path id="Vector_2" d="M22.65 3.43965L14.4 0.139648L6.14999 3.43965V8.49965H0.649994V27.7496H10.275V19.4996H18.525V27.7496H28.15V8.49965H22.65V3.43965ZM7.52499 22.2496H4.77499V19.4996H7.52499V22.2496ZM7.52499 16.7496H4.77499V13.9996H7.52499V16.7496ZM13.025 16.7496H10.275V13.9996H13.025V16.7496ZM13.025 5.74965H15.775V11.2496H13.025V5.74965ZM18.525 16.7496H15.775V13.9996H18.525V16.7496ZM24.025 22.2496H21.275V19.4996H24.025V22.2496ZM24.025 13.9996V16.7496H21.275V13.9996H24.025Z" fill="white"/>
</g>
</svg>
