<svg width="19" height="19" viewBox="0 0 19 19" fill="none" xmlns="http://www.w3.org/2000/svg">
<g id="Frame 1" clip-path="url(#clip0_615_15204)">
<g id="Group 9">
<path id="Vector" fill-rule="evenodd" clip-rule="evenodd" d="M12.5022 0.684967C12.1994 0.67728 11.9014 0.831431 11.7391 1.11198L11.3121 1.85156C11.0764 2.2602 11.2164 2.78286 11.6251 3.01857L11.9944 3.23208L11.1652 4.6664C10.7318 4.57716 10.2753 4.52805 9.8026 4.52805C8.12189 4.52805 6.6359 5.13483 5.71185 6.05076C5.16613 6.59221 4.813 7.24127 4.71009 7.94412H4.67849C3.97136 7.94412 3.39746 8.51802 3.39746 9.22515V10.0792C3.39746 10.7863 3.97136 11.3602 4.67849 11.3602H4.74766C4.82922 11.8209 5.5372 15.8353 5.84209 17.5608C5.95012 18.1731 6.48132 18.6194 7.10305 18.6194H12.5022C13.1239 18.6194 13.6551 18.1731 13.7631 17.5608C14.068 15.8353 14.776 11.8209 14.8575 11.3602H14.9267C15.6338 11.3602 16.2077 10.7863 16.2077 10.0792V9.22515C16.2077 8.51802 15.6338 7.94412 14.9267 7.94412H14.8951C14.7922 7.24127 14.4391 6.59221 13.8933 6.05076C13.7768 5.93505 13.6512 5.82445 13.5172 5.71898L14.2136 4.5131L14.583 4.72661C14.9912 4.96232 15.5143 4.82226 15.75 4.41361L16.177 3.67403C16.4127 3.26581 16.2722 2.74315 15.864 2.50744L12.9061 0.799405C12.7784 0.725532 12.6401 0.688383 12.5022 0.684967ZM12.4791 1.53899L15.437 3.24702L15.01 3.9866L14.2713 3.55959C14.2695 3.55874 14.2678 3.55831 14.2661 3.55746L12.7917 2.70557C12.7912 2.70557 12.7904 2.70515 12.79 2.70472L12.0521 2.27857L12.4791 1.53899ZM15.437 3.24702C15.2329 3.12917 15.3191 3.45113 15.437 3.24702V3.24702ZM12.734 3.65909L13.474 4.0861L12.8002 5.25268C12.5542 5.12031 12.2916 5.00331 12.0154 4.90424L12.734 3.65909ZM9.8026 5.38207C11.2331 5.38207 12.506 5.87697 13.2921 6.65712C13.6679 7.0299 13.9292 7.46758 14.0283 7.94412H5.57692C5.67598 7.46758 5.93731 7.0299 6.31308 6.65712C7.0992 5.87697 8.37212 5.38207 9.8026 5.38207ZM10.6566 6.23609C10.4222 6.23609 10.2296 6.42867 10.2296 6.6631C10.2296 6.89752 10.4222 7.09011 10.6566 7.09011C10.891 7.09011 11.0836 6.89752 11.0836 6.6631C11.0836 6.42867 10.891 6.23609 10.6566 6.23609ZM7.95536 6.6631C7.72093 6.6631 7.52835 6.85568 7.52835 7.09011C7.52835 7.32453 7.72093 7.51712 7.95536 7.51712C8.18936 7.51712 8.38237 7.32453 8.38237 7.09011C8.38237 6.85568 8.18936 6.6631 7.95536 6.6631ZM4.67849 8.79814H14.9267C15.1624 8.79814 15.3537 8.98944 15.3537 9.22515V10.0792C15.3537 10.3149 15.1624 10.5062 14.9267 10.5062H4.67849C4.44278 10.5062 4.25148 10.3149 4.25148 10.0792V9.22515C4.25148 8.98944 4.44278 8.79814 4.67849 8.79814ZM5.61407 11.3602H13.9911C13.8805 11.987 13.22 15.7281 12.9228 17.4126C12.8865 17.6167 12.7093 17.7653 12.5022 17.7653H7.10305C6.89595 17.7653 6.71874 17.6167 6.68244 17.4126L5.61407 11.3602ZM6.79688 12.2142C6.77553 12.2151 6.75418 12.2176 6.73283 12.2219C6.50182 12.2667 6.3498 12.4905 6.39421 12.7219L6.55904 13.5759C6.60387 13.807 6.82805 13.959 7.05949 13.9146C7.29093 13.8697 7.44209 13.646 7.39726 13.4145L7.23286 12.5605C7.19229 12.3509 7.00398 12.2065 6.79688 12.2142ZM7.35327 14.3493C7.32467 14.3488 7.29606 14.351 7.26702 14.3569C7.03601 14.4014 6.88399 14.626 6.92883 14.857L7.2888 16.7222C7.33278 16.9532 7.55824 17.1052 7.78925 17.0608C8.02069 17.0159 8.17271 16.7913 8.12787 16.5603L7.76747 14.6956C7.72862 14.4932 7.55183 14.3514 7.35327 14.3493Z" fill="#878787"/>
</g>
</g>
<defs>
<clipPath id="clip0_615_15204">
<rect width="18" height="18" fill="white" transform="translate(0.397461 0.684692)"/>
</clipPath>
</defs>
</svg>
