<svg width="19" height="19" viewBox="0 0 19 19" fill="none" xmlns="http://www.w3.org/2000/svg">
<g id="Frame 1" clip-path="url(#clip0_617_24309)">
<g id="Group 13">
<path id="Vector" d="M15.8038 8.88541C15.7938 8.80421 15.7734 8.72464 15.7431 8.64862C15.7431 8.64862 15.7431 8.64862 15.7431 8.61219L13.3753 4.55648V2.29184C13.3753 2.13081 13.3113 1.97638 13.1974 1.86252C13.0836 1.74866 12.9292 1.68469 12.7681 1.68469H6.6967C6.53567 1.68469 6.38125 1.74866 6.26738 1.86252C6.15352 1.97638 6.08956 2.13081 6.08956 2.29184V4.55648L3.73991 8.61826V8.65469C3.7096 8.73069 3.68919 8.81027 3.6792 8.89148C3.6792 8.89148 3.6792 8.89148 3.6792 8.92791V18.0775C3.6792 18.2386 3.74317 18.393 3.85703 18.5069C3.97089 18.6207 4.12532 18.6847 4.28634 18.6847H15.1967C15.3577 18.6847 15.5122 18.6207 15.626 18.5069C15.7399 18.393 15.8038 18.2386 15.8038 18.0775V8.88541ZM6.6967 5.93469L8.05063 8.30862H5.31848L6.6967 5.93469ZM9.45313 8.30862L7.74098 5.32755H12.416L14.1403 8.31469L9.45313 8.30862ZM7.30384 2.89898H12.161V4.11326H7.30384V2.89898ZM4.87527 9.52898H8.51813V17.4704H4.87527V9.52898ZM14.5896 17.4704H9.73241V9.52898H14.5896V17.4704ZM5.48241 11.399C5.48241 11.238 5.54638 11.0835 5.66024 10.9697C5.7741 10.8558 5.92853 10.7918 6.08956 10.7918H7.30384C7.46487 10.7918 7.6193 10.8558 7.73316 10.9697C7.84702 11.0835 7.91098 11.238 7.91098 11.399C7.91098 11.56 7.84702 11.7144 7.73316 11.8283C7.6193 11.9422 7.46487 12.0061 7.30384 12.0061H6.08956C5.92853 12.0061 5.7741 11.9422 5.66024 11.8283C5.54638 11.7144 5.48241 11.56 5.48241 11.399ZM7.91098 13.524C7.91098 13.685 7.84702 13.8394 7.73316 13.9533C7.6193 14.0672 7.46487 14.1311 7.30384 14.1311H6.08956C5.92853 14.1311 5.7741 14.0672 5.66024 13.9533C5.54638 13.8394 5.48241 13.685 5.48241 13.524C5.48241 13.363 5.54638 13.2085 5.66024 13.0947C5.7741 12.9808 5.92853 12.9168 6.08956 12.9168H7.30384C7.46487 12.9168 7.6193 12.9808 7.73316 13.0947C7.84702 13.2085 7.91098 13.363 7.91098 13.524ZM7.91098 15.649C7.91098 15.81 7.84702 15.9644 7.73316 16.0783C7.6193 16.1922 7.46487 16.2561 7.30384 16.2561H6.08956C5.92853 16.2561 5.7741 16.1922 5.66024 16.0783C5.54638 15.9644 5.48241 15.81 5.48241 15.649C5.48241 15.488 5.54638 15.3335 5.66024 15.2197C5.7741 15.1058 5.92853 15.0418 6.08956 15.0418H7.30384C7.46487 15.0418 7.6193 15.1058 7.73316 15.2197C7.84702 15.3335 7.91098 15.488 7.91098 15.649Z" fill="white"/>
</g>
</g>
<defs>
<clipPath id="clip0_617_24309">
<rect width="18" height="18" fill="white" transform="translate(0.679199 0.684692)"/>
</clipPath>
</defs>
</svg>
