<svg width="19" height="19" viewBox="0 0 19 19" fill="none" xmlns="http://www.w3.org/2000/svg">
<g id="Frame 1">
<g id="Group 20">
<path id="Layer 2" d="M17.2427 16.8324L10.3732 4.15004V3.2182C10.3732 3.07674 10.317 2.94107 10.2169 2.84104C10.1169 2.74101 9.98124 2.68481 9.83977 2.68481C9.69831 2.68481 9.56264 2.74101 9.46261 2.84104C9.36258 2.94107 9.30638 3.07674 9.30638 3.2182V4.15004L2.43686 16.8324C2.39289 16.9137 2.37078 17.0049 2.37267 17.0973C2.37457 17.1896 2.40041 17.2799 2.44767 17.3592C2.49493 17.4386 2.56199 17.5043 2.64228 17.55C2.72257 17.5957 2.81334 17.6197 2.90571 17.6197H16.7738C16.8662 17.6197 16.957 17.5957 17.0373 17.55C17.1176 17.5043 17.1846 17.4386 17.2319 17.3592C17.2791 17.2799 17.305 17.1896 17.3069 17.0973C17.3088 17.0049 17.2867 16.9137 17.2427 16.8324ZM8.77299 16.5529V13.3526C8.77299 13.0697 8.88539 12.7983 9.08545 12.5983C9.28551 12.3982 9.55685 12.2858 9.83977 12.2858C10.1227 12.2858 10.394 12.3982 10.5941 12.5983C10.7942 12.7983 10.9066 13.0697 10.9066 13.3526V16.5529H8.77299ZM11.9733 16.5529V13.3526C11.9733 12.7867 11.7485 12.2441 11.3484 11.844C10.9483 11.4438 10.4056 11.219 9.83977 11.219C9.27392 11.219 8.73124 11.4438 8.33112 11.844C7.931 12.2441 7.70622 12.7867 7.70622 13.3526V16.5529H3.80127L9.83977 5.4051L15.8783 16.5529H11.9733Z" fill="#878787"/>
</g>
</g>
</svg>
