<svg width="19" height="19" viewBox="0 0 19 19" fill="none" xmlns="http://www.w3.org/2000/svg">
<g id="Frame 1" clip-path="url(#clip0_617_22344)">
<g id="Group 14">
<path id="Vector" d="M18.8413 7.14676C18.8413 4.91228 17.0103 3.08124 14.7758 3.08124C14.2172 3.08124 13.6896 3.20538 13.162 3.42262C12.4172 2.33642 11.1758 1.68469 9.84131 1.68469C8.50683 1.68469 7.26545 2.33642 6.52062 3.42262C6.02407 3.20538 5.46545 3.08124 4.90683 3.08124C2.67234 3.08124 0.841309 4.91228 0.841309 7.14676C0.841309 9.19504 2.39303 10.9019 4.37924 11.1502V17.0157C4.37924 17.6985 4.93786 18.2571 5.62062 18.2571H14.062C14.7448 18.2571 15.3034 17.6985 15.3034 17.0157V11.1812C17.2896 10.9019 18.8413 9.19504 18.8413 7.14676ZM14.062 17.2019H5.62062C5.52752 17.2019 5.43441 17.1088 5.43441 17.0157V15.9606H14.2482V17.0157C14.2482 17.1088 14.1551 17.2019 14.062 17.2019ZM14.7758 10.1571C14.1241 10.1571 13.5344 9.9709 13.0068 9.56745C12.7585 9.38124 12.4482 9.44331 12.262 9.69159C12.0758 9.93986 12.1379 10.2502 12.3861 10.4364C12.9448 10.8399 13.5965 11.0881 14.2482 11.1812V14.9364H11.7654V12.8261C11.7654 12.5468 11.5172 12.2985 11.2379 12.2985C10.9585 12.2985 10.7103 12.5468 10.7103 12.8261V14.9364H8.94131V12.8261C8.94131 12.5468 8.69303 12.2985 8.41372 12.2985C8.13441 12.2985 7.88614 12.5468 7.88614 12.8261V14.9364H5.40338V11.1502C6.08614 11.0571 6.73786 10.8088 7.32752 10.3743C7.57579 10.1881 7.60683 9.8778 7.42062 9.62952C7.23441 9.38124 6.92407 9.35021 6.67579 9.53642C6.1482 9.93986 5.52752 10.1261 4.87579 10.1261C3.23096 10.1261 1.86545 8.79159 1.86545 7.11573C1.86545 5.43986 3.19993 4.10538 4.87579 4.10538C5.40338 4.10538 5.962 4.26055 6.39648 4.53986C6.52062 4.60193 6.67579 4.63297 6.79993 4.60193C6.9551 4.5709 7.0482 4.4778 7.11027 4.32262C7.63786 3.32952 8.662 2.70883 9.77924 2.70883C10.8965 2.70883 11.9206 3.32952 12.4482 4.32262C12.5103 4.44676 12.6344 4.53986 12.7585 4.60193C12.9137 4.63297 13.0379 4.63297 13.162 4.53986C13.6275 4.26055 14.1551 4.10538 14.6827 4.10538C16.3275 4.10538 17.693 5.43986 17.693 7.11573C17.693 8.79159 16.4206 10.1571 14.7758 10.1571Z" fill="#878787"/>
</g>
</g>
<defs>
<clipPath id="clip0_617_22344">
<rect width="18" height="18" fill="white" transform="translate(0.841309 0.684692)"/>
</clipPath>
</defs>
</svg>
