<svg width="19" height="19" viewBox="0 0 19 19" fill="none" xmlns="http://www.w3.org/2000/svg">
<g id="Frame 1">
<g id="Group 16">
<path id="Vector" d="M15.4808 16.8759H3.32772C2.49002 16.8759 1.80859 16.1944 1.80859 15.3567V3.2037C1.80859 2.366 2.49002 1.68457 3.32772 1.68457H15.4808C16.3184 1.68457 16.9999 2.366 16.9999 3.2037V15.3567C16.9999 16.1944 16.3184 16.8759 15.4808 16.8759ZM3.32772 2.69732C3.0483 2.69732 2.82135 2.92453 2.82135 3.2037V15.3567C2.82135 15.6359 3.0483 15.8631 3.32772 15.8631H15.4808C15.7602 15.8631 15.9871 15.6359 15.9871 15.3567V3.2037C15.9871 2.92453 15.7602 2.69732 15.4808 2.69732H3.32772Z" fill="#878787"/>
<path id="Vector_2" d="M13.3156 8.90146H10.0748C9.93438 8.90146 9.80422 8.82794 9.73025 8.70751C9.65628 8.58686 9.64955 8.43624 9.71246 8.30942L11.3328 5.03669C11.4705 4.75945 11.9199 4.75945 12.0576 5.03669L13.678 8.30942C13.7409 8.43628 13.7342 8.58686 13.6602 8.70751C13.5862 8.82794 13.456 8.90146 13.3156 8.90146ZM10.7303 8.08327H12.6601L11.6952 6.13428L10.7303 8.08327ZM8.45444 13.8105H5.21369C4.98979 13.8105 4.80859 13.6274 4.80859 13.4015V10.1287C4.80859 9.90283 4.98979 9.71964 5.21369 9.71964H8.45444C8.67834 9.71964 8.85954 9.90283 8.85954 10.1287V13.4015C8.85954 13.6274 8.67834 13.8105 8.45444 13.8105ZM5.61878 12.9924H8.04935V10.5378H5.61878V12.9924ZM6.83407 8.90146C5.7173 8.90146 4.80859 7.98378 4.80859 6.856C4.80859 5.72822 5.7173 4.81055 6.83407 4.81055C7.95083 4.81055 8.85954 5.72822 8.85954 6.856C8.85954 7.98378 7.95083 8.90146 6.83407 8.90146ZM6.83407 5.62873C6.16392 5.62873 5.61878 6.17924 5.61878 6.856C5.61878 7.53276 6.16392 8.08327 6.83407 8.08327C7.50421 8.08327 8.04935 7.53276 8.04935 6.856C8.04935 6.17924 7.50421 5.62873 6.83407 5.62873ZM12.7507 13.6883C12.6846 13.6883 12.6182 13.6719 12.558 13.639L11.6952 13.1677L10.8324 13.639C10.6983 13.7125 10.5341 13.7035 10.4083 13.615C10.2829 13.5267 10.2172 13.3745 10.2386 13.2217L10.3723 12.2711L9.69031 11.5298C9.58944 11.4204 9.55581 11.264 9.60248 11.1221C9.64955 10.9803 9.76902 10.8754 9.91461 10.8489L10.8624 10.6753L11.3407 9.80035C11.4832 9.53947 11.9072 9.53947 12.0497 9.80035L12.528 10.6753L13.4758 10.8489C13.6214 10.8754 13.7408 10.9803 13.7879 11.1221C13.8346 11.264 13.801 11.4204 13.7001 11.5298L13.0181 12.2711L13.1518 13.2217C13.1731 13.3745 13.1075 13.5267 12.9821 13.615C12.9129 13.6637 12.8318 13.6883 12.7507 13.6883ZM11.6952 12.2936C11.7617 12.2936 11.8277 12.31 11.8879 12.343L12.2364 12.5333L12.1885 12.193C12.1715 12.0709 12.2099 11.9473 12.293 11.857L12.6027 11.5204L12.194 11.4457C12.0742 11.4237 11.9705 11.3486 11.912 11.2409L11.6952 10.8446L11.4784 11.2409C11.4198 11.3486 11.3162 11.4237 11.1963 11.4457L10.7876 11.5204L11.0974 11.857C11.1804 11.9473 11.2188 12.0709 11.2018 12.193L11.1539 12.5333L11.5025 12.343C11.5626 12.31 11.6287 12.2936 11.6952 12.2936Z" fill="#878787"/>
</g>
</g>
</svg>
