<svg width="19" height="19" viewBox="0 0 19 19" fill="none" xmlns="http://www.w3.org/2000/svg">
<g id="Frame 1" clip-path="url(#clip0_615_21354)">
<g id="Group 7">
<path id="Vector" d="M16.2794 16.7904C15.6549 16.7904 15.1092 16.42 14.8421 15.8594C11.076 16.3272 7.48641 16.3272 3.72022 15.8594C3.45316 16.42 2.90746 16.7904 2.28295 16.7904C1.39239 16.7904 0.667969 16.0258 0.667969 15.0858C0.667969 14.4032 1.04334 13.8149 1.59954 13.5447C1.42765 12.1234 1.34088 10.6825 1.34088 9.25385C1.34088 7.85888 1.4297 6.4187 1.60584 4.96667C1.04598 4.69832 0.667969 4.10896 0.667969 3.42189C0.667969 2.48192 1.39239 1.71729 2.28295 1.71729C2.90751 1.71729 3.45316 2.08765 3.72022 2.64832C7.48221 2.18046 11.0802 2.18046 14.8421 2.64832C15.1092 2.08765 15.6549 1.71729 16.2794 1.71729C17.17 1.71729 17.8944 2.48192 17.8944 3.42189C17.8944 4.10455 17.519 4.69277 16.9628 4.96301C17.1347 6.38425 17.2215 7.82524 17.2215 9.25385C17.2215 10.6488 17.1327 12.089 16.9565 13.541C17.5164 13.8094 17.8944 14.3987 17.8944 15.0858C17.8944 16.0258 17.17 16.7904 16.2794 16.7904ZM15.2201 14.7296C15.4835 14.7296 15.7132 14.9226 15.7521 15.1902C15.7968 15.4935 16.0181 15.7138 16.2794 15.7138C16.5765 15.7138 16.8177 15.4321 16.8177 15.0859C16.8177 14.762 16.5985 14.4892 16.3183 14.465C16.1717 14.4524 16.0366 14.3804 15.9446 14.2655C15.8526 14.1509 15.8116 14.0034 15.8311 13.8576C16.0392 12.2973 16.1449 10.7485 16.1449 9.2539C16.1449 7.71989 16.0419 6.17064 15.8379 4.64976C15.8185 4.50441 15.8589 4.35745 15.9504 4.24284C16.0419 4.12823 16.1759 4.05567 16.3216 4.04226C16.5997 4.01626 16.8179 3.74392 16.8179 3.42195C16.8179 3.07575 16.5766 2.79399 16.2795 2.79399C16.0182 2.79399 15.7969 3.01427 15.7522 3.31762C15.7097 3.60912 15.4405 3.8097 15.1482 3.77342C11.1633 3.24037 7.39925 3.24037 3.41435 3.77342C3.12257 3.81207 2.85287 3.60939 2.81029 3.31762C2.76561 3.01427 2.5443 2.79399 2.283 2.79399C1.98595 2.79399 1.74467 3.07575 1.74467 3.42195C1.74467 3.74581 1.96388 4.01863 2.24408 4.0428C2.39077 4.0554 2.52584 4.12742 2.61784 4.2423C2.70984 4.35691 2.75086 4.50436 2.73137 4.65025C2.5232 6.21053 2.41753 7.75929 2.41753 9.2539C2.41753 10.7879 2.52056 12.3372 2.72454 13.858C2.74397 14.0034 2.70349 14.1504 2.61203 14.265C2.52056 14.3796 2.38652 14.4521 2.24085 14.4655C1.96275 14.4915 1.74457 14.7639 1.74457 15.0859C1.74457 15.4321 1.98584 15.7138 2.28289 15.7138C2.5442 15.7138 2.7655 15.4935 2.81018 15.1902C2.85223 14.8987 3.12037 14.6947 3.41424 14.7344C7.40334 15.2674 11.159 15.2674 15.1481 14.7344C15.1722 14.7312 15.1964 14.7296 15.2201 14.7296Z" fill="#878787"/>
<path id="Vector_2" d="M9.40354 11.8169C8.61237 11.8169 7.82065 11.5157 7.21815 10.913C6.01322 9.70803 6.01322 7.74713 7.21815 6.54171C7.5425 6.21736 7.91841 5.97738 8.33529 5.82885C8.53189 5.7592 8.75324 5.80888 8.8994 5.95816C9.04658 6.10722 9.0939 6.32799 9.02031 6.5241C8.74641 7.25854 8.92777 8.09203 9.48348 8.64769C10.0391 9.20308 10.8713 9.38498 11.6073 9.11033C11.8029 9.03674 12.0242 9.08406 12.1736 9.23151C12.3228 9.37841 12.3728 9.5987 12.3024 9.79583C12.1536 10.2127 11.9139 10.5884 11.5895 10.9127C10.9871 11.5154 10.1953 11.8169 9.40354 11.8169ZM7.82797 7.4722C7.19764 8.26236 7.24814 9.42046 7.97935 10.1517C8.70953 10.8827 9.86876 10.9337 10.6594 10.3026C9.94128 10.2445 9.24996 9.93671 8.72218 9.40888C8.19435 8.88132 7.88632 8.18984 7.82797 7.4722Z" fill="#878787"/>
</g>
</g>
<defs>
<clipPath id="clip0_615_21354">
<rect width="18" height="18" fill="white" transform="translate(0.667969 0.717285)"/>
</clipPath>
</defs>
</svg>
