<svg width="19" height="19" viewBox="0 0 19 19" fill="none" xmlns="http://www.w3.org/2000/svg">
<g id="Frame 1" clip-path="url(#clip0_615_19127)">
<g id="Group 6">
<path id="Vector" d="M13.9492 18.7173H6.51172C5.63287 18.7173 4.91797 18.0024 4.91797 17.1235V7.56104C4.91797 6.09649 6.10967 4.90479 7.57422 4.90479H12.8867C14.3513 4.90479 15.543 6.09649 15.543 7.56104V17.1235C15.543 18.0024 14.8281 18.7173 13.9492 18.7173ZM7.57422 5.96729C6.69537 5.96729 5.98047 6.68219 5.98047 7.56104V17.1235C5.98047 17.4164 6.21884 17.6548 6.51172 17.6548H13.9492C14.2424 17.6548 14.4805 17.4164 14.4805 17.1235V7.56104C14.4805 6.68219 13.7656 5.96729 12.8867 5.96729H7.57422Z" fill="#878787"/>
<path id="Vector_2" d="M12.8867 5.96729H7.57422C7.28086 5.96729 7.04297 5.72939 7.04297 5.43604V2.77979C7.04297 2.19382 7.5195 1.71729 8.10547 1.71729H12.3555C12.9412 1.71729 13.418 2.19382 13.418 2.77979V5.43604C13.418 5.72939 13.1803 5.96729 12.8867 5.96729ZM8.10547 4.90479H12.3555V2.77979H8.10547V4.90479Z" fill="#878787"/>
<path id="Vector_3" d="M10.7617 1.71729H9.69922C9.40582 1.71729 9.16797 1.95513 9.16797 2.24854V3.31104C9.16797 3.60444 9.40582 3.84229 9.69922 3.84229H10.7617C11.0551 3.84229 11.293 3.60444 11.293 3.31104V2.24854C11.293 1.95513 11.0551 1.71729 10.7617 1.71729Z" fill="#878787"/>
<path id="Vector_4" d="M10.2305 12.3423C9.05874 12.3423 8.10547 11.3891 8.10547 10.2173C8.10547 9.18598 9.54617 7.52816 9.83517 7.20622C10.0365 6.98155 10.4245 6.98155 10.6258 7.20622C10.9148 7.52816 12.3555 9.18598 12.3555 10.2173C12.3555 11.3891 11.4025 12.3423 10.2305 12.3423ZM10.2302 8.38389C9.66703 9.08817 9.16797 9.87883 9.16797 10.2173C9.16797 10.8033 9.6445 11.2798 10.2305 11.2798C10.8164 11.2798 11.293 10.8033 11.293 10.2173C11.293 9.88818 10.7949 9.09178 10.2302 8.38389ZM12.3555 14.4673H8.10547C7.81211 14.4673 7.57422 14.2295 7.57422 13.9361C7.57422 13.6427 7.81211 13.4048 8.10547 13.4048H12.3555C12.6491 13.4048 12.8867 13.6427 12.8867 13.9361C12.8867 14.2295 12.6491 14.4673 12.3555 14.4673ZM12.3555 16.5923H8.10547C7.81211 16.5923 7.57422 16.3545 7.57422 16.0611C7.57422 15.7677 7.81211 15.5298 8.10547 15.5298H12.3555C12.6491 15.5298 12.8867 15.7677 12.8867 16.0611C12.8867 16.3545 12.6491 16.5923 12.3555 16.5923Z" fill="#878787"/>
</g>
</g>
<defs>
<clipPath id="clip0_615_19127">
<rect width="18" height="18" fill="white" transform="translate(0.917969 0.717285)"/>
</clipPath>
</defs>
</svg>
