<svg width="19" height="19" viewBox="0 0 19 19" fill="none" xmlns="http://www.w3.org/2000/svg">
<g id="Frame 1" clip-path="url(#clip0_615_18236)">
<g id="Group 3">
<path id="Vector" d="M13.4333 17.6203H5.01433C4.63073 17.6203 4.26276 17.4683 3.99101 17.1975C3.71926 16.9268 3.56588 16.5594 3.56445 16.1758V15.3404C3.56445 13.8394 4.1607 12.4 5.22204 11.3386C6.28337 10.2773 7.72285 9.68103 9.22381 9.68103C10.7248 9.68103 12.1642 10.2773 13.2256 11.3386C14.2869 12.4 14.8832 13.8394 14.8832 15.3404V16.1704C14.8832 16.555 14.7304 16.9237 14.4585 17.1956C14.1866 17.4675 13.8178 17.6203 13.4333 17.6203ZM9.22381 10.5596C7.9563 10.561 6.74111 11.0652 5.84484 11.9614C4.94858 12.8577 4.44443 14.0729 4.443 15.3404V16.1704C4.443 16.3219 4.50319 16.4673 4.61034 16.5744C4.71748 16.6816 4.8628 16.7417 5.01433 16.7417H13.4333C13.5848 16.7417 13.7301 16.6816 13.8373 16.5744C13.9444 16.4673 14.0046 16.3219 14.0046 16.1704V15.3404C14.0032 14.0729 13.499 12.8577 12.6028 11.9614C11.7065 11.0652 10.4913 10.561 9.22381 10.5596Z" fill="white"/>
<path id="Vector_2" d="M9.22394 16.4507C9.14427 16.4511 9.06598 16.4298 8.99758 16.3889C8.92917 16.3481 8.87325 16.2893 8.83587 16.2189L6.08704 11.1147C6.03328 11.0162 6.01952 10.9007 6.04863 10.7923C6.07773 10.6839 6.14747 10.5909 6.24335 10.5326C7.1407 9.98385 8.17211 9.69348 9.22394 9.69348C10.2758 9.69348 11.3072 9.98385 12.2045 10.5326C12.3004 10.5909 12.3702 10.6839 12.3993 10.7923C12.4284 10.9007 12.4146 11.0162 12.3608 11.1147L9.61201 16.2189C9.57463 16.2893 9.51871 16.3481 9.45031 16.3889C9.3819 16.4298 9.30362 16.4511 9.22394 16.4507ZM7.068 11.0608L9.22394 15.0709L11.3799 11.0608C10.7094 10.728 9.97055 10.5562 9.22203 10.559C8.47351 10.5618 7.73597 10.7392 7.068 11.077V11.0608Z" fill="white"/>
<path id="Vector_3" d="M9.22369 16.4507C9.14401 16.4511 9.06573 16.4298 8.99732 16.3889C8.92892 16.3481 8.87299 16.2893 8.83562 16.2189L7.63907 13.9929C7.58804 13.897 7.57459 13.7856 7.60134 13.6803L8.50683 10.0583C8.52987 9.96282 8.58443 9.8779 8.6617 9.81726C8.73896 9.75662 8.83442 9.72381 8.93263 9.72412H9.51474C9.61296 9.72381 9.70841 9.75662 9.78567 9.81726C9.86294 9.8779 9.9175 9.96282 9.94054 10.0583L10.8406 13.6803C10.8674 13.7856 10.8539 13.897 10.8029 13.9929L9.60637 16.2189C9.56942 16.2885 9.51434 16.3467 9.44697 16.3875C9.3796 16.4283 9.30245 16.4502 9.22369 16.4507ZM8.49066 13.7557L9.22369 15.087L9.95671 13.7288L9.22369 10.8075L8.49066 13.7557Z" fill="white"/>
<path id="Vector_4" d="M9.22391 10.4894C8.57044 10.4894 7.93165 10.2957 7.38831 9.93262C6.84498 9.56957 6.4215 9.05356 6.17142 8.44984C5.92135 7.84611 5.85592 7.18179 5.98341 6.54088C6.11089 5.89997 6.42557 5.31126 6.88764 4.84919C7.34971 4.38712 7.93842 4.07244 8.57933 3.94496C9.22024 3.81747 9.88457 3.8829 10.4883 4.13297C11.092 4.38304 11.608 4.80652 11.9711 5.34986C12.3341 5.8932 12.5279 6.53199 12.5279 7.18546C12.5265 8.06129 12.1779 8.90084 11.5586 9.52015C10.9393 10.1395 10.0997 10.488 9.22391 10.4894ZM9.22391 4.77619C8.7442 4.77619 8.27527 4.91844 7.87641 5.18495C7.47755 5.45146 7.16667 5.83026 6.9831 6.27345C6.79952 6.71664 6.75149 7.20432 6.84507 7.67481C6.93866 8.1453 7.16966 8.57747 7.50887 8.91667C7.84807 9.25587 8.28024 9.48687 8.75073 9.58046C9.22122 9.67405 9.70889 9.62602 10.1521 9.44244C10.5953 9.25886 10.9741 8.94799 11.2406 8.54913C11.5071 8.15027 11.6493 7.68133 11.6493 7.20163C11.6479 6.5588 11.3919 5.9427 10.9374 5.48816C10.4828 5.03361 9.86674 4.77761 9.22391 4.77619Z" fill="white"/>
<path id="Vector_5" d="M4.83642 7.7622C4.33753 7.7622 3.84984 7.61426 3.43502 7.33709C3.0202 7.05992 2.6969 6.66596 2.50598 6.20504C2.31506 5.74412 2.2651 5.23694 2.36243 4.74763C2.45976 4.25833 2.7 3.80887 3.05278 3.4561C3.40555 3.10332 3.85501 2.86308 4.34431 2.76575C4.83362 2.66843 5.3408 2.71838 5.80172 2.9093C6.26264 3.10022 6.6566 3.42352 6.93377 3.83834C7.21094 4.25316 7.35888 4.74085 7.35888 5.23974C7.35724 5.34266 7.34823 5.44533 7.33193 5.54696C7.32083 5.63056 7.29336 5.71115 7.25108 5.78412C7.0588 6.05021 6.92306 6.35288 6.85223 6.67345C6.83727 6.74277 6.80584 6.80747 6.7606 6.86209C6.52487 7.14331 6.2305 7.36959 5.89812 7.52508C5.56574 7.68056 5.20337 7.76149 4.83642 7.7622ZM4.83642 3.59044C4.56496 3.59247 4.2982 3.66147 4.05981 3.79133C3.82141 3.92118 3.61876 4.10787 3.46982 4.33483C3.32088 4.5618 3.23027 4.82201 3.20603 5.0924C3.18178 5.36278 3.22465 5.63496 3.33084 5.8848C3.43702 6.13464 3.60323 6.35441 3.81472 6.5246C4.02621 6.6948 4.27644 6.81016 4.54321 6.86045C4.80997 6.91074 5.08503 6.8944 5.34397 6.81289C5.60291 6.73137 5.83772 6.5872 6.02758 6.39317C6.12036 6.034 6.27345 5.69319 6.48033 5.38527C6.48323 5.344 6.48323 5.30257 6.48033 5.2613C6.48318 5.04336 6.4428 4.82701 6.36153 4.62477C6.28026 4.42252 6.15971 4.23839 6.00684 4.08302C5.85398 3.92765 5.67184 3.80412 5.47094 3.71958C5.27004 3.63503 5.05438 3.59114 4.83642 3.59044ZM13.6111 7.7622C13.2442 7.76149 12.8818 7.68056 12.5494 7.52508C12.217 7.36959 11.9227 7.14331 11.6869 6.86209C11.6417 6.80747 11.6103 6.74277 11.5953 6.67345C11.5245 6.35288 11.3887 6.05021 11.1965 5.78412C11.1562 5.72637 11.1303 5.65985 11.121 5.59008C11.1021 5.476 11.0913 5.36073 11.0887 5.24513C11.0887 4.74624 11.2366 4.25855 11.5138 3.84373C11.7909 3.42891 12.1849 3.10561 12.6458 2.91469C13.1067 2.72377 13.6139 2.67381 14.1032 2.77114C14.5925 2.86847 15.042 3.10871 15.3948 3.46149C15.7475 3.81426 15.9878 4.26372 16.0851 4.75303C16.1824 5.24233 16.1325 5.74951 15.9416 6.21043C15.7506 6.67135 15.4273 7.06531 15.0125 7.34248C14.5977 7.61965 14.11 7.76759 13.6111 7.76759V7.7622ZM12.42 6.39317C12.6826 6.6605 13.0299 6.8283 13.4026 6.86788C13.7753 6.90746 14.1501 6.81636 14.4631 6.61016C14.776 6.40396 15.0076 6.09547 15.1182 5.73741C15.2289 5.37936 15.2118 4.99399 15.0697 4.64718C14.9277 4.30037 14.6696 4.01366 14.3396 3.83608C14.0096 3.65849 13.6281 3.60105 13.2605 3.67358C12.8928 3.7461 12.5617 3.9441 12.3239 4.2337C12.086 4.5233 11.9561 4.88654 11.9564 5.2613C11.9535 5.30257 11.9535 5.344 11.9564 5.38527C12.1673 5.69235 12.3241 6.03323 12.42 6.39317Z" fill="white"/>
<path id="Vector_6" d="M4.84192 12.9526H1.77509C1.46439 12.9526 1.16634 12.8296 0.946144 12.6104C0.725945 12.3912 0.601523 12.0937 0.600098 11.783L0.600098 11.174C0.600097 10.0499 1.04626 8.97178 1.84059 8.17643C2.63492 7.38109 3.71246 6.93356 4.83653 6.93213C5.44383 6.93433 6.04338 7.06859 6.59362 7.32559C6.65747 7.35476 6.71334 7.39889 6.7565 7.45425C6.79966 7.50961 6.82884 7.57456 6.84156 7.64359C6.926 8.07834 7.12863 8.4814 7.4272 8.80849C7.72577 9.13559 8.10872 9.37406 8.53397 9.4977C8.5999 9.51773 8.66016 9.55308 8.70981 9.60085C8.75946 9.64863 8.79709 9.70748 8.81964 9.77259L8.85198 9.85343C8.87885 9.92045 8.90224 9.98881 8.92204 10.0582C8.93702 10.1176 8.93936 10.1793 8.92892 10.2396C8.91848 10.2999 8.89549 10.3573 8.86144 10.4081C8.82739 10.4589 8.78305 10.502 8.73128 10.5346C8.67951 10.5672 8.62147 10.5885 8.56092 10.5972C7.8798 10.6939 7.22761 10.9366 6.64899 11.3087C6.07036 11.6808 5.57896 12.1735 5.20843 12.7532C5.16884 12.8144 5.11456 12.8647 5.05054 12.8995C4.98652 12.9343 4.9148 12.9526 4.84192 12.9526ZM4.84192 7.81068C3.94992 7.81068 3.09446 8.16502 2.46373 8.79576C1.83299 9.42649 1.47865 10.282 1.47865 11.174V11.783C1.47865 11.8616 1.50988 11.937 1.56547 11.9926C1.62106 12.0482 1.69647 12.0794 1.77509 12.0794H4.60476C5.30436 11.0892 6.30404 10.3503 7.456 9.97201C6.75534 9.53373 6.24687 8.84614 6.03308 8.04783C5.65266 7.89434 5.24673 7.81389 4.83653 7.81068H4.84192ZM16.6727 12.9526H13.6058C13.533 12.9526 13.4612 12.9343 13.3972 12.8995C13.3332 12.8647 13.2789 12.8144 13.2393 12.7532C12.8688 12.1735 12.3774 11.6808 11.7988 11.3087C11.2201 10.9366 10.568 10.6939 9.88683 10.5972C9.82628 10.5885 9.76825 10.5672 9.71648 10.5346C9.66471 10.502 9.62036 10.4589 9.58631 10.4081C9.55227 10.3573 9.52928 10.2999 9.51884 10.2396C9.5084 10.1793 9.51074 10.1176 9.52571 10.0582C9.54551 9.98881 9.5689 9.92045 9.59578 9.85343L9.62812 9.77259C9.65066 9.70748 9.6883 9.64863 9.73795 9.60085C9.7876 9.55308 9.84785 9.51773 9.91378 9.4977C10.339 9.37406 10.722 9.13559 11.0206 8.80849C11.3191 8.4814 11.5218 8.07834 11.6062 7.64359C11.6189 7.57456 11.6481 7.50961 11.6912 7.45425C11.7344 7.39889 11.7903 7.35476 11.8541 7.32559C12.4044 7.06859 13.0039 6.93433 13.6112 6.93213C14.7353 6.93356 15.8128 7.38109 16.6072 8.17643C17.4015 8.97178 17.8477 10.0499 17.8477 11.174V11.783C17.8462 12.0937 17.7218 12.3912 17.5016 12.6104C17.2814 12.8296 16.9834 12.9526 16.6727 12.9526ZM13.8376 12.0741H16.6727C16.7513 12.0741 16.8267 12.0428 16.8823 11.9872C16.9379 11.9316 16.9691 11.8562 16.9691 11.7776V11.174C16.9691 10.282 16.6148 9.42649 15.984 8.79576C15.3533 8.16502 14.4978 7.81068 13.6058 7.81068C13.196 7.81217 12.7901 7.8908 12.4093 8.04244C12.1955 8.84075 11.687 9.52834 10.9864 9.96662C12.1403 10.3439 13.142 11.0828 13.843 12.0741H13.8376Z" fill="white"/>
</g>
</g>
<defs>
<clipPath id="clip0_615_18236">
<rect width="18" height="18" fill="white" transform="translate(0.600098 0.717285)"/>
</clipPath>
</defs>
</svg>
