<svg width="19" height="19" viewBox="0 0 19 19" fill="none" xmlns="http://www.w3.org/2000/svg">
<g id="Frame 1">
<g id="Group 11">
<path id="Vector" d="M9.64653 1.18469C5.11526 1.18469 1.4292 4.87075 1.4292 9.40202C1.4292 9.4302 1.43037 9.45837 1.43331 9.48948C1.4339 9.5786 1.45484 9.66641 1.49453 9.74621C1.53422 9.82601 1.59162 9.89569 1.66234 9.94993C1.73305 10.0042 1.81523 10.0415 1.90259 10.0592C1.98994 10.0768 2.08018 10.0743 2.16641 10.0518C2.33428 10.0089 2.4728 9.98898 2.6031 9.98898C3.11023 9.98898 3.57862 10.2056 3.92199 10.5982C4.14503 10.853 4.58289 10.853 4.80594 10.5982C5.49267 9.81289 6.75696 9.81289 7.4437 10.5982C7.66674 10.853 8.10461 10.853 8.32765 10.5982C8.52528 10.3764 8.77765 10.2102 9.05958 10.1163V15.565C9.05958 16.6978 9.98109 17.6194 11.1139 17.6194C12.2467 17.6194 13.1682 16.6978 13.1682 15.565V14.6846C13.1682 14.5289 13.1064 14.3796 12.9963 14.2696C12.8863 14.1595 12.737 14.0976 12.5813 14.0976C12.4256 14.0976 12.2763 14.1595 12.1663 14.2696C12.0562 14.3796 11.9943 14.5289 11.9943 14.6846V15.565C11.9943 16.0504 11.5993 16.4454 11.1139 16.4454C10.6285 16.4454 10.2335 16.0504 10.2335 15.565V10.1163C10.507 10.2114 10.7629 10.3664 10.9654 10.5982C11.1885 10.853 11.6263 10.853 11.8494 10.5982C12.5361 9.81289 13.8004 9.81289 14.4871 10.5982C14.5422 10.6613 14.6102 10.7118 14.6864 10.7464C14.7626 10.781 14.8454 10.799 14.9291 10.799C15.0128 10.799 15.0956 10.781 15.1718 10.7464C15.248 10.7118 15.316 10.6613 15.3711 10.5982C15.5338 10.4074 15.736 10.254 15.9637 10.1489C16.1913 10.0437 16.4391 9.98913 16.69 9.98898C16.8203 9.98898 16.9588 10.0089 17.1266 10.0518C17.2963 10.0952 17.4759 10.0418 17.6168 9.94026C17.7582 9.83872 17.848 9.65969 17.8603 9.48596C17.8615 9.47246 17.8639 9.41611 17.8639 9.40202C17.8639 4.87075 14.1778 1.18469 9.64653 1.18469ZM14.9291 9.41318C14.4231 9.02813 13.8057 8.81507 13.1682 8.81507C12.5308 8.81507 11.9133 9.02813 11.4074 9.41318C10.9466 9.06277 10.3843 8.88022 9.81381 8.84911C9.75981 8.83268 9.70581 8.81507 9.64653 8.81507C9.58725 8.81507 9.53325 8.83268 9.47925 8.84911C8.90873 8.88022 8.34643 9.06277 7.88567 9.41318C6.87318 8.64368 5.37645 8.64368 4.36396 9.41318C3.8647 9.03168 3.25546 8.82187 2.62717 8.81507C2.92651 5.20532 5.96047 2.3586 9.64653 2.3586C13.3326 2.3586 16.3665 5.20473 16.6653 8.81507C16.0372 8.82187 15.4281 9.03169 14.9291 9.41318Z" fill="white"/>
</g>
</g>
</svg>
