<svg width="19" height="19" viewBox="0 0 19 19" fill="none" xmlns="http://www.w3.org/2000/svg">
<g id="Frame 1" clip-path="url(#clip0_615_217)">
<g id="Group 5">
<path id="Vector" d="M5.25495 12.1145C5.45652 12.484 5.75886 12.7863 6.12839 13.0215C6.6659 13.3238 7.00184 13.9285 7.00184 14.5332V18.3293C7.00184 18.5309 7.13621 18.6653 7.33778 18.6653H13.3847C13.5862 18.6653 13.7206 18.5309 13.7206 18.3293V14.0629C13.7206 13.5254 13.9222 12.9879 14.2917 12.5848C14.7956 12.0473 15.0644 11.3754 15.0644 10.6363V5.46286C15.0644 4.72379 14.4597 4.1191 13.7206 4.1191C13.4855 4.1191 13.2503 4.18629 13.0487 4.32067V4.1527C13.0487 3.41363 12.4441 2.80894 11.705 2.80894C11.4362 2.80894 11.2347 2.87613 10.9995 3.0105C10.9323 2.33863 10.3612 1.83472 9.68935 1.83472C8.95028 1.83472 8.34559 2.43941 8.34559 3.17847V3.34644C8.14403 3.24566 7.90887 3.14488 7.67371 3.14488C6.93465 3.14488 6.32996 3.74957 6.32996 4.48864V8.18397L5.75886 7.31053C5.5237 6.97459 5.18776 6.73943 4.78464 6.70584C4.38151 6.63865 3.97838 6.77302 3.67604 7.04177C3.20572 7.4449 3.07135 8.11678 3.3401 8.68788L5.25495 12.1145ZM4.07917 7.51209C4.24713 7.37771 4.4487 7.31053 4.65026 7.34412C4.85183 7.37771 5.05339 7.4785 5.15417 7.64646L6.36355 9.46054C6.36355 9.46054 6.36355 9.46054 6.39715 9.49413C6.39715 9.52772 6.43074 9.52772 6.43074 9.52772C6.43074 9.52772 6.46433 9.56132 6.49793 9.56132C6.53152 9.56132 6.53152 9.59491 6.56511 9.59491C6.59871 9.59491 6.59871 9.59491 6.6323 9.59491H6.6659H6.69949C6.73308 9.59491 6.73308 9.59491 6.76668 9.59491C6.80027 9.59491 6.80027 9.59491 6.83387 9.56132H6.86746C6.86746 9.56132 6.86746 9.56132 6.90105 9.52772C6.93465 9.52772 6.93465 9.49413 6.93465 9.49413C6.93465 9.49413 6.96824 9.46054 6.96824 9.42694C6.96824 9.39335 7.00184 9.39335 7.00184 9.35975C7.00184 9.32616 7.00184 9.32616 7.00184 9.29257V9.25897V4.45504C7.00184 4.08551 7.30418 3.78316 7.67371 3.78316C8.04325 3.78316 8.34559 4.08551 8.34559 4.45504V8.58709C8.34559 8.78866 8.47997 8.92303 8.68153 8.92303C8.8831 8.92303 9.01747 8.78866 9.01747 8.58709V4.45504V3.14488C9.01747 2.77535 9.31982 2.473 9.68935 2.473C10.0589 2.473 10.3612 2.77535 10.3612 3.14488V4.1191V8.58709C10.3612 8.78866 10.4956 8.92303 10.6972 8.92303C10.8987 8.92303 11.0331 8.78866 11.0331 8.58709V4.1191C11.0331 3.74957 11.3355 3.44723 11.705 3.44723C12.0745 3.44723 12.3769 3.74957 12.3769 4.1191V5.42927V8.58709C12.3769 8.78866 12.5112 8.92303 12.7128 8.92303C12.9144 8.92303 13.0487 8.78866 13.0487 8.58709V5.42927C13.0487 5.05973 13.3511 4.75739 13.7206 4.75739C14.0902 4.75739 14.3925 5.05973 14.3925 5.42927V10.6363C14.3925 11.1738 14.1909 11.7113 13.8214 12.1145C13.3175 12.652 13.0487 13.3238 13.0487 14.0629V17.9934H7.67371V14.5332C7.67371 13.6934 7.2034 12.8871 6.49793 12.4504C6.22918 12.2824 5.99402 12.0809 5.85964 11.8121L3.94479 8.38553C3.77682 8.08319 3.84401 7.74725 4.07917 7.51209Z" fill="#878787"/>
<path id="Vector (Stroke)" fill-rule="evenodd" clip-rule="evenodd" d="M8.26074 3.17848C8.26074 2.39262 8.90337 1.75 9.68922 1.75C10.3619 1.75 10.9407 2.22517 11.0658 2.87862C11.2685 2.77684 11.4611 2.72422 11.7049 2.72422C12.4907 2.72422 13.1333 3.36685 13.1333 4.1527V4.17338C13.3169 4.08063 13.5189 4.03439 13.7205 4.03439C14.5064 4.03439 15.149 4.67701 15.149 5.46287V10.6363C15.149 11.397 14.872 12.0894 14.3537 12.6424C13.9991 13.0294 13.8052 13.5462 13.8052 14.0629V18.3293C13.8052 18.4494 13.7648 18.556 13.688 18.6328C13.6112 18.7096 13.5046 18.75 13.3846 18.75H7.33765C7.21761 18.75 7.111 18.7096 7.03418 18.6328C6.95737 18.556 6.91699 18.4494 6.91699 18.3293V14.5332C6.91699 13.9578 6.59642 13.382 6.08673 13.0953L6.08271 13.0931C5.70323 12.8516 5.39015 12.5393 5.18067 12.1554C5.18059 12.1553 5.18074 12.1556 5.18067 12.1554L3.26313 8.72405C2.97892 8.1201 3.12023 7.40695 3.6202 6.97795C3.93878 6.69504 4.36552 6.55126 4.79501 6.6217C5.22737 6.65892 5.58285 6.91153 5.82814 7.26195L5.82968 7.26414L6.24511 7.89958V4.48864C6.24511 3.70278 6.88773 3.06016 7.67359 3.06016C7.88063 3.06016 8.08379 3.1313 8.26074 3.21186V3.17848ZM9.68922 1.91945C8.99695 1.91945 8.43019 2.48621 8.43019 3.17848V3.48353L8.30758 3.42223C8.10668 3.32178 7.88716 3.22961 7.67359 3.22961C6.98131 3.22961 6.41455 3.79637 6.41455 4.48864V8.46837L5.68857 7.35803C5.46425 7.0381 5.14939 6.82126 4.77748 6.79027L4.77054 6.78969C4.39519 6.72714 4.0174 6.85159 3.7322 7.1051L3.73106 7.10612C3.29159 7.48281 3.16386 8.11173 3.41539 8.64917L5.32921 12.0739C5.52251 12.4283 5.81328 12.7202 6.17185 12.9488C6.73597 13.2672 7.08643 13.9 7.08643 14.5332V18.3293C7.08643 18.4109 7.11324 18.4722 7.154 18.513C7.19476 18.5537 7.25612 18.5806 7.33765 18.5806H13.3846C13.4661 18.5806 13.5274 18.5537 13.5682 18.513C13.609 18.4722 13.6358 18.4109 13.6358 18.3293V14.0629C13.6358 13.5048 13.8449 12.9467 14.2291 12.5275L14.2298 12.5268C14.7191 12.0049 14.9795 11.3537 14.9795 10.6363V5.46287C14.9795 4.77059 14.4128 4.20383 13.7205 4.20383C13.5014 4.20383 13.2827 4.26646 13.0956 4.39117L12.9639 4.47898V4.1527C12.9639 3.46043 12.3971 2.89367 11.7049 2.89367C11.454 2.89367 11.2668 2.95527 11.0414 3.08407L10.9281 3.14884L10.9151 3.01894C10.8523 2.39139 10.3186 1.91945 9.68922 1.91945ZM9.68922 2.55773C9.36648 2.55773 9.10207 2.82214 9.10207 3.14489V8.5871C9.10207 8.70714 9.06169 8.81375 8.98487 8.89057C8.90805 8.96738 8.80144 9.00776 8.68141 9.00776C8.56137 9.00776 8.45476 8.96738 8.37794 8.89057C8.30112 8.81375 8.26074 8.70714 8.26074 8.5871V4.45505C8.26074 4.13231 7.99633 3.86789 7.67359 3.86789C7.35085 3.86789 7.08643 4.13231 7.08643 4.45505V9.35937C7.08643 9.38345 7.07999 9.40516 7.06911 9.4233C7.06327 9.43302 7.05648 9.44106 7.05145 9.44649C7.04675 9.47964 7.03124 9.506 7.02181 9.52014C7.0187 9.52481 7.01561 9.52908 7.01271 9.53286C7.01103 9.53789 7.00888 9.54327 7.0061 9.54882C6.99898 9.56307 6.98696 9.5799 6.96734 9.59298C6.95971 9.59807 6.95166 9.60209 6.94334 9.60514L6.92776 9.62071L6.92715 9.62133C6.91417 9.62404 6.90165 9.62509 6.89046 9.62442C6.88369 9.63118 6.87677 9.63805 6.87047 9.64372C6.863 9.65045 6.85221 9.65941 6.83804 9.6665C6.81061 9.68021 6.78227 9.67984 6.76968 9.67967C6.76849 9.67966 6.76744 9.67964 6.76655 9.67964H6.56538C6.5413 9.67964 6.51959 9.6732 6.50145 9.66232C6.49173 9.65648 6.48369 9.64969 6.47826 9.64466C6.44511 9.63995 6.41875 9.62445 6.40461 9.61502C6.39994 9.61191 6.39567 9.60882 6.39189 9.60592C6.388 9.60462 6.38389 9.60303 6.37965 9.6011L6.3683 9.6206L5.08131 7.69011C4.9979 7.55109 4.82374 7.45895 4.63621 7.4277C4.46451 7.39908 4.28808 7.45473 4.13565 7.57533C3.92732 7.78612 3.87167 8.0796 4.01867 8.3443C4.01866 8.34427 4.01869 8.34433 4.01867 8.3443L5.93537 11.7742C6.05966 12.0228 6.27962 12.2141 6.54255 12.3785C7.27181 12.83 7.75831 13.6629 7.75831 14.5332V17.9087H12.9639V14.0629C12.9639 13.3023 13.2409 12.6099 13.7591 12.0569C14.1137 11.6698 14.3076 11.1531 14.3076 10.6363V5.42927C14.3076 5.10653 14.0432 4.84212 13.7205 4.84212C13.3978 4.84212 13.1333 5.10653 13.1333 5.42927V8.5871C13.1333 8.70714 13.093 8.81375 13.0161 8.89057C12.9393 8.96738 12.8327 9.00776 12.7127 9.00776C12.5926 9.00776 12.486 8.96738 12.4092 8.89057C12.3324 8.81375 12.292 8.70714 12.292 8.5871V4.11911C12.292 3.79637 12.0276 3.53195 11.7049 3.53195C11.3821 3.53195 11.1177 3.79637 11.1177 4.11911V8.5871C11.1177 8.70714 11.0773 8.81375 11.0005 8.89057C10.9237 8.96738 10.8171 9.00776 10.697 9.00776C10.577 9.00776 10.4704 8.96738 10.3936 8.89057C10.3168 8.81375 10.2764 8.70714 10.2764 8.5871V3.14489C10.2764 2.82214 10.012 2.55773 9.68922 2.55773ZM6.48985 9.46716L6.49152 9.46865C6.49328 9.47016 6.49579 9.47216 6.4986 9.47403C6.50046 9.47527 6.50198 9.47614 6.50308 9.47671C6.52501 9.47757 6.54454 9.48385 6.56134 9.49392C6.57019 9.49924 6.57765 9.50534 6.58301 9.5102H6.76424L6.77383 9.50142L6.79865 9.4766H6.83224L6.87402 9.43483C6.87392 9.43493 6.87393 9.43493 6.87402 9.43483L6.87544 9.43323C6.87695 9.43147 6.87895 9.42896 6.88083 9.42614C6.88206 9.42429 6.88293 9.42277 6.8835 9.42167C6.88437 9.39974 6.89064 9.38021 6.90071 9.36341C6.90603 9.35456 6.91213 9.3471 6.91699 9.34174V4.45505C6.91699 4.03872 7.25726 3.69845 7.67359 3.69845C8.08991 3.69845 8.43019 4.03872 8.43019 4.45505V8.5871C8.43019 8.66863 8.457 8.72999 8.49776 8.77075C8.53852 8.81151 8.59988 8.83832 8.68141 8.83832C8.76293 8.83832 8.82429 8.81151 8.86505 8.77075C8.90582 8.72999 8.93262 8.66863 8.93262 8.5871V3.14489C8.93262 2.72856 9.2729 2.38828 9.68922 2.38828C10.1055 2.38828 10.4458 2.72856 10.4458 3.14489V8.5871C10.4458 8.66863 10.4726 8.72999 10.5134 8.77075C10.5542 8.81151 10.6155 8.83832 10.697 8.83832C10.7786 8.83832 10.8399 8.81151 10.8807 8.77075C10.9215 8.72999 10.9483 8.66863 10.9483 8.5871V4.11911C10.9483 3.70279 11.2885 3.36251 11.7049 3.36251C12.1212 3.36251 12.4615 3.70279 12.4615 4.11911V8.5871C12.4615 8.66863 12.4883 8.72999 12.529 8.77075C12.5698 8.81151 12.6311 8.83832 12.7127 8.83832C12.7942 8.83832 12.8556 8.81151 12.8963 8.77075C12.9371 8.72999 12.9639 8.66863 12.9639 8.5871V5.42927C12.9639 5.01295 13.3042 4.67267 13.7205 4.67267C14.1368 4.67267 14.4771 5.01295 14.4771 5.42927V10.6363C14.4771 11.1944 14.268 11.7525 13.8837 12.1717L13.8831 12.1724C13.3938 12.6944 13.1333 13.3456 13.1333 14.0629V18.0781H7.58886V14.5332C7.58886 13.724 7.1348 12.9444 6.45321 12.5224C6.17926 12.3512 5.92921 12.1398 5.78462 11.8518L3.8707 8.42687C3.68261 8.08829 3.75987 7.71145 4.01913 7.45219L4.02579 7.44553C4.20845 7.2994 4.43402 7.22221 4.66406 7.26055C4.879 7.29638 5.10715 7.4053 5.22561 7.60109L6.42927 9.40657L6.48985 9.46716Z" fill="#878787"/>
<path id="Vector_2" d="M9.51154 11.7837C10.1852 11.7837 10.7364 11.2608 10.7364 10.6218C10.7364 9.9827 10.1852 9.45984 9.51154 9.45984C8.83783 9.45984 8.28662 9.9827 8.28662 10.6218C8.28662 11.2608 8.83783 11.7837 9.51154 11.7837ZM9.51154 10.0408C9.84839 10.0408 10.124 10.3022 10.124 10.6218C10.124 10.9413 9.84839 11.2027 9.51154 11.2027C9.17468 11.2027 8.89908 10.9413 8.89908 10.6218C8.89908 10.3022 9.17468 10.0408 9.51154 10.0408ZM9.66465 12.6842C9.14406 12.6842 8.68472 13.0908 8.68472 13.6137C8.68472 14.1366 9.11344 14.5432 9.66465 14.5432C10.2159 14.5432 10.6446 14.1366 10.6446 13.6137C10.6446 13.0908 10.2159 12.6842 9.66465 12.6842ZM9.66465 13.9623C9.48091 13.9623 9.29718 13.817 9.29718 13.6137C9.29718 13.4394 9.45029 13.2651 9.66465 13.2651C9.84839 13.2651 10.0321 13.4104 10.0321 13.6137C10.0321 13.788 9.87901 13.9623 9.66465 13.9623ZM12.3901 11.7837C12.9107 11.7837 13.37 11.377 13.37 10.8541C13.37 10.3313 12.9413 9.92461 12.3901 9.92461C11.8389 9.92461 11.4408 10.3313 11.4408 10.8541C11.4408 11.377 11.8695 11.7837 12.3901 11.7837ZM12.3901 10.5056C12.5738 10.5056 12.7576 10.6508 12.7576 10.8541C12.7576 11.0284 12.6044 11.2027 12.3901 11.2027C12.2063 11.2027 12.0226 11.0575 12.0226 10.8541C12.0532 10.6508 12.2063 10.5056 12.3901 10.5056Z" fill="#878787"/>
</g>
</g>
<defs>
<clipPath id="clip0_615_217">
<rect width="18" height="18" fill="white" transform="translate(0.118164 0.75)"/>
</clipPath>
</defs>
</svg>
