<svg width="19" height="19" viewBox="0 0 19 19" fill="none" xmlns="http://www.w3.org/2000/svg">
<g id="Frame 1" clip-path="url(#clip0_617_16587)">
<g id="Group 12">
<path id="Vector" d="M5.60463 18.6194C4.43714 18.6194 3.48779 17.67 3.48779 16.5025V11.7397C3.48779 11.4472 3.72451 11.2104 4.017 11.2104H7.19225C7.48474 11.2104 7.72146 11.4472 7.72146 11.7397V16.5025C7.72146 17.67 6.77211 18.6194 5.60463 18.6194ZM4.54621 12.2689V16.5025C4.54621 17.086 5.02117 17.5609 5.60463 17.5609C6.18808 17.5609 6.66304 17.086 6.66304 16.5025V12.2689H4.54621ZM14.072 18.6194C12.9045 18.6194 11.9551 17.67 11.9551 16.5025V11.7397C11.9551 11.4472 12.1918 11.2104 12.4843 11.2104H15.6596C15.9521 11.2104 16.1888 11.4472 16.1888 11.7397V16.5025C16.1888 17.67 15.2394 18.6194 14.072 18.6194ZM13.0135 12.2689V16.5025C13.0135 17.086 13.4885 17.5609 14.072 17.5609C14.6554 17.5609 15.1304 17.086 15.1304 16.5025V12.2689H13.0135Z" fill="#878787"/>
<path id="Vector_2" d="M6.66286 12.2689H4.54603C4.25354 12.2689 4.01682 12.0321 4.01682 11.7396V8.8171C4.01682 8.68479 3.94914 8.55561 3.83028 8.46205C2.95274 7.77059 2.4292 6.62173 2.4292 5.38915C2.4292 3.34672 3.85351 1.68469 5.60445 1.68469C7.35539 1.68469 8.7797 3.34672 8.7797 5.38915C8.7797 6.62173 8.25615 7.77059 7.37862 8.46205C7.25976 8.55561 7.19207 8.68479 7.19207 8.8171V11.7396C7.19207 12.0321 6.95536 12.2689 6.66286 12.2689ZM5.07524 11.2104H6.13366V8.8171C6.13366 8.3587 6.34862 7.92612 6.72335 7.63103C7.34819 7.1385 7.72128 6.30029 7.72128 5.38915C7.72128 3.93023 6.77193 2.74311 5.60445 2.74311C4.43696 2.74311 3.48762 3.93023 3.48762 5.38915C3.48762 6.30029 3.86076 7.13855 4.48554 7.63103C4.86022 7.92612 5.07524 8.3587 5.07524 8.8171V11.2104ZM15.1302 12.2689H13.0134C12.7209 12.2689 12.4842 12.0321 12.4842 11.7396V8.54164C11.5859 8.40161 10.8965 7.62278 10.8965 6.68582V5.91836C10.8965 5.62586 11.1332 5.38915 11.4257 5.38915H16.7178C17.0103 5.38915 17.247 5.62586 17.247 5.91836V6.68582C17.247 7.62278 16.5576 8.40161 15.6594 8.54164V11.7396C15.6594 12.0321 15.4227 12.2689 15.1302 12.2689ZM13.5426 11.2104H14.601V8.27344C14.601 7.85018 14.9452 7.50598 15.3684 7.50598C15.8207 7.50598 16.1886 7.13802 16.1886 6.68582V6.44757H11.9549V6.68582C11.9549 7.13802 12.3229 7.50598 12.7751 7.50598C13.1984 7.50598 13.5426 7.85018 13.5426 8.27344V11.2104Z" fill="#878787"/>
<path id="Vector_3" d="M14.0717 6.44757C13.7792 6.44757 13.5425 6.21085 13.5425 5.91836V2.2139C13.5425 1.92141 13.7792 1.68469 14.0717 1.68469C14.3642 1.68469 14.6009 1.92141 14.6009 2.2139V5.91836C14.6009 6.21085 14.3642 6.44757 14.0717 6.44757ZM16.7178 6.44757C16.4253 6.44757 16.1886 6.21085 16.1886 5.91836V2.2139C16.1886 1.92141 16.4253 1.68469 16.7178 1.68469C17.0103 1.68469 17.247 1.92141 17.247 2.2139V5.91836C17.247 6.21085 17.0103 6.44757 16.7178 6.44757ZM11.4257 6.44757C11.1332 6.44757 10.8965 6.21085 10.8965 5.91836V2.2139C10.8965 1.92141 11.1332 1.68469 11.4257 1.68469C11.7182 1.68469 11.9549 1.92141 11.9549 2.2139V5.91836C11.9549 6.21085 11.7182 6.44757 11.4257 6.44757Z" fill="#878787"/>
</g>
</g>
<defs>
<clipPath id="clip0_617_16587">
<rect width="18" height="18" fill="white" transform="translate(0.429199 0.684692)"/>
</clipPath>
</defs>
</svg>
