<svg width="18" height="19" viewBox="0 0 18 19" fill="none" xmlns="http://www.w3.org/2000/svg">
<g id="Frame 1">
<g id="Group 8">
<path id="Vector (Stroke)" fill-rule="evenodd" clip-rule="evenodd" d="M0.0353162 14.231C0.130047 14.0099 0.386041 13.9075 0.607095 14.0022C3.32901 15.1687 6.04157 15.7485 8.74887 15.7485C11.4562 15.7485 14.1687 15.1687 16.8906 14.0022C17.1117 13.9075 17.3677 14.0099 17.4624 14.231C17.5572 14.452 17.4548 14.708 17.2337 14.8027C14.413 16.0115 11.5842 16.6194 8.74887 16.6194C5.91357 16.6194 3.08472 16.0115 0.264045 14.8027C0.0429909 14.708 -0.0594145 14.452 0.0353162 14.231Z" fill="#878787"/>
<path id="Vector (Stroke)_2" fill-rule="evenodd" clip-rule="evenodd" d="M0.59375 3.12015C0.59375 2.87965 0.788711 2.68469 1.02921 2.68469C2.78054 2.68469 4.26214 3.09753 5.442 3.95568C6.54855 4.76051 7.35427 5.93127 7.87604 7.43515H11.7177C13.27 7.43515 14.5284 8.69362 14.5284 10.2458V15.4476C14.5284 15.6881 14.3335 15.883 14.093 15.883C13.8525 15.883 13.6575 15.6881 13.6575 15.4476V10.2458C13.6575 9.17461 12.789 8.30607 11.7177 8.30607H7.56109C7.37064 8.30607 7.20228 8.1823 7.14546 8.00053C6.67182 6.48527 5.92651 5.38499 4.92972 4.66C4.02377 4.00108 2.87682 3.62797 1.46467 3.56513V9.21657H2.03645L3.69033 7.56269C3.81487 7.43815 4.00217 7.4009 4.16489 7.4683C4.32761 7.5357 4.4337 7.69448 4.4337 7.87061V15.5901C4.4337 15.8306 4.23874 16.0256 3.99824 16.0256C3.75775 16.0256 3.56279 15.8306 3.56279 15.5901V8.9219L2.52474 9.95995C2.44307 10.0416 2.33231 10.0875 2.21682 10.0875H1.02921C0.788711 10.0875 0.59375 9.89253 0.59375 9.65203V3.12015Z" fill="#878787"/>
<path id="Vector (Stroke)_3" fill-rule="evenodd" clip-rule="evenodd" d="M6.21516 12.9194V15.9565C6.21516 16.197 6.02019 16.392 5.7797 16.392C5.5392 16.392 5.34424 16.197 5.34424 15.9565V12.6217C5.34424 12.4453 5.45069 12.2863 5.61381 12.2191C7.77386 11.3291 10.0778 11.4424 12.4455 12.2073C12.6252 12.2654 12.747 12.4328 12.747 12.6217V15.8568C12.747 16.0973 12.5521 16.2922 12.3116 16.2922C12.0711 16.2922 11.8761 16.0973 11.8761 15.8568V12.9423C9.85948 12.3398 7.96911 12.2758 6.21516 12.9194Z" fill="#878787"/>
<path id="Vector (Stroke)_4" fill-rule="evenodd" clip-rule="evenodd" d="M2.8106 5.81206C2.65756 5.81206 2.53349 5.93612 2.53349 6.08917C2.53349 6.24221 2.65756 6.36628 2.8106 6.36628C2.96365 6.36628 3.08771 6.24221 3.08771 6.08917C3.08771 5.93612 2.96365 5.81206 2.8106 5.81206ZM3.40441 6.08917C3.40441 6.41712 3.13855 6.68298 2.8106 6.68298C2.48265 6.68298 2.2168 6.41712 2.2168 6.08917C2.2168 5.76122 2.48265 5.49536 2.8106 5.49536C3.13855 5.49536 3.40441 5.76122 3.40441 6.08917Z" fill="#878787"/>
<path id="Vector (Stroke)_5" fill-rule="evenodd" clip-rule="evenodd" d="M12.4702 7.87057C12.4702 6.64613 13.4627 5.65369 14.6871 5.65369C15.9116 5.65369 16.904 6.64613 16.904 7.87057V8.46437C16.904 8.70487 16.709 8.89983 16.4685 8.89983C16.228 8.89983 16.0331 8.70487 16.0331 8.46437V7.87057C16.0331 7.12713 15.4306 6.5246 14.6871 6.5246C13.9437 6.5246 13.3412 7.12713 13.3412 7.87057C13.3412 9.46959 11.9 10.6813 10.2336 10.6813C8.5671 10.6813 7.12598 9.46959 7.12598 7.87057C7.12598 7.63007 7.32094 7.43511 7.56144 7.43511C7.80193 7.43511 7.99689 7.63007 7.99689 7.87057C7.99689 8.89498 8.94881 9.81034 10.2336 9.81034C11.5183 9.81034 12.4702 8.89498 12.4702 7.87057Z" fill="#878787"/>
</g>
</g>
</svg>
