<svg width="18" height="19" viewBox="0 0 18 19" fill="none" xmlns="http://www.w3.org/2000/svg">
<g id="Frame 1">
<g id="Group 1">
<path id="Vector" d="M4.35427 5.68831C4.37621 5.65907 4.39816 5.62982 4.42011 5.60203L4.32793 5.72049C4.66593 5.28467 5.05661 4.89272 5.49118 4.55489L5.37266 4.64702C5.81162 4.30919 6.29302 4.02693 6.80368 3.81048C6.75686 3.82949 6.71003 3.84997 6.66321 3.86898C7.18704 3.64961 7.73721 3.50043 8.30055 3.42438C8.24933 3.43169 8.19666 3.43901 8.14544 3.44486C8.71171 3.37027 9.28529 3.37027 9.85155 3.44486C9.80034 3.43754 9.74766 3.43023 9.69645 3.42438C10.2583 3.50043 10.8085 3.64961 11.3309 3.86898C11.284 3.84997 11.2372 3.82949 11.1904 3.81048C11.701 4.02547 12.181 4.30626 12.6199 4.6441L12.5014 4.55196C12.936 4.88833 13.3281 5.28028 13.6647 5.71464L13.5725 5.59618C13.9105 6.03492 14.1914 6.51462 14.4065 7.02503C14.3875 6.97823 14.367 6.93143 14.348 6.88463C14.5675 7.40674 14.7167 7.95663 14.7928 8.51823C14.7855 8.46704 14.7782 8.41439 14.7723 8.36321C14.8089 8.64693 14.8279 8.93065 14.8294 9.2173C14.8294 9.52296 15.0986 9.81692 15.4147 9.8023C15.7307 9.78767 16 9.5449 16 9.2173C15.9985 8.09703 15.7263 6.99139 15.2142 5.99544C14.7182 5.03019 13.988 4.20974 13.1204 3.56332C12.2819 2.93884 11.2767 2.50886 10.2466 2.3319C9.04386 2.12569 7.79135 2.20759 6.64126 2.62733C5.49996 3.04414 4.46108 3.74174 3.6768 4.67189C3.56121 4.80936 3.45 4.95268 3.34172 5.09747C3.25686 5.21154 3.24662 5.41775 3.2832 5.54792C3.32124 5.68393 3.42513 5.83018 3.55243 5.89745C3.6885 5.96911 3.85238 6.00567 4.0031 5.95595C4.04992 5.93694 4.09674 5.91646 4.14356 5.89745C4.23282 5.84626 4.30159 5.77606 4.35427 5.68831Z" fill="#878787"/>
<path id="Vector_2" d="M6.33696 4.90586H3.64758L4.23286 5.49086V2.8028C4.23286 2.49714 3.96363 2.20318 3.64758 2.21781C3.33006 2.23243 3.06229 2.47521 3.06229 2.8028V5.49086C3.06229 5.80676 3.33006 6.07585 3.64758 6.07585H6.33696C6.64277 6.07585 6.93687 5.80676 6.92224 5.49086C6.90761 5.1735 6.66472 4.90586 6.33696 4.90586ZM13.6457 12.7463C13.6237 12.7755 13.6018 12.8048 13.5798 12.8326L13.672 12.7141C13.3355 13.1499 12.9434 13.5419 12.5088 13.8797L12.6273 13.7876C12.1883 14.1254 11.7069 14.4077 11.1963 14.6241C11.2431 14.6051 11.2899 14.5846 11.3367 14.5656C10.8129 14.785 10.2628 14.9341 9.69941 15.0102C9.75063 15.0029 9.8033 14.9956 9.85452 14.9897C9.28825 15.0643 8.71467 15.0643 8.14841 14.9897C8.19962 14.997 8.2523 15.0043 8.30351 15.0102C7.74164 14.9341 7.19147 14.785 6.66911 14.5656C6.71593 14.5846 6.76275 14.6051 6.80957 14.6241C6.29891 14.4091 5.81898 14.1283 5.38002 13.7905L5.49854 13.8826C5.06396 13.5462 4.67182 13.1543 4.33528 12.7199L4.42747 12.8384C4.08946 12.3997 3.80853 11.92 3.59344 11.4095C3.61246 11.4563 3.63294 11.5031 3.65196 11.5499C3.43248 11.0278 3.28324 10.4779 3.20715 9.91635C3.21446 9.96754 3.22178 10.0202 3.22763 10.0714C3.19105 9.78765 3.17203 9.50393 3.17057 9.21728C3.17057 8.91162 2.90134 8.61766 2.58528 8.63228C2.26923 8.64691 2 8.88968 2 9.21728C2.00146 10.3375 2.27362 11.4432 2.78574 12.4391C3.28177 13.4044 4.01191 14.2248 4.8796 14.8713C5.71802 15.4957 6.72324 15.9257 7.75334 16.1027C8.9561 16.3089 10.2086 16.227 11.3587 15.8073C12.5 15.3904 13.5389 14.6928 14.3232 13.7627C14.4388 13.6252 14.55 13.4819 14.6582 13.3371C14.7431 13.223 14.7533 13.0168 14.7168 12.8867C14.6787 12.7507 14.5748 12.6044 14.4475 12.5371C14.3115 12.4655 14.1476 12.4289 13.9969 12.4786C13.95 12.4976 13.9032 12.5181 13.8564 12.5371C13.7671 12.5883 13.6984 12.6585 13.6457 12.7463Z" fill="#878787"/>
<path id="Vector_3" d="M11.663 13.5286H14.3523L13.7671 12.9436V15.6317C13.7671 15.9374 14.0363 16.2313 14.3523 16.2167C14.6699 16.2021 14.9376 15.9593 14.9376 15.6317V12.9436C14.9376 12.6277 14.6699 12.3586 14.3523 12.3586H11.663C11.3571 12.3586 11.063 12.6277 11.0777 12.9436C11.0923 13.261 11.3352 13.5286 11.663 13.5286Z" fill="#878787"/>
</g>
</g>
</svg>
