<svg width="19" height="19" viewBox="0 0 19 19" fill="none" xmlns="http://www.w3.org/2000/svg">
<g id="Frame 1" clip-path="url(#clip0_615_21301)">
<g id="Group 4">
<path id="Vector (Stroke)" fill-rule="evenodd" clip-rule="evenodd" d="M1.43313 2.8536C1.5025 2.68015 1.67049 2.56641 1.85731 2.56641H17.0387C17.2255 2.56641 17.3935 2.68015 17.4629 2.8536C18.3496 5.07082 18.3496 7.30125 17.4629 9.51847C17.3935 9.69192 17.2255 9.80566 17.0387 9.80566C14.8455 9.80566 13.0676 11.5836 13.0676 13.7767V15.0418C13.0676 15.2287 12.9539 15.3966 12.7804 15.466C10.5632 16.3528 8.33278 16.3528 6.11557 15.466C5.94211 15.3966 5.82837 15.2287 5.82837 15.0418V13.7767C5.82837 11.5836 4.05047 9.80566 1.85731 9.80566C1.67049 9.80566 1.5025 9.69192 1.43313 9.51847C0.546378 7.30125 0.546378 5.07082 1.43313 2.8536ZM2.17209 3.48009C1.51707 5.2904 1.5183 7.09185 2.1758 8.9022C4.72512 9.06627 6.74205 11.186 6.74205 13.7767V14.7271C8.54896 15.3808 10.347 15.3808 12.1539 14.7271V13.7767C12.1539 11.186 14.1709 9.06627 16.7202 8.9022C17.3777 7.09185 17.3789 5.2904 16.7239 3.48009H2.17209Z" fill="white"/>
<path id="Vector (Stroke)_2" fill-rule="evenodd" clip-rule="evenodd" d="M0.793457 5.55352C0.793457 5.30121 0.997992 5.09668 1.2503 5.09668H5.6529C5.90521 5.09668 6.10974 5.30121 6.10974 5.55352C6.10974 5.80583 5.90521 6.01036 5.6529 6.01036H1.2503C0.997992 6.01036 0.793457 5.80583 0.793457 5.55352Z" fill="white"/>
<path id="Vector (Stroke)_3" fill-rule="evenodd" clip-rule="evenodd" d="M0.869141 7.4511C0.869141 7.1988 1.07368 6.99426 1.32598 6.99426H5.65268C5.90498 6.99426 6.10952 7.1988 6.10952 7.4511C6.10952 7.70341 5.90498 7.90795 5.65268 7.90795H1.32598C1.07368 7.90795 0.869141 7.70341 0.869141 7.4511Z" fill="white"/>
<path id="Vector (Stroke)_4" fill-rule="evenodd" clip-rule="evenodd" d="M12.7866 5.55352C12.7866 5.30121 12.9912 5.09668 13.2435 5.09668H17.6461C17.8984 5.09668 18.1029 5.30121 18.1029 5.55352C18.1029 5.80583 17.8984 6.01036 17.6461 6.01036H13.2435C12.9912 6.01036 12.7866 5.80583 12.7866 5.55352Z" fill="white"/>
<path id="Vector (Stroke)_5" fill-rule="evenodd" clip-rule="evenodd" d="M12.7866 7.4511C12.7866 7.1988 12.9912 6.99426 13.2435 6.99426H17.5702C17.8225 6.99426 18.027 7.1988 18.027 7.4511C18.027 7.70341 17.8225 7.90795 17.5702 7.90795H13.2435C12.9912 7.90795 12.7866 7.70341 12.7866 7.4511Z" fill="white"/>
</g>
</g>
<defs>
<clipPath id="clip0_615_21301">
<rect width="18" height="18" fill="white" transform="translate(0.768066 0.566406)"/>
</clipPath>
</defs>
</svg>
