<svg width="18" height="19" viewBox="0 0 18 19" fill="none" xmlns="http://www.w3.org/2000/svg">
<g id="Frame 1">
<g id="Group 2">
<path id="Vector" d="M8.05879 7.89371H6.04198C5.78209 7.89371 5.57139 8.10441 5.57139 8.3643C5.57139 8.62419 5.78209 8.83489 6.04198 8.83489H7.52866C7.31919 9.64587 6.58137 10.2467 5.70585 10.2467C4.66792 10.2467 3.8235 9.40223 3.8235 8.3643C3.8235 7.32637 4.66792 6.48195 5.70585 6.48195C6.09315 6.48195 6.46498 6.59853 6.78118 6.81908C6.99423 6.96772 7.28769 6.91552 7.43636 6.70231C7.58504 6.48916 7.53277 6.1958 7.3196 6.04712C6.84468 5.71586 6.28665 5.54077 5.70585 5.54077C4.14896 5.54077 2.88232 6.80741 2.88232 8.3643C2.88232 9.9212 4.14896 11.1878 5.70585 11.1878C7.26275 11.1878 8.52938 9.9212 8.52938 8.3643C8.52938 8.10441 8.31869 7.89371 8.05879 7.89371Z" fill="#878787"/>
<path id="Vector_2" d="M14.6749 5.54081H9.9061L9.463 3.10367C9.42231 2.87995 9.22742 2.71729 9 2.71729H3.32508C2.04304 2.71729 1 3.76033 1 5.04237V11.6863C1 12.9684 2.04304 14.0114 3.32508 14.0114H7.06707C6.98695 14.4525 6.66149 16.2406 6.65371 16.2878C6.60612 16.5764 6.83103 16.8349 7.11765 16.8349H14.6749C15.957 16.8349 17 15.7919 17 14.5099V7.8659C17 6.58386 15.957 5.54081 14.6749 5.54081ZM10.9217 11.1265L10.5906 9.30552H11.7775C11.6993 9.80391 11.4886 10.5901 10.9217 11.1265ZM1.94118 11.6863V5.04237C1.94118 4.27929 2.56201 3.65846 3.32508 3.65846H8.60725C8.69951 4.16594 10.1469 12.1266 10.3185 13.0702H3.32508C2.56201 13.0702 1.94118 12.4494 1.94118 11.6863ZM9.47059 14.0114L7.79526 15.2679L8.02366 14.0114H9.47059ZM16.0588 14.5099C16.0588 15.2729 15.438 15.8938 14.6749 15.8938H8.52941C11.4051 13.7367 11.2069 13.8993 11.2706 13.8062C11.3429 13.7004 11.3665 13.5718 11.3453 13.4566L11.1109 12.1674C11.6777 11.8114 12.0503 11.3134 12.2951 10.8104C12.765 11.7748 13.5399 12.3875 14.5548 12.5905C14.81 12.6414 15.0576 12.4758 15.1085 12.2213C15.1594 11.9664 14.9942 11.7185 14.7393 11.6676C13.5731 11.4343 12.9898 10.4651 12.8099 9.30549H14.6471C14.9069 9.30549 15.1176 9.09479 15.1176 8.8349C15.1176 8.57501 14.9069 8.36431 14.6471 8.36431H12.7647V7.89372C12.7647 7.63383 12.554 7.42314 12.2941 7.42314C12.0342 7.42314 11.8235 7.63383 11.8235 7.89372V8.36431H10.4195L10.0772 6.48196H14.6749C15.438 6.48199 16.0588 7.10282 16.0588 7.8659V14.5099Z" fill="#878787"/>
</g>
</g>
</svg>
