<svg width="19" height="19" viewBox="0 0 19 19" fill="none" xmlns="http://www.w3.org/2000/svg">
<g id="Frame 1">
<g id="Group 18">
<path id="Vector (Stroke)" fill-rule="evenodd" clip-rule="evenodd" d="M6.21856 2.83364C6.28303 2.60017 6.49544 2.43848 6.73764 2.43848H15.8337C15.9995 2.43848 16.1561 2.51488 16.2581 2.64558C16.3602 2.77629 16.3963 2.94672 16.3561 3.1076L13.6808 13.8088C13.6209 14.0485 13.4055 14.2167 13.1584 14.2167H4.5974C4.45641 14.2167 4.32119 14.2727 4.2215 14.3724C4.1218 14.4721 4.06579 14.6073 4.06579 14.7483C4.06579 14.8893 4.1218 15.0245 4.2215 15.1242C4.32119 15.2239 4.45641 15.2799 4.5974 15.2799H14.3431L16.9164 4.98662C16.9885 4.69809 17.2809 4.52266 17.5694 4.59479C17.858 4.66693 18.0334 4.9593 17.9613 5.24784L15.286 15.949C15.226 16.1888 15.0106 16.3569 14.7635 16.3569H4.5974C4.17077 16.3569 3.7616 16.1875 3.45993 15.8858C3.15825 15.5841 2.98877 15.1749 2.98877 14.7483C2.98877 14.6096 3.00669 14.4727 3.04124 14.3408C3.04291 14.3336 3.04474 14.3264 3.04672 14.3192L6.21856 2.83364ZM4.48879 13.1433C4.52483 13.1409 4.56105 13.1397 4.5974 13.1397H12.7379L15.1439 3.5155H7.1476L4.48879 13.1433ZM8.33937 5.11723C8.33937 4.81982 8.58047 4.57872 8.87788 4.57872H13.1584C13.4558 4.57872 13.6969 4.81982 13.6969 5.11723C13.6969 5.41464 13.4558 5.65574 13.1584 5.65574H8.87788C8.58047 5.65574 8.33937 5.41464 8.33937 5.11723ZM7.80431 7.25747C7.80431 6.96006 8.04541 6.71896 8.34282 6.71896H12.6233C12.9207 6.71896 13.1618 6.96006 13.1618 7.25747C13.1618 7.55488 12.9207 7.79598 12.6233 7.79598H8.34282C8.04541 7.79598 7.80431 7.55488 7.80431 7.25747Z" fill="white"/>
</g>
</g>
</svg>
