<svg width="18" height="19" viewBox="0 0 18 19" fill="none" xmlns="http://www.w3.org/2000/svg">
<g id="Frame 1" clip-path="url(#clip0_617_22495)">
<g id="Group 15">
<path id="Vector" d="M15.5063 6.949C15.5082 5.92784 15.2599 4.92177 14.7832 4.0187C14.3065 3.11563 13.6159 2.34304 12.7717 1.76844C11.9276 1.19385 10.9556 0.83473 9.94058 0.722472C8.92561 0.610213 7.89859 0.74823 6.94927 1.12446C5.99995 1.50069 5.15721 2.10369 4.49469 2.88076C3.83218 3.65784 3.37005 4.58534 3.14869 5.58221C2.92733 6.57909 2.95347 7.61501 3.22484 8.59946C3.4962 9.5839 4.00453 10.4869 4.7054 11.2296V17.1814C4.70547 17.2753 4.72877 17.3676 4.77322 17.4503C4.81766 17.5329 4.88187 17.6032 4.96011 17.655C5.03835 17.7068 5.1282 17.7384 5.22163 17.747C5.31506 17.7557 5.40917 17.741 5.49557 17.7044L9.25315 16.0957L13.0107 17.7044C13.0808 17.7343 13.1562 17.7498 13.2324 17.7499C13.3439 17.749 13.4526 17.7154 13.5451 17.6533C13.6233 17.6018 13.6876 17.5318 13.7322 17.4494C13.7768 17.3671 13.8004 17.2751 13.8009 17.1814V11.2296C14.8935 10.0718 15.5034 8.54092 15.5063 6.949ZM9.25315 1.83277C10.265 1.83277 11.2542 2.13284 12.0956 2.69501C12.9369 3.25719 13.5927 4.05624 13.9799 4.9911C14.3672 5.92597 14.4685 6.95467 14.2711 7.94712C14.0737 8.93957 13.5864 9.85119 12.8709 10.5667C12.1553 11.2822 11.2437 11.7695 10.2513 11.9669C9.25883 12.1643 8.23012 12.063 7.29526 11.6758C6.36039 11.2885 5.56134 10.6328 4.99917 9.79142C4.43699 8.95006 4.13693 7.96089 4.13693 6.949C4.13693 5.59209 4.67596 4.29076 5.63543 3.33128C6.59491 2.3718 7.89624 1.83277 9.25315 1.83277ZM9.47485 14.953C9.40471 14.9233 9.32932 14.908 9.25315 14.908C9.17698 14.908 9.10159 14.9233 9.03145 14.953L5.84234 16.3174V12.1846C6.85729 12.8451 8.04219 13.1967 9.25315 13.1967C10.4641 13.1967 11.649 12.8451 12.664 12.1846V16.3174L9.47485 14.953Z" fill="#878787"/>
<path id="Vector_2" d="M5.96718 7.67666L6.08088 7.76193C6.17478 7.82731 6.24494 7.92139 6.28082 8.03004C6.3167 8.1387 6.31635 8.25606 6.27984 8.3645L6.23436 8.50094C6.12853 8.83758 6.13159 9.19902 6.2431 9.53382C6.35462 9.86863 6.56891 10.1597 6.85546 10.3657C7.14202 10.5716 7.48624 10.6819 7.83912 10.6809C8.19201 10.6798 8.53557 10.5675 8.8209 10.3598L8.93459 10.2802C9.02631 10.2111 9.13806 10.1737 9.25293 10.1737C9.36781 10.1737 9.47956 10.2111 9.57128 10.2802L9.68497 10.3598C9.97456 10.552 10.3159 10.6511 10.6634 10.6438C11.0109 10.6366 11.3478 10.5234 11.6292 10.3193C11.9105 10.1153 12.1228 9.83017 12.2376 9.50214C12.3524 9.1741 12.3642 8.81883 12.2715 8.48388L12.226 8.34745C12.1895 8.23901 12.1892 8.12165 12.225 8.01299C12.2609 7.90434 12.3311 7.81025 12.425 7.74487L12.5387 7.6596C12.8045 7.44003 12.9975 7.14505 13.0922 6.81357C13.187 6.48208 13.1791 6.12967 13.0695 5.80278C12.9599 5.4759 12.7538 5.1899 12.4784 4.98251C12.203 4.77511 11.8712 4.65605 11.5268 4.64103H11.3847C11.2718 4.63643 11.1628 4.59828 11.0717 4.53145C10.9805 4.46462 10.9114 4.37215 10.8731 4.26584L10.8503 4.10667C10.7286 3.78124 10.5105 3.50073 10.225 3.30269C9.93952 3.10465 9.60037 2.99854 9.25293 2.99854C8.90549 2.99854 8.56634 3.10465 8.28087 3.30269C7.99539 3.50073 7.77722 3.78124 7.65553 4.10667L7.61006 4.2431C7.57173 4.34941 7.50259 4.44188 7.41146 4.50871C7.32033 4.57554 7.21135 4.61369 7.09844 4.61829H6.97906C6.63247 4.63375 6.29884 4.75454 6.02268 4.96455C5.74653 5.17455 5.541 5.46379 5.43352 5.79365C5.32603 6.12352 5.32171 6.47832 5.42113 6.8107C5.52054 7.14309 5.71897 7.43724 5.98992 7.65392L5.96718 7.67666ZM6.43901 6.15316C6.47252 6.03827 6.54441 5.93835 6.64269 5.87007C6.74097 5.80179 6.8597 5.76928 6.97906 5.77797H7.12117C7.47205 5.77581 7.81373 5.66548 8.0996 5.46201C8.38547 5.25854 8.60162 4.97185 8.71857 4.64103L8.75837 4.51028C8.80358 4.41104 8.8764 4.32689 8.96812 4.26789C9.05985 4.20888 9.16661 4.17751 9.27567 4.17751C9.38474 4.17751 9.4915 4.20888 9.58322 4.26789C9.67495 4.32689 9.74776 4.41104 9.79298 4.51028L9.83277 4.64103C9.94496 4.97716 10.1591 5.27 10.4453 5.47885C10.7316 5.68769 11.0758 5.80218 11.4302 5.80639H11.5268C11.6411 5.80596 11.7527 5.84183 11.8453 5.90883C11.938 5.97584 12.007 6.07052 12.0424 6.17924C12.0778 6.28797 12.0777 6.40512 12.0423 6.51383C12.0069 6.62254 11.9378 6.71719 11.8452 6.78416L11.7315 6.86943C11.4435 7.0766 11.2293 7.37029 11.1199 7.70771C11.0104 8.04513 11.0116 8.40867 11.1232 8.74538L11.1687 8.88181C11.1889 8.98808 11.1784 9.09791 11.1384 9.19841C11.0983 9.29891 11.0305 9.38591 10.9427 9.44918C10.855 9.51245 10.751 9.54937 10.643 9.55561C10.535 9.56185 10.4275 9.53714 10.333 9.48439L10.2193 9.4048C9.9305 9.19916 9.58475 9.08865 9.23019 9.08865C8.87563 9.08865 8.52989 9.19916 8.24106 9.4048L8.12736 9.48439C8.03292 9.53714 7.92539 9.56185 7.81739 9.55561C7.70939 9.54937 7.60542 9.51245 7.51767 9.44918C7.42993 9.38591 7.36206 9.29891 7.32203 9.19841C7.28201 9.09791 7.27149 8.98808 7.29172 8.88181L7.33719 8.74538C7.44877 8.40867 7.44994 8.04513 7.34054 7.70771C7.23113 7.37029 7.01686 7.0766 6.72893 6.86943L6.61524 6.78416C6.51839 6.71478 6.44812 6.61442 6.41608 6.49967C6.38403 6.38493 6.39212 6.26268 6.43901 6.15316Z" fill="#878787"/>
</g>
</g>
<defs>
<clipPath id="clip0_617_22495">
<rect width="18" height="18" fill="white" transform="translate(0 0.68457)"/>
</clipPath>
</defs>
</svg>
