<svg width="19" height="19" viewBox="0 0 19 19" fill="none" xmlns="http://www.w3.org/2000/svg">
<g id="Frame 1" clip-path="url(#clip0_615_23931)">
<g id="Group 10">
<path id="Vector (Stroke)" fill-rule="evenodd" clip-rule="evenodd" d="M4.05278 3.03779C3.72248 3.03779 3.44276 3.28199 3.39821 3.60904L1.65417 16.3991C1.60928 16.7283 1.30605 16.9587 0.976877 16.9138C0.647705 16.869 0.417245 16.5657 0.46213 16.2366L2.20615 3.44665C2.20615 3.44668 2.20615 3.44663 2.20615 3.44665C2.332 2.52315 3.12115 1.83472 4.05278 1.83472H14.469C15.4007 1.83472 16.1898 2.52311 16.3156 3.44665L18.0597 16.2366C18.1046 16.5657 17.8741 16.869 17.5449 16.9138C17.2157 16.9587 16.9125 16.7283 16.8676 16.3991L15.1236 3.60912C15.079 3.28206 14.7993 3.03779 14.469 3.03779H4.05278Z" fill="#878787"/>
<path id="Vector (Stroke)_2" fill-rule="evenodd" clip-rule="evenodd" d="M6.13525 2.43625C6.13525 2.10403 6.40457 1.83472 6.73679 1.83472H11.7846C12.1169 1.83472 12.3862 2.10403 12.3862 2.43625V11.27C12.3862 11.6022 12.1169 11.8715 11.7846 11.8715H6.73679C6.40457 11.8715 6.13525 11.6022 6.13525 11.27V2.43625ZM7.33832 3.03779V10.6684H11.1831V3.03779H7.33832Z" fill="#878787"/>
<path id="Vector (Stroke)_3" fill-rule="evenodd" clip-rule="evenodd" d="M6.73691 11.8715C6.72083 11.8715 6.70746 11.8849 6.70746 11.901V13.1629C6.70746 13.179 6.72083 13.1924 6.73691 13.1924H11.7848C11.8008 13.1924 11.8142 13.179 11.8142 13.1629V11.901C11.8142 11.8849 11.8008 11.8715 11.7848 11.8715H6.73691ZM5.50439 11.901C5.50439 11.2205 6.05639 10.6685 6.73691 10.6685H11.7848C12.4653 10.6685 13.0173 11.2205 13.0173 11.901V13.1629C13.0173 13.8435 12.4653 14.3954 11.7848 14.3954H6.73691C6.05639 14.3954 5.50439 13.8435 5.50439 13.1629V11.901Z" fill="#878787"/>
</g>
</g>
<defs>
<clipPath id="clip0_615_23931">
<rect width="18" height="18" fill="white" transform="translate(0.456543 0.834717)"/>
</clipPath>
</defs>
</svg>
