<svg width="19" height="19" viewBox="0 0 19 19" fill="none" xmlns="http://www.w3.org/2000/svg">
<g id="Frame 1" clip-path="url(#clip0_617_12459)">
<g id="Group 17">
<path id="Vector" d="M4.16192 3.68359C2.86899 3.68359 1.80859 4.73948 1.80859 6.03241V9.56182C1.80859 10.8547 2.86898 11.9151 4.16192 11.9151V13.6816C4.16287 13.7973 4.19795 13.9102 4.26278 14.0061C4.3276 14.102 4.41929 14.1766 4.52634 14.2207C4.63339 14.2647 4.75106 14.276 4.86459 14.2535C4.97813 14.2309 5.08248 14.1754 5.16458 14.0938L7.34333 11.9151H11.2196C12.5125 11.9151 13.5683 10.8547 13.5683 9.56182V6.03241C13.5683 4.73948 12.5125 3.68359 11.2196 3.68359H4.16192ZM4.16192 4.86092H11.2196C11.8813 4.86092 12.3968 5.37066 12.3968 6.03241V9.56182C12.3968 10.2235 11.8813 10.7379 11.2196 10.7379H7.10099C6.94568 10.7388 6.79704 10.8012 6.68752 10.9113L5.338 12.2618V11.3281C5.3386 11.1722 5.27722 11.0224 5.16737 10.9117C5.05753 10.801 4.90821 10.7384 4.75226 10.7378H4.16192C3.5002 10.7378 2.98583 10.2234 2.98583 9.56168V6.03228C2.98583 5.37052 3.50019 4.86092 4.16192 4.86092ZM14.1587 6.03241V7.20838H15.9216C16.5834 7.20838 17.0977 7.72398 17.0977 8.38571V11.9151C17.0977 12.5768 16.5834 13.0912 15.9216 13.0912H15.3347C15.2571 13.0909 15.1802 13.106 15.1085 13.1356C15.0367 13.1651 14.9715 13.2086 14.9167 13.2635C14.8618 13.3184 14.8183 13.3836 14.7887 13.4553C14.7592 13.5271 14.7441 13.604 14.7444 13.6816V14.6107L13.3995 13.2646C13.3448 13.2096 13.2799 13.1661 13.2083 13.1364C13.1368 13.1066 13.0601 13.0912 12.9826 13.0912H8.86742C8.42382 13.0912 8.05051 12.8573 7.84982 12.5055H7.58681L6.9 13.1923C7.32112 13.8365 8.04544 14.2673 8.86742 14.2673H12.7391L14.919 16.446C15.0013 16.5278 15.106 16.5835 15.2198 16.606C15.3337 16.6284 15.4516 16.6166 15.5588 16.5722C15.666 16.5277 15.7577 16.4525 15.8222 16.3561C15.8868 16.2597 15.9214 16.1463 15.9216 16.0303V14.2673C17.2146 14.2673 18.2738 13.208 18.2738 11.9151V8.38571C18.2738 7.09278 17.2146 6.03241 15.9216 6.03241H14.1587Z" fill="white"/>
</g>
</g>
<defs>
<clipPath id="clip0_617_12459">
<rect width="18" height="18" fill="white" transform="translate(0.808594 0.683594)"/>
</clipPath>
</defs>
</svg>
