<svg width="19" height="19" viewBox="0 0 19 19" fill="none" xmlns="http://www.w3.org/2000/svg">
<g id="Frame 1">
<g id="Group 19">
<path id="Vector" d="M14.2454 2.68457H5.42455C5.16393 2.68457 4.95264 2.89564 4.95264 3.15648V14.7062C4.95264 14.9671 5.16393 15.1782 5.42455 15.1782H14.2454C14.506 15.1782 14.7173 14.9671 14.7173 14.7062V3.15648C14.7173 2.89564 14.506 2.68457 14.2454 2.68457ZM13.7735 14.2343H5.89645V3.62839H13.7735L13.7735 14.2343Z" fill="#878787"/>
<path id="Vector_2" d="M12.5813 15.8979H4.23239V4.82005C4.23239 4.55921 4.02109 4.34814 3.76048 4.34814C3.49987 4.34814 3.28857 4.55921 3.28857 4.82005V16.3698C3.28857 16.6307 3.49987 16.8417 3.76048 16.8417H12.5813C12.842 16.8417 13.0532 16.6307 13.0532 16.3698C13.0532 16.109 12.842 15.8979 12.5813 15.8979Z" fill="#878787"/>
<path id="Vector_3" d="M8.89522 13.1172C9.85217 13.1172 10.6305 12.3388 10.6305 11.3821V6.03669L11.8016 6.71644C12.0267 6.84732 12.3156 6.77082 12.4465 6.54501C12.5774 6.31965 12.5007 6.0307 12.2753 5.89982L10.3955 4.80853C10.2492 4.72373 10.069 4.72373 9.92314 4.80807C9.77682 4.89194 9.68673 5.04817 9.68673 5.21684V9.84649C9.4483 9.72298 9.18181 9.64651 8.89522 9.64651C7.93827 9.64651 7.15967 10.4249 7.15967 11.3821C7.15967 12.3388 7.93827 13.1172 8.89522 13.1172ZM8.89522 10.5903C9.33164 10.5903 9.68673 10.9456 9.68673 11.3821C9.68673 11.8185 9.33164 12.1733 8.89522 12.1733C8.45857 12.1733 8.10348 11.8185 8.10348 11.3821C8.10348 10.9456 8.45857 10.5903 8.89522 10.5903Z" fill="#878787"/>
</g>
</g>
</svg>
