<svg width="30" height="31" viewBox="0 0 30 31" fill="none" xmlns="http://www.w3.org/2000/svg">
<g id="Layer 2">
<path id="Vector" d="M13.5 24.5H16.5V30.5H13.5V24.5Z" fill="#00CCB6"/>
<path id="Vector_2" d="M24 3.97988L15 0.379883L6 3.97988V9.49988H0V30.4999H10.5V21.4999H19.5V30.4999H30V9.49988H24V3.97988ZM7.5 24.4999H4.5V21.4999H7.5V24.4999ZM7.5 18.4999H4.5V15.4999H7.5V18.4999ZM13.5 18.4999H10.5V15.4999H13.5V18.4999ZM13.5 6.49988H16.5V12.4999H13.5V6.49988ZM19.5 18.4999H16.5V15.4999H19.5V18.4999ZM25.5 24.4999H22.5V21.4999H25.5V24.4999ZM25.5 15.4999V18.4999H22.5V15.4999H25.5Z" fill="#00CCB6"/>
</g>
</svg>
