<svg width="36" height="34" viewBox="0 0 36 34" fill="none" xmlns="http://www.w3.org/2000/svg">
<g id="Group 236">
<path id="Vector" fill-rule="evenodd" clip-rule="evenodd" d="M22.8406 9.9325C21.4077 8.99852 19.7232 8.5 18 8.5V0C21.4464 0 24.8155 0.997033 27.6812 2.86502C30.5468 4.733 32.7803 7.38804 34.0993 10.4944C35.4181 13.6007 35.7632 17.0189 35.0909 20.3165C34.4185 23.6142 32.7589 26.6433 30.3218 29.0208C27.8848 31.3983 24.7798 33.0174 21.3995 33.6733C18.0193 34.3293 14.5155 33.9926 11.3314 32.706C8.14727 31.4192 5.42575 29.2403 3.51099 26.4447C1.59622 23.649 0.574219 20.3623 0.574219 17H9.28709C9.28709 18.6811 9.7981 20.3245 10.7555 21.7223C11.7128 23.1202 13.0736 24.2096 14.6657 24.853C16.2577 25.4963 18.0096 25.6646 19.6998 25.3366C21.3899 25.0087 22.9423 24.1992 24.1609 23.0104C25.3794 21.8216 26.2092 20.3071 26.5454 18.6583C26.8816 17.0094 26.7091 15.3003 26.0496 13.7472C25.3901 12.194 24.2734 10.8665 22.8406 9.9325Z" fill="#007DFC"/>
<path id="Vector_2" fill-rule="evenodd" clip-rule="evenodd" d="M9.28708 4.49219e-06C9.28708 1.11624 9.06173 2.22155 8.62386 3.25282C8.186 4.28408 7.54421 5.22111 6.73515 6.01041C5.92609 6.79971 4.96559 7.42582 3.90849 7.85298C2.85139 8.28014 1.71841 8.5 0.574219 8.5L0.574219 17C2.8626 17 5.12857 16.5603 7.24277 15.706C9.35696 14.8516 11.278 13.5994 12.896 12.0208C14.5142 10.4423 15.7978 8.56817 16.6735 6.50562C17.5492 4.44308 18 2.23247 18 0L9.28708 4.49219e-06Z" fill="#007DFC"/>
</g>
</svg>
