<svg width="20" height="20" viewBox="0 0 20 20" fill="none" xmlns="http://www.w3.org/2000/svg">
<g id="search 2" clip-path="url(#clip0_30_1807)">
<g id="Vector">
<path d="M11.2532 17.497C6.42246 17.497 2.50635 13.581 2.50635 8.7502C2.50635 3.91944 6.42241 0.00341797 11.2532 0.00341797C16.0839 0.00341797 20 3.91949 20 8.75025C20 13.581 16.0839 17.497 11.2532 17.497ZM11.2532 2.50252C7.80264 2.50252 5.00545 5.29971 5.00545 8.75025C5.00545 12.2008 7.80264 14.998 11.2532 14.998C14.7037 14.998 17.5009 12.2008 17.5009 8.75025C17.5009 5.29971 14.7037 2.50252 11.2532 2.50252Z" fill="#878787"/>
<path d="M1.25679 19.9962C0.924648 19.9981 0.605423 19.8677 0.369621 19.6338C-0.120372 19.1478 -0.123602 18.3567 0.362386 17.8667C0.364798 17.8643 0.367209 17.8618 0.369621 17.8594L5.06791 13.1612C5.57513 12.6712 6.38353 12.6852 6.87352 13.1924C7.36352 13.6996 7.34952 14.508 6.8423 14.998L2.14397 19.6338C1.90817 19.8677 1.58894 19.9981 1.25679 19.9962Z" fill="#878787"/>
</g>
</g>
<defs>
<clipPath id="clip0_30_1807">
<rect width="20" height="20" fill="white"/>
</clipPath>
</defs>
</svg>
