<svg width="29" height="29" viewBox="0 0 29 29" fill="none" xmlns="http://www.w3.org/2000/svg">
<g id="check">
<path id="Vector" fill-rule="evenodd" clip-rule="evenodd" d="M14.6667 26.1663C21.1102 26.1663 26.3334 20.9432 26.3334 14.4997C26.3334 8.05618 21.1102 2.83301 14.6667 2.83301C8.2232 2.83301 3.00003 8.05618 3.00003 14.4997C3.00003 20.9432 8.2232 26.1663 14.6667 26.1663ZM18.792 10.3743C19.0111 10.1556 19.3081 10.0328 19.6177 10.033C19.9273 10.0332 20.2241 10.1564 20.4429 10.3755C20.6616 10.5946 20.7844 10.8916 20.7842 11.2012C20.784 11.5108 20.6608 11.8076 20.4417 12.0263L13.8465 18.6215L13.8419 18.6262C13.7338 18.7349 13.6052 18.8212 13.4637 18.88C13.3221 18.9389 13.1703 18.9692 13.017 18.9692C12.8637 18.9692 12.7119 18.9389 12.5704 18.88C12.4288 18.8212 12.3003 18.7349 12.1922 18.6262L12.1875 18.6215L8.8917 15.3257C8.78027 15.2181 8.69139 15.0893 8.63025 14.947C8.5691 14.8046 8.53692 14.6516 8.53557 14.4966C8.53423 14.3417 8.56374 14.1881 8.62241 14.0447C8.68107 13.9014 8.76769 13.7711 8.87724 13.6615C8.98678 13.552 9.11704 13.4654 9.26042 13.4067C9.4038 13.3481 9.55742 13.3185 9.71233 13.3199C9.86724 13.3212 10.0203 13.3534 10.1627 13.4146C10.305 13.4757 10.4337 13.5646 10.5414 13.676L13.017 16.1505L18.792 10.3755V10.3743Z" fill="#00CCB6"/>
</g>
</svg>
