<svg width="22" height="21" viewBox="0 0 22 21" fill="none" xmlns="http://www.w3.org/2000/svg">
<g id="Layer 2">
<path id="Vector" d="M20.4286 8.64286H1.57143C1.15479 8.64244 0.75533 8.47675 0.46072 8.18214C0.16611 7.88753 0.000416017 7.48807 0 7.07143V1.57143C0.000416017 1.15479 0.16611 0.75533 0.46072 0.46072C0.75533 0.16611 1.15479 0.000416017 1.57143 0H20.4286C20.8452 0.000416017 21.2447 0.16611 21.5393 0.46072C21.8339 0.75533 21.9996 1.15479 22 1.57143V7.07143C21.9996 7.48807 21.8339 7.88753 21.5393 8.18214C21.2447 8.47675 20.8452 8.64244 20.4286 8.64286ZM1.57143 1.57143V7.07143H20.4297L20.4286 1.57143H1.57143Z" fill="#00CCB6"/>
<path id="Vector_2" d="M17.2393 0.00341797L4.76032 0.00457304C4.30699 0.0314437 3.88264 0.236345 3.57969 0.574651C3.27674 0.912956 3.11973 1.35726 3.14286 1.8108V18.1692C3.13347 18.5142 3.22246 18.8546 3.39945 19.1509C3.57643 19.4471 3.83409 19.6868 4.14229 19.8419C4.40158 19.9639 4.69099 20.007 4.97458 19.966C5.25817 19.9249 5.52346 19.8015 5.73751 19.611C5.80738 19.5365 5.8923 19.4778 5.98663 19.4387C6.08096 19.3996 6.18253 19.381 6.2846 19.3842C6.57617 19.3842 6.68359 19.479 6.94255 19.7077C7.16329 19.9347 7.42731 20.1151 7.719 20.2384C8.01069 20.3616 8.32413 20.4251 8.64078 20.4251C8.95742 20.4251 9.27086 20.3616 9.56255 20.2384C9.85424 20.1151 10.1183 19.9347 10.339 19.7077C10.598 19.479 10.705 19.3842 10.9962 19.3842C11.2885 19.3842 11.396 19.479 11.6549 19.708C11.8759 19.935 12.1401 20.1153 12.4319 20.2385C12.7237 20.3616 13.0372 20.4251 13.3539 20.4251C13.6706 20.4251 13.9842 20.3616 14.276 20.2385C14.5678 20.1153 14.8319 19.935 15.0529 19.708C15.3126 19.479 15.4197 19.3842 15.7124 19.3842C15.8152 19.3812 15.9175 19.4 16.0125 19.4395C16.1075 19.479 16.193 19.5382 16.2633 19.6133C16.4773 19.8037 16.7425 19.927 17.0259 19.968C17.3094 20.0089 17.5987 19.9656 17.8578 19.8435C18.166 19.6883 18.4236 19.4486 18.6006 19.1524C18.7776 18.8562 18.8666 18.5157 18.8571 18.1708V1.80964C18.8802 1.35606 18.7231 0.911748 18.4201 0.57345C18.1171 0.235152 17.6927 0.0302697 17.2393 0.00341797ZM7.45355 14.2995C7.26717 14.2995 7.08497 14.2443 6.92999 14.1407C6.77501 14.0372 6.65422 13.89 6.58288 13.7178C6.51154 13.5457 6.49286 13.3562 6.52921 13.1734C6.56556 12.9906 6.65529 12.8227 6.78707 12.6909C6.91885 12.5591 7.08676 12.4693 7.26955 12.4329C7.45235 12.3966 7.64183 12.4152 7.81402 12.4865C7.98622 12.5578 8.1334 12.6786 8.23695 12.8336C8.34051 12.9885 8.39579 13.1707 8.39579 13.3571C8.3958 13.4809 8.37143 13.6034 8.32409 13.7177C8.27674 13.832 8.20733 13.9359 8.11984 14.0234C8.03234 14.1109 7.92847 14.1803 7.81415 14.2277C7.69982 14.2751 7.57729 14.2995 7.45355 14.2995ZM7.45355 10.3715C7.26717 10.3716 7.08498 10.3163 6.93001 10.2128C6.77504 10.1092 6.65425 9.96207 6.58292 9.78989C6.51158 9.6177 6.49291 9.42824 6.52926 9.24544C6.56561 9.06264 6.65535 8.89473 6.78713 8.76294C6.91891 8.63115 7.08681 8.54139 7.2696 8.50502C7.45239 8.46866 7.64186 8.48731 7.81405 8.55863C7.98624 8.62994 8.13342 8.75072 8.23697 8.90568C8.34052 9.06064 8.39579 9.24283 8.39579 9.4292C8.3958 9.55294 8.37143 9.67547 8.32409 9.7898C8.27674 9.90412 8.20733 10.008 8.11984 10.0955C8.03234 10.183 7.92846 10.2524 7.81414 10.2998C7.69982 10.3471 7.57729 10.3715 7.45355 10.3715ZM7.45355 6.44297C7.26717 6.44298 7.08498 6.38773 6.93001 6.2842C6.77504 6.18066 6.65425 6.0335 6.58292 5.86132C6.51158 5.68913 6.49291 5.49966 6.52926 5.31687C6.56561 5.13407 6.65535 4.96616 6.78713 4.83437C6.91891 4.70258 7.08681 4.61282 7.2696 4.57645C7.45239 4.54008 7.64186 4.55874 7.81405 4.63005C7.98624 4.70137 8.13342 4.82214 8.23697 4.97711C8.34052 5.13207 8.39579 5.31425 8.39579 5.50063C8.3958 5.62437 8.37143 5.7469 8.32409 5.86123C8.27674 5.97555 8.20733 6.07943 8.11984 6.16693C8.03234 6.25443 7.92846 6.32384 7.81414 6.3712C7.69982 6.41855 7.57729 6.44297 7.45355 6.44297ZM14.703 14.142H9.9887C9.78032 14.142 9.58047 14.0593 9.43312 13.9119C9.28577 13.7646 9.20299 13.5647 9.20299 13.3563C9.20299 13.1479 9.28577 12.9481 9.43312 12.8007C9.58047 12.6534 9.78032 12.5706 9.9887 12.5706H14.703C14.9114 12.5706 15.1112 12.6534 15.2586 12.8007C15.4059 12.9481 15.4887 13.1479 15.4887 13.3563C15.4887 13.5647 15.4059 13.7646 15.2586 13.9119C15.1112 14.0593 14.9114 14.142 14.703 14.142ZM14.703 10.2143H9.9887C9.78032 10.2143 9.58047 10.1315 9.43312 9.98412C9.28577 9.83677 9.20299 9.63692 9.20299 9.42854C9.20299 9.22016 9.28577 9.02031 9.43312 8.87296C9.58047 8.72561 9.78032 8.64283 9.9887 8.64283H14.703C14.9114 8.64283 15.1112 8.72561 15.2586 8.87296C15.4059 9.02031 15.4887 9.22016 15.4887 9.42854C15.4887 9.63692 15.4059 9.83677 15.2586 9.98412C15.1112 10.1315 14.9114 10.2143 14.703 10.2143ZM14.703 6.28568H9.9887C9.78032 6.28568 9.58047 6.2029 9.43312 6.05555C9.28577 5.9082 9.20299 5.70835 9.20299 5.49997C9.20299 5.29158 9.28577 5.09174 9.43312 4.94439C9.58047 4.79704 9.78032 4.71425 9.9887 4.71425H14.703C14.9114 4.71425 15.1112 4.79704 15.2586 4.94439C15.4059 5.09174 15.4887 5.29158 15.4887 5.49997C15.4887 5.70835 15.4059 5.9082 15.2586 6.05555C15.1112 6.2029 14.9114 6.28568 14.703 6.28568Z" fill="#00CCB6"/>
</g>
</svg>
