<svg width="22" height="21" viewBox="0 0 22 21" fill="none" xmlns="http://www.w3.org/2000/svg">
<g id="Layer 2">
<path id="Vector" d="M20.4286 8.64286H1.57143C1.15479 8.64244 0.75533 8.47675 0.46072 8.18214C0.16611 7.88753 0.000416017 7.48807 0 7.07143V1.57143C0.000416017 1.15479 0.16611 0.75533 0.46072 0.46072C0.75533 0.16611 1.15479 0.000416017 1.57143 0H20.4286C20.8452 0.000416017 21.2447 0.16611 21.5393 0.46072C21.8339 0.75533 21.9996 1.15479 22 1.57143V7.07143C21.9996 7.48807 21.8339 7.88753 21.5393 8.18214C21.2447 8.47675 20.8452 8.64244 20.4286 8.64286ZM1.57143 1.57143V7.07143H20.4297L20.4286 1.57143H1.57143Z" fill="#A4A4A4"/>
<path id="Vector_2" d="M17.2394 0.00341797L4.76039 0.00457304C4.30706 0.0314437 3.88271 0.236345 3.57975 0.574651C3.2768 0.912956 3.11979 1.35726 3.14292 1.8108V18.1692C3.13353 18.5142 3.22252 18.8546 3.39951 19.1509C3.57649 19.4471 3.83415 19.6868 4.14235 19.8419C4.40164 19.9639 4.69105 20.007 4.97464 19.966C5.25823 19.9249 5.52352 19.8015 5.73757 19.611C5.80744 19.5365 5.89236 19.4778 5.98669 19.4387C6.08102 19.3996 6.1826 19.381 6.28466 19.3842C6.57623 19.3842 6.68365 19.479 6.94261 19.7077C7.16335 19.9347 7.42737 20.1151 7.71906 20.2384C8.01075 20.3616 8.32419 20.4251 8.64084 20.4251C8.95749 20.4251 9.27092 20.3616 9.56261 20.2384C9.8543 20.1151 10.1183 19.9347 10.3391 19.7077C10.598 19.479 10.7051 19.3842 10.9963 19.3842C11.2886 19.3842 11.396 19.479 11.655 19.708C11.8759 19.935 12.1401 20.1153 12.4319 20.2385C12.7237 20.3616 13.0372 20.4251 13.354 20.4251C13.6707 20.4251 13.9842 20.3616 14.276 20.2385C14.5678 20.1153 14.832 19.935 15.053 19.708C15.3127 19.479 15.4197 19.3842 15.7125 19.3842C15.8153 19.3812 15.9176 19.4 16.0126 19.4395C16.1076 19.479 16.193 19.5382 16.2634 19.6133C16.4773 19.8037 16.7425 19.927 17.026 19.968C17.3095 20.0089 17.5987 19.9656 17.8578 19.8435C18.166 19.6883 18.4237 19.4486 18.6007 19.1524C18.7777 18.8562 18.8666 18.5157 18.8572 18.1708V1.80964C18.8803 1.35606 18.7232 0.911748 18.4201 0.57345C18.1171 0.235152 17.6927 0.0302697 17.2394 0.00341797ZM7.45361 14.2995C7.26723 14.2995 7.08503 14.2443 6.93005 14.1407C6.77507 14.0372 6.65428 13.89 6.58294 13.7178C6.5116 13.5457 6.49292 13.3562 6.52927 13.1734C6.56562 12.9906 6.65535 12.8227 6.78713 12.6909C6.91892 12.5591 7.08682 12.4693 7.26962 12.4329C7.45241 12.3966 7.64189 12.4152 7.81408 12.4865C7.98628 12.5578 8.13346 12.6786 8.23702 12.8336C8.34057 12.9885 8.39585 13.1707 8.39585 13.3571C8.39586 13.4809 8.3715 13.6034 8.32415 13.7177C8.2768 13.832 8.2074 13.9359 8.1199 14.0234C8.0324 14.1109 7.92853 14.1803 7.81421 14.2277C7.69988 14.2751 7.57735 14.2995 7.45361 14.2995ZM7.45361 10.3715C7.26724 10.3716 7.08504 10.3163 6.93007 10.2128C6.7751 10.1092 6.65431 9.96207 6.58298 9.78989C6.51164 9.6177 6.49297 9.42824 6.52932 9.24544C6.56567 9.06264 6.65541 8.89473 6.78719 8.76294C6.91897 8.63115 7.08687 8.54139 7.26966 8.50502C7.45245 8.46866 7.64192 8.48731 7.81412 8.55863C7.9863 8.62994 8.13348 8.75072 8.23703 8.90568C8.34058 9.06064 8.39585 9.24283 8.39585 9.4292C8.39586 9.55294 8.3715 9.67547 8.32415 9.7898C8.2768 9.90412 8.20739 10.008 8.1199 10.0955C8.0324 10.183 7.92853 10.2524 7.8142 10.2998C7.69988 10.3471 7.57735 10.3715 7.45361 10.3715ZM7.45361 6.44297C7.26724 6.44298 7.08504 6.38773 6.93007 6.2842C6.7751 6.18066 6.65431 6.0335 6.58298 5.86132C6.51164 5.68913 6.49297 5.49966 6.52932 5.31687C6.56567 5.13407 6.65541 4.96616 6.78719 4.83437C6.91897 4.70258 7.08687 4.61282 7.26966 4.57645C7.45245 4.54008 7.64192 4.55874 7.81412 4.63005C7.9863 4.70137 8.13348 4.82214 8.23703 4.97711C8.34058 5.13207 8.39585 5.31425 8.39585 5.50063C8.39586 5.62437 8.3715 5.7469 8.32415 5.86123C8.2768 5.97555 8.20739 6.07943 8.1199 6.16693C8.0324 6.25443 7.92853 6.32384 7.8142 6.3712C7.69988 6.41855 7.57735 6.44297 7.45361 6.44297ZM14.703 14.142H9.98876C9.78038 14.142 9.58053 14.0593 9.43318 13.9119C9.28583 13.7646 9.20305 13.5647 9.20305 13.3563C9.20305 13.1479 9.28583 12.9481 9.43318 12.8007C9.58053 12.6534 9.78038 12.5706 9.98876 12.5706H14.703C14.9114 12.5706 15.1113 12.6534 15.2586 12.8007C15.406 12.9481 15.4888 13.1479 15.4888 13.3563C15.4888 13.5647 15.406 13.7646 15.2586 13.9119C15.1113 14.0593 14.9114 14.142 14.703 14.142ZM14.703 10.2143H9.98876C9.78038 10.2143 9.58053 10.1315 9.43318 9.98412C9.28583 9.83677 9.20305 9.63692 9.20305 9.42854C9.20305 9.22016 9.28583 9.02031 9.43318 8.87296C9.58053 8.72561 9.78038 8.64283 9.98876 8.64283H14.703C14.9114 8.64283 15.1113 8.72561 15.2586 8.87296C15.406 9.02031 15.4888 9.22016 15.4888 9.42854C15.4888 9.63692 15.406 9.83677 15.2586 9.98412C15.1113 10.1315 14.9114 10.2143 14.703 10.2143ZM14.703 6.28568H9.98876C9.78038 6.28568 9.58053 6.2029 9.43318 6.05555C9.28583 5.9082 9.20305 5.70835 9.20305 5.49997C9.20305 5.29158 9.28583 5.09174 9.43318 4.94439C9.58053 4.79704 9.78038 4.71425 9.98876 4.71425H14.703C14.9114 4.71425 15.1113 4.79704 15.2586 4.94439C15.406 5.09174 15.4888 5.29158 15.4888 5.49997C15.4888 5.70835 15.406 5.9082 15.2586 6.05555C15.1113 6.2029 14.9114 6.28568 14.703 6.28568Z" fill="#A4A4A4"/>
</g>
</svg>
