<svg width="26" height="24" viewBox="0 0 26 24" fill="none" xmlns="http://www.w3.org/2000/svg">
<g id="Layer 2">
<path id="Vector" d="M24.1677 8.47922C23.6747 8.40761 23.2042 8.2257 22.7912 7.94704C22.3782 7.66838 22.0335 7.30015 21.7825 6.86977C21.5316 6.43939 21.381 5.95794 21.342 5.46129C21.3029 4.96464 21.3764 4.46557 21.5569 4.00126C21.6717 3.69771 21.6886 3.36585 21.6053 3.05221C21.5219 2.73857 21.3426 2.45886 21.0922 2.25232C19.9871 1.32434 18.7293 0.595342 17.3747 0.09783C17.0662 -0.0167526 16.7295 -0.0310688 16.4124 0.0569208C16.0954 0.14491 15.8141 0.330718 15.6088 0.587871C15.2999 0.98299 14.9049 1.30256 14.4541 1.52234C14.0032 1.74212 13.5082 1.85634 13.0066 1.85634C12.505 1.85634 12.01 1.74212 11.5591 1.52234C11.1082 1.30256 10.7133 0.98299 10.4043 0.587871C10.199 0.330718 9.91777 0.14491 9.60071 0.0569208C9.28364 -0.0310688 8.94689 -0.0167526 8.63844 0.09783C7.38771 0.557152 6.2183 1.21316 5.17436 2.0411C4.91121 2.24942 4.72166 2.53652 4.63348 2.86035C4.5453 3.18419 4.56312 3.52775 4.68431 3.84073C4.87928 4.31733 4.95983 4.83298 4.91951 5.34634C4.87919 5.85969 4.71912 6.35645 4.45214 6.79676C4.18515 7.23708 3.81869 7.60869 3.38215 7.8818C2.94561 8.1549 2.45113 8.3219 1.93839 8.36938C1.60551 8.40498 1.29285 8.54651 1.04644 8.77314C0.800038 8.99977 0.632908 9.29953 0.569659 9.62828C0.412337 10.407 0.333087 11.1995 0.333087 11.994C0.331931 12.6591 0.385623 13.3232 0.493618 13.9795C0.547366 14.3188 0.711387 14.6309 0.960323 14.8676C1.20926 15.1044 1.52924 15.2525 1.8708 15.2891C2.3948 15.3383 2.8994 15.5122 3.34237 15.7965C3.78533 16.0807 4.15377 16.4669 4.41685 16.9227C4.67992 17.3785 4.82998 17.8908 4.85447 18.4165C4.87895 18.9422 4.77715 19.4662 4.55758 19.9445C4.41389 20.2556 4.37824 20.6058 4.45631 20.9395C4.53438 21.2732 4.72168 21.5713 4.98848 21.7864C6.08694 22.6975 7.33271 23.4147 8.67223 23.9071C8.84353 23.9664 9.02326 23.9978 9.20452 24C9.45306 23.9995 9.69786 23.9393 9.91837 23.8247C10.1389 23.71 10.3287 23.5441 10.4719 23.341C10.773 22.9022 11.1767 22.5436 11.6478 22.2963C12.119 22.0489 12.6434 21.9203 13.1755 21.9216C13.6911 21.9222 14.1995 22.0432 14.6601 22.275C15.1206 22.5067 15.5207 22.8428 15.8285 23.2565C16.0333 23.5317 16.3232 23.7315 16.6533 23.8247C16.9834 23.9179 17.3351 23.8993 17.6535 23.7719C18.8783 23.2789 20.0186 22.5976 21.0331 21.7526C21.2879 21.5419 21.4694 21.2558 21.5514 20.9355C21.6334 20.6151 21.6116 20.277 21.4893 19.9698C21.2906 19.4994 21.204 18.9892 21.2362 18.4795C21.2685 17.9698 21.4188 17.4746 21.6753 17.033C21.9317 16.5913 22.2873 16.2153 22.714 15.9347C23.1407 15.654 23.6268 15.4764 24.1339 15.4158C24.4627 15.3704 24.7685 15.2214 25.007 14.9905C25.2455 14.7596 25.4043 14.4588 25.4604 14.1316C25.5961 13.4269 25.6696 12.7116 25.68 11.994C25.6802 11.2371 25.6095 10.4818 25.4688 9.73812C25.4118 9.41816 25.2553 9.12431 25.0218 8.89831C24.7882 8.67232 24.4893 8.52568 24.1677 8.47922ZM17.2311 11.994C17.2311 12.8295 16.9833 13.6463 16.5191 14.341C16.0549 15.0357 15.3951 15.5772 14.6232 15.8969C13.8513 16.2167 13.0019 16.3003 12.1824 16.1373C11.3629 15.9743 10.6102 15.572 10.0194 14.9812C9.42859 14.3904 9.02625 13.6376 8.86324 12.8182C8.70024 11.9987 8.7839 11.1493 9.10364 10.3774C9.42338 9.60543 9.96485 8.94565 10.6596 8.48146C11.3543 8.01727 12.171 7.76951 13.0066 7.76951C14.127 7.76951 15.2015 8.21459 15.9937 9.00683C16.786 9.79908 17.2311 10.8736 17.2311 11.994Z" fill="#00CCB6"/>
</g>
</svg>
