<svg width="49" height="48" viewBox="0 0 49 48" fill="none" xmlns="http://www.w3.org/2000/svg">
<g id="Group">
<path id="Vector" d="M45.9721 0H31.8784C24.2189 0 17.887 5.71914 16.9678 13.1745C7.46996 14.0936 0.0146484 22.2638 0.0146484 32.1702C0.0146484 33.2936 0.933796 34.2127 2.0572 34.2127H35.7593C36.8827 34.2127 37.8018 33.2936 37.8018 32.1702C37.8018 22.3659 30.5508 14.2979 21.1551 13.1745C22.0742 7.96595 26.5678 3.98298 32.0827 3.98298H46.1763C47.2997 3.98298 48.2189 3.06383 48.2189 1.94042C48.2189 0.817021 47.0955 0 45.9721 0ZM34.6359 38.9106C34.5338 38.6042 34.3295 38.4 34.1253 38.1957H31.3678C30.755 38.7064 30.5508 39.6255 30.8572 40.4425L33.4104 46.7744C33.7167 47.5914 34.4316 48 35.2487 48C35.4529 48 35.7593 48 35.9636 47.8978C36.9848 47.4893 37.4955 46.2638 37.087 45.2425L34.6359 38.9106ZM25.4444 39.4212C25.3423 38.9106 25.138 38.5021 24.8316 38.1957H22.0742C21.6657 38.6042 21.3593 39.217 21.4614 39.9319L22.2785 46.2638C22.3806 47.2851 23.2997 48 24.2189 48C24.321 48 24.4231 48 24.5253 48C25.6487 47.8978 26.3636 46.8766 26.2614 45.7532L25.4444 39.4212ZM12.7806 38.1957C12.4742 38.5021 12.27 38.9106 12.1678 39.4212L11.3508 45.7532C11.2487 46.8766 11.9636 47.8978 13.087 48C13.1891 48 13.2912 48 13.3934 48C14.4146 48 15.2317 47.2851 15.3338 46.2638L16.1508 39.9319C16.2529 39.3191 15.9465 38.6042 15.538 38.1957H12.7806ZM3.48699 38.1957C3.28273 38.4 3.07848 38.6042 2.97635 38.9106L0.423159 45.2425C0.0146484 46.2638 0.525286 47.3872 1.54656 47.8978C1.75082 48 2.0572 48 2.26145 48C3.07848 48 3.79337 47.4893 4.09975 46.7744L6.65294 40.4425C6.95932 39.6255 6.75507 38.8085 6.1423 38.1957H3.48699Z" fill="white"/>
</g>
</svg>
