<svg width="42" height="43" viewBox="0 0 42 43" fill="none" xmlns="http://www.w3.org/2000/svg">
<path id="Vector" d="M27.8714 28.308L25.9908 30.1886C25.8694 30.3154 25.7234 30.4161 25.5617 30.4845C25.4 30.5529 25.2261 30.5876 25.0505 30.5864C24.6968 30.5833 24.3588 30.4402 24.1102 30.1886L18.7939 24.7999C18.6709 24.6763 18.5736 24.5296 18.5074 24.3682C18.4412 24.2069 18.4075 24.034 18.4082 23.8596V11.3585C18.4082 11.0068 18.5479 10.6695 18.7966 10.4208C19.0452 10.1721 19.3825 10.0324 19.7342 10.0324H22.3863C22.7371 10.0356 23.0725 10.1763 23.3205 10.4243C23.5685 10.6723 23.7093 11.0078 23.7124 11.3585V21.6656C23.7117 21.84 23.7454 22.0128 23.8116 22.1742C23.8778 22.3355 23.9752 22.4822 24.0982 22.6059L27.9317 26.4394C28.1705 26.6957 28.2981 27.036 28.2868 27.3861C28.2756 27.7362 28.1262 28.0676 27.8714 28.308ZM21 0.75C16.8466 0.75 12.7865 1.98163 9.33303 4.28914C5.8796 6.59665 3.18798 9.8764 1.59854 13.7136C0.00909902 17.5509 -0.406771 21.7733 0.403518 25.8469C1.21381 29.9205 3.21386 33.6623 6.15077 36.5992C9.08767 39.5361 12.8295 41.5362 16.9031 42.3465C20.9767 43.1568 25.1991 42.7409 29.0364 41.1515C32.8736 39.562 36.1534 36.8704 38.4609 33.417C40.7684 29.9635 42 25.9034 42 21.75C42 16.1804 39.7875 10.839 35.8492 6.90076C31.911 2.96249 26.5696 0.75 21 0.75Z" fill="#00CCB6"/>
</svg>
