<svg width="34" height="43" viewBox="0 0 34 43" fill="none" xmlns="http://www.w3.org/2000/svg">
<path id="Vector" d="M17.0082 0.75H16.9918C8.13078 0.75 0.921875 7.95891 0.921875 16.8199C0.921875 20.2628 2.05653 23.6779 4.11666 26.4362L16.3012 42.75H17.6987L29.8833 26.4363C31.9435 23.6779 33.0781 20.2628 33.0781 16.8199C33.0781 7.95891 25.8692 0.75 17.0082 0.75ZM17 21.3398C14.2861 21.3398 12.0781 19.1319 12.0781 16.418C12.0781 13.704 14.2861 11.4961 17 11.4961C19.7139 11.4961 21.9219 13.704 21.9219 16.418C21.9219 19.1319 19.7139 21.3398 17 21.3398Z" fill="#00CCB6"/>
</svg>
