<svg width="36" height="43" viewBox="0 0 36 43" fill="none" xmlns="http://www.w3.org/2000/svg">
<g id="Icon">
<path id="Vector" d="M35.865 12.75H25.5C25.1022 12.75 24.7206 12.592 24.4393 12.3107C24.158 12.0294 24 11.6478 24 11.25V0.88501C25.7751 1.18753 27.4113 2.03711 28.68 3.31501L33.435 8.07001C34.7105 9.34046 35.5596 10.9759 35.865 12.75Z" fill="#00CCB6"/>
<path id="Vector_2" d="M25.5 15.75C24.3065 15.75 23.1619 15.2759 22.318 14.432C21.4741 13.5881 21 12.4435 21 11.25V0.75H7.5C5.51088 0.75 3.60322 1.54018 2.1967 2.9467C0.790176 4.35322 0 6.26088 0 8.25V35.25C0 37.2391 0.790176 39.1468 2.1967 40.5533C3.60322 41.9598 5.51088 42.75 7.5 42.75H28.5C30.4891 42.75 32.3968 41.9598 33.8033 40.5533C35.2098 39.1468 36 37.2391 36 35.25V15.75H25.5ZM12.435 23.16L16.035 19.56C16.4971 19.0959 17.1078 18.8092 17.76 18.75C17.9143 18.6898 18.0857 18.6898 18.24 18.75C18.8864 18.7969 19.4963 19.0674 19.965 19.515L23.565 23.115C23.7056 23.2544 23.8172 23.4203 23.8933 23.6031C23.9695 23.7859 24.0087 23.982 24.0087 24.18C24.0087 24.378 23.9695 24.5741 23.8933 24.7569C23.8172 24.9397 23.7056 25.1056 23.565 25.245C23.4256 25.3856 23.2597 25.4972 23.0769 25.5733C22.8941 25.6495 22.698 25.6887 22.5 25.6887C22.302 25.6887 22.1059 25.6495 21.9231 25.5733C21.7403 25.4972 21.5744 25.3856 21.435 25.245L19.5 23.34V29.25C19.5 29.6478 19.342 30.0294 19.0607 30.3107C18.7794 30.592 18.3978 30.75 18 30.75C17.6022 30.75 17.2206 30.592 16.9393 30.3107C16.658 30.0294 16.5 29.6478 16.5 29.25V23.34L14.565 25.29C14.2825 25.5725 13.8995 25.7311 13.5 25.7311C13.1005 25.7311 12.7175 25.5725 12.435 25.29C12.1525 25.0075 11.9939 24.6245 11.9939 24.225C11.9939 23.8255 12.1525 23.4425 12.435 23.16ZM24 36.75H12C10.8065 36.75 9.66193 36.2759 8.81802 35.432C7.97411 34.5881 7.5 33.4435 7.5 32.25C7.5 31.8522 7.65804 31.4706 7.93934 31.1893C8.22064 30.908 8.60218 30.75 9 30.75C9.39782 30.75 9.77936 30.908 10.0607 31.1893C10.342 31.4706 10.5 31.8522 10.5 32.25C10.5 32.6478 10.658 33.0294 10.9393 33.3107C11.2206 33.592 11.6022 33.75 12 33.75H24C24.3978 33.75 24.7794 33.592 25.0607 33.3107C25.342 33.0294 25.5 32.6478 25.5 32.25C25.5 31.8522 25.658 31.4706 25.9393 31.1893C26.2206 30.908 26.6022 30.75 27 30.75C27.3978 30.75 27.7794 30.908 28.0607 31.1893C28.342 31.4706 28.5 31.8522 28.5 32.25C28.5 33.4435 28.0259 34.5881 27.182 35.432C26.3381 36.2759 25.1935 36.75 24 36.75Z" fill="#00CCB6"/>
</g>
</svg>
