<svg width="30" height="43" viewBox="0 0 30 43" fill="none" xmlns="http://www.w3.org/2000/svg">
<path id="Icon" d="M25.4596 0.75H4.54037C3.35149 0.75 2.2113 1.22411 1.37063 2.06802C0.529961 2.91193 0.0576782 4.05653 0.0576782 5.25V38.25C0.0576782 39.4435 0.529961 40.5881 1.37063 41.432C2.2113 42.2759 3.35149 42.75 4.54037 42.75H25.4596C26.6485 42.75 27.7887 42.2759 28.6293 41.432C29.47 40.5881 29.9423 39.4435 29.9423 38.25V5.25C29.9423 4.05653 29.47 2.91193 28.6293 2.06802C27.7887 1.22411 26.6485 0.75 25.4596 0.75ZM22.4711 36.75H16.4942C16.0979 36.75 15.7179 36.592 15.4376 36.3107C15.1574 36.0294 15 35.6478 15 35.25C15 34.8522 15.1574 34.4706 15.4376 34.1893C15.7179 33.908 16.0979 33.75 16.4942 33.75H22.4711C22.8674 33.75 23.2475 33.908 23.5277 34.1893C23.8079 34.4706 23.9654 34.8522 23.9654 35.25C23.9654 35.6478 23.8079 36.0294 23.5277 36.3107C23.2475 36.592 22.8674 36.75 22.4711 36.75ZM22.4711 26.25H7.52883C7.13254 26.25 6.75247 26.092 6.47225 25.8107C6.19203 25.5294 6.0346 25.1478 6.0346 24.75C6.0346 24.3522 6.19203 23.9706 6.47225 23.6893C6.75247 23.408 7.13254 23.25 7.52883 23.25H22.4711C22.8674 23.25 23.2475 23.408 23.5277 23.6893C23.8079 23.9706 23.9654 24.3522 23.9654 24.75C23.9654 25.1478 23.8079 25.5294 23.5277 25.8107C23.2475 26.092 22.8674 26.25 22.4711 26.25ZM22.4711 20.25H7.52883C7.13254 20.25 6.75247 20.092 6.47225 19.8107C6.19203 19.5294 6.0346 19.1478 6.0346 18.75C6.0346 18.3522 6.19203 17.9706 6.47225 17.6893C6.75247 17.408 7.13254 17.25 7.52883 17.25H22.4711C22.8674 17.25 23.2475 17.408 23.5277 17.6893C23.8079 17.9706 23.9654 18.3522 23.9654 18.75C23.9654 19.1478 23.8079 19.5294 23.5277 19.8107C23.2475 20.092 22.8674 20.25 22.4711 20.25ZM22.4711 14.25H7.52883C7.13254 14.25 6.75247 14.092 6.47225 13.8107C6.19203 13.5294 6.0346 13.1478 6.0346 12.75C6.0346 12.3522 6.19203 11.9706 6.47225 11.6893C6.75247 11.408 7.13254 11.25 7.52883 11.25H22.4711C22.8674 11.25 23.2475 11.408 23.5277 11.6893C23.8079 11.9706 23.9654 12.3522 23.9654 12.75C23.9654 13.1478 23.8079 13.5294 23.5277 13.8107C23.2475 14.092 22.8674 14.25 22.4711 14.25Z" fill="#00CCB6"/>
</svg>
