<svg width="34" height="43" viewBox="0 0 34 43" fill="none" xmlns="http://www.w3.org/2000/svg">
<path id="Vector" d="M4.64704 42.75H29.3529C30.3358 42.75 31.2784 42.3596 31.9734 41.6646C32.6684 40.9696 33.0588 40.027 33.0588 39.0441V4.45588C33.0588 3.47302 32.6684 2.53042 31.9734 1.83543C31.2784 1.14044 30.3358 0.75 29.3529 0.75H4.64704C3.66418 0.75 2.72158 1.14044 2.02659 1.83543C1.3316 2.53042 0.941162 3.47302 0.941162 4.45588V39.0441C0.941162 40.027 1.3316 40.9696 2.02659 41.6646C2.72158 42.3596 3.66418 42.75 4.64704 42.75ZM25.647 34.1029H19.4706C19.143 34.1029 18.8288 33.9728 18.5971 33.7411C18.3654 33.5095 18.2353 33.1953 18.2353 32.8676C18.2353 32.54 18.3654 32.2258 18.5971 31.9942C18.8288 31.7625 19.143 31.6324 19.4706 31.6324H25.647C25.9747 31.6324 26.2889 31.7625 26.5205 31.9942C26.7522 32.2258 26.8823 32.54 26.8823 32.8676C26.8823 33.1953 26.7522 33.5095 26.5205 33.7411C26.2889 33.9728 25.9747 34.1029 25.647 34.1029ZM25.647 26.6912H19.4706C19.143 26.6912 18.8288 26.561 18.5971 26.3294C18.3654 26.0977 18.2353 25.7835 18.2353 25.4559C18.2353 25.1283 18.3654 24.8141 18.5971 24.5824C18.8288 24.3507 19.143 24.2206 19.4706 24.2206H25.647C25.9747 24.2206 26.2889 24.3507 26.5205 24.5824C26.7522 24.8141 26.8823 25.1283 26.8823 25.4559C26.8823 25.7835 26.7522 26.0977 26.5205 26.3294C26.2889 26.561 25.9747 26.6912 25.647 26.6912ZM26.8823 18.0441C26.8823 18.3717 26.7522 18.6859 26.5205 18.9176C26.2889 19.1493 25.9747 19.2794 25.647 19.2794H19.4706C19.143 19.2794 18.8288 19.1493 18.5971 18.9176C18.3654 18.6859 18.2353 18.3717 18.2353 18.0441C18.2353 17.7165 18.3654 17.4023 18.5971 17.1706C18.8288 16.939 19.143 16.8088 19.4706 16.8088H25.647C25.9747 16.8088 26.2889 16.939 26.5205 17.1706C26.7522 17.4023 26.8823 17.7165 26.8823 18.0441ZM12.0588 3.22059C12.3864 3.22059 12.7006 3.35074 12.9323 3.5824C13.164 3.81406 13.2941 4.12826 13.2941 4.45588C13.2941 4.7835 13.4242 5.0977 13.6559 5.32937C13.8876 5.56103 14.2018 5.69118 14.5294 5.69118H19.4706C19.7982 5.69118 20.1124 5.56103 20.3441 5.32937C20.5757 5.0977 20.7059 4.7835 20.7059 4.45588C20.7059 4.12826 20.836 3.81406 21.0677 3.5824C21.2993 3.35074 21.6135 3.22059 21.9412 3.22059C22.2688 3.22059 22.583 3.35074 22.8146 3.5824C23.0463 3.81406 23.1765 4.12826 23.1765 4.45588C23.1765 5.43874 22.786 6.38135 22.091 7.07634C21.396 7.77133 20.4534 8.16176 19.4706 8.16176H14.5294C13.5465 8.16176 12.6039 7.77133 11.9089 7.07634C11.214 6.38135 10.8235 5.43874 10.8235 4.45588C10.8235 4.12826 10.9537 3.81406 11.1853 3.5824C11.417 3.35074 11.7312 3.22059 12.0588 3.22059ZM7.47834 15.9342C7.59309 15.8192 7.7294 15.7279 7.87948 15.6657C8.02956 15.6034 8.19044 15.5713 8.35293 15.5713C8.51541 15.5713 8.6763 15.6034 8.82637 15.6657C8.97645 15.7279 9.11277 15.8192 9.22752 15.9342L10.8235 17.5327L13.6548 14.6989C13.7697 14.5841 13.906 14.493 14.0561 14.4308C14.2061 14.3687 14.367 14.3367 14.5294 14.3367C14.6918 14.3367 14.8527 14.3687 15.0027 14.4308C15.1528 14.493 15.2891 14.5841 15.404 14.6989C15.5188 14.8138 15.6099 14.9501 15.6721 15.1002C15.7343 15.2503 15.7663 15.4111 15.7663 15.5735C15.7663 15.736 15.7343 15.8968 15.6721 16.0469C15.6099 16.1969 15.5188 16.3333 15.404 16.4481L11.6981 20.154C11.5834 20.269 11.447 20.3603 11.297 20.4226C11.1469 20.4849 10.986 20.5169 10.8235 20.5169C10.661 20.5169 10.5001 20.4849 10.3501 20.4226C10.2 20.3603 10.0637 20.269 9.94893 20.154L7.47834 17.6834C7.3633 17.5687 7.27203 17.4323 7.20976 17.2823C7.14748 17.1322 7.11543 16.9713 7.11543 16.8088C7.11543 16.6463 7.14748 16.4855 7.20976 16.3354C7.27203 16.1853 7.3633 16.049 7.47834 15.9342ZM7.47834 23.346C7.59309 23.231 7.7294 23.1397 7.87948 23.0774C8.02956 23.0151 8.19044 22.9831 8.35293 22.9831C8.51541 22.9831 8.6763 23.0151 8.82637 23.0774C8.97645 23.1397 9.11277 23.231 9.22752 23.346L10.8235 24.9445L13.6548 22.1107C13.8868 21.8787 14.2014 21.7484 14.5294 21.7484C14.8574 21.7484 15.172 21.8787 15.404 22.1107C15.6359 22.3427 15.7663 22.6573 15.7663 22.9853C15.7663 23.3133 15.6359 23.6279 15.404 23.8599L11.6981 27.5658C11.5834 27.6808 11.447 27.7721 11.297 27.8343C11.1469 27.8966 10.986 27.9287 10.8235 27.9287C10.661 27.9287 10.5001 27.8966 10.3501 27.8343C10.2 27.7721 10.0637 27.6808 9.94893 27.5658L7.47834 25.0952C7.3633 24.9804 7.27203 24.8441 7.20976 24.694C7.14748 24.544 7.11543 24.3831 7.11543 24.2206C7.11543 24.0581 7.14748 23.8972 7.20976 23.7471C7.27203 23.5971 7.3633 23.4607 7.47834 23.346ZM7.47834 30.7578C7.59309 30.6427 7.7294 30.5515 7.87948 30.4892C8.02956 30.4269 8.19044 30.3949 8.35293 30.3949C8.51541 30.3949 8.6763 30.4269 8.82637 30.4892C8.97645 30.5515 9.11277 30.6427 9.22752 30.7578L10.8235 32.3562L13.6548 29.5225C13.8868 29.2905 14.2014 29.1602 14.5294 29.1602C14.8574 29.1602 15.172 29.2905 15.404 29.5225C15.6359 29.7544 15.7663 30.069 15.7663 30.3971C15.7663 30.7251 15.6359 31.0397 15.404 31.2716L11.6981 34.9775C11.5834 35.0926 11.447 35.1838 11.297 35.2461C11.1469 35.3084 10.986 35.3404 10.8235 35.3404C10.661 35.3404 10.5001 35.3084 10.3501 35.2461C10.2 35.1838 10.0637 35.0926 9.94893 34.9775L7.47834 32.5069C7.3633 32.3922 7.27203 32.2559 7.20976 32.1058C7.14748 31.9557 7.11543 31.7948 7.11543 31.6324C7.11543 31.4699 7.14748 31.309 7.20976 31.1589C7.27203 31.0088 7.3633 30.8725 7.47834 30.7578Z" fill="#A4A4A4"/>
</svg>
