<svg width="34" height="43" viewBox="0 0 34 43" fill="none" xmlns="http://www.w3.org/2000/svg">
<path id="Vector" d="M22.439 1.989C21.641 1.191 20.57 0.75 19.457 0.75H4.4C2.09 0.75 0.200001 2.64 0.200001 4.95V38.55C0.200001 40.86 2.069 42.75 4.379 42.75H29.6C31.91 42.75 33.8 40.86 33.8 38.55V15.093C33.8 13.98 33.359 12.909 32.561 12.132L22.439 1.989ZM23.3 34.35H10.7C9.545 34.35 8.6 33.405 8.6 32.25C8.6 31.095 9.545 30.15 10.7 30.15H23.3C24.455 30.15 25.4 31.095 25.4 32.25C25.4 33.405 24.455 34.35 23.3 34.35ZM23.3 25.95H10.7C9.545 25.95 8.6 25.005 8.6 23.85C8.6 22.695 9.545 21.75 10.7 21.75H23.3C24.455 21.75 25.4 22.695 25.4 23.85C25.4 25.005 24.455 25.95 23.3 25.95ZM19.1 13.35V3.9L30.65 15.45H21.2C20.045 15.45 19.1 14.505 19.1 13.35Z" fill="#A4A4A4"/>
</svg>
