<svg width="34" height="43" viewBox="0 0 34 43" fill="none" xmlns="http://www.w3.org/2000/svg">
<path id="Vector" d="M22.4392 1.989C21.6412 1.191 20.5702 0.75 19.4572 0.75H4.4002C2.0902 0.75 0.200195 2.64 0.200195 4.95V38.55C0.200195 40.86 2.06919 42.75 4.37919 42.75H29.6002C31.9102 42.75 33.8002 40.86 33.8002 38.55V15.093C33.8002 13.98 33.3592 12.909 32.5612 12.132L22.4392 1.989ZM23.3002 34.35H10.7002C9.54519 34.35 8.60019 33.405 8.60019 32.25C8.60019 31.095 9.54519 30.15 10.7002 30.15H23.3002C24.4552 30.15 25.4002 31.095 25.4002 32.25C25.4002 33.405 24.4552 34.35 23.3002 34.35ZM23.3002 25.95H10.7002C9.54519 25.95 8.60019 25.005 8.60019 23.85C8.60019 22.695 9.54519 21.75 10.7002 21.75H23.3002C24.4552 21.75 25.4002 22.695 25.4002 23.85C25.4002 25.005 24.4552 25.95 23.3002 25.95ZM19.1002 13.35V3.9L30.6502 15.45H21.2002C20.0452 15.45 19.1002 14.505 19.1002 13.35Z" fill="#00CCB6"/>
</svg>
