<svg width="34" height="43" viewBox="0 0 34 43" fill="none" xmlns="http://www.w3.org/2000/svg">
<path id="Vector" d="M4.64729 42.75H29.3532C30.336 42.75 31.2786 42.3596 31.9736 41.6646C32.6686 40.9696 33.0591 40.027 33.0591 39.0441V4.45588C33.0591 3.47302 32.6686 2.53042 31.9736 1.83543C31.2786 1.14044 30.336 0.75 29.3532 0.75H4.64729C3.66443 0.75 2.72182 1.14044 2.02683 1.83543C1.33185 2.53042 0.941406 3.47302 0.941406 4.45588V39.0441C0.941406 40.027 1.33185 40.9696 2.02683 41.6646C2.72182 42.3596 3.66443 42.75 4.64729 42.75ZM25.6473 34.1029H19.4708C19.1432 34.1029 18.829 33.9728 18.5973 33.7411C18.3657 33.5095 18.2355 33.1953 18.2355 32.8676C18.2355 32.54 18.3657 32.2258 18.5973 31.9942C18.829 31.7625 19.1432 31.6324 19.4708 31.6324H25.6473C25.9749 31.6324 26.2891 31.7625 26.5208 31.9942C26.7524 32.2258 26.8826 32.54 26.8826 32.8676C26.8826 33.1953 26.7524 33.5095 26.5208 33.7411C26.2891 33.9728 25.9749 34.1029 25.6473 34.1029ZM25.6473 26.6912H19.4708C19.1432 26.6912 18.829 26.561 18.5973 26.3294C18.3657 26.0977 18.2355 25.7835 18.2355 25.4559C18.2355 25.1283 18.3657 24.8141 18.5973 24.5824C18.829 24.3507 19.1432 24.2206 19.4708 24.2206H25.6473C25.9749 24.2206 26.2891 24.3507 26.5208 24.5824C26.7524 24.8141 26.8826 25.1283 26.8826 25.4559C26.8826 25.7835 26.7524 26.0977 26.5208 26.3294C26.2891 26.561 25.9749 26.6912 25.6473 26.6912ZM26.8826 18.0441C26.8826 18.3717 26.7524 18.6859 26.5208 18.9176C26.2891 19.1493 25.9749 19.2794 25.6473 19.2794H19.4708C19.1432 19.2794 18.829 19.1493 18.5973 18.9176C18.3657 18.6859 18.2355 18.3717 18.2355 18.0441C18.2355 17.7165 18.3657 17.4023 18.5973 17.1706C18.829 16.939 19.1432 16.8088 19.4708 16.8088H25.6473C25.9749 16.8088 26.2891 16.939 26.5208 17.1706C26.7524 17.4023 26.8826 17.7165 26.8826 18.0441ZM12.0591 3.22059C12.3867 3.22059 12.7009 3.35074 12.9325 3.5824C13.1642 3.81406 13.2943 4.12826 13.2943 4.45588C13.2943 4.7835 13.4245 5.0977 13.6562 5.32937C13.8878 5.56103 14.202 5.69118 14.5296 5.69118H19.4708C19.7984 5.69118 20.1126 5.56103 20.3443 5.32937C20.576 5.0977 20.7061 4.7835 20.7061 4.45588C20.7061 4.12826 20.8363 3.81406 21.0679 3.5824C21.2996 3.35074 21.6138 3.22059 21.9414 3.22059C22.269 3.22059 22.5832 3.35074 22.8149 3.5824C23.0466 3.81406 23.1767 4.12826 23.1767 4.45588C23.1767 5.43874 22.7863 6.38135 22.0913 7.07634C21.3963 7.77133 20.4537 8.16176 19.4708 8.16176H14.5296C13.5468 8.16176 12.6042 7.77133 11.9092 7.07634C11.2142 6.38135 10.8238 5.43874 10.8238 4.45588C10.8238 4.12826 10.9539 3.81406 11.1856 3.5824C11.4172 3.35074 11.7314 3.22059 12.0591 3.22059ZM7.47858 15.9342C7.59333 15.8192 7.72965 15.7279 7.87972 15.6657C8.0298 15.6034 8.19069 15.5713 8.35317 15.5713C8.51565 15.5713 8.67654 15.6034 8.82662 15.6657C8.97669 15.7279 9.11301 15.8192 9.22776 15.9342L10.8238 17.5327L13.6551 14.6989C13.7699 14.5841 13.9063 14.493 14.0563 14.4308C14.2064 14.3687 14.3672 14.3367 14.5296 14.3367C14.6921 14.3367 14.8529 14.3687 15.003 14.4308C15.153 14.493 15.2894 14.5841 15.4042 14.6989C15.5191 14.8138 15.6102 14.9501 15.6723 15.1002C15.7345 15.2503 15.7665 15.4111 15.7665 15.5735C15.7665 15.736 15.7345 15.8968 15.6723 16.0469C15.6102 16.1969 15.5191 16.3333 15.4042 16.4481L11.6983 20.154C11.5836 20.269 11.4473 20.3603 11.2972 20.4226C11.1471 20.4849 10.9862 20.5169 10.8238 20.5169C10.6613 20.5169 10.5004 20.4849 10.3503 20.4226C10.2002 20.3603 10.0639 20.269 9.94917 20.154L7.47858 17.6834C7.36354 17.5687 7.27227 17.4323 7.21 17.2823C7.14772 17.1322 7.11567 16.9713 7.11567 16.8088C7.11567 16.6463 7.14772 16.4855 7.21 16.3354C7.27227 16.1853 7.36354 16.049 7.47858 15.9342ZM7.47858 23.346C7.59333 23.231 7.72965 23.1397 7.87972 23.0774C8.0298 23.0151 8.19069 22.9831 8.35317 22.9831C8.51565 22.9831 8.67654 23.0151 8.82662 23.0774C8.97669 23.1397 9.11301 23.231 9.22776 23.346L10.8238 24.9445L13.6551 22.1107C13.887 21.8787 14.2016 21.7484 14.5296 21.7484C14.8577 21.7484 15.1723 21.8787 15.4042 22.1107C15.6362 22.3427 15.7665 22.6573 15.7665 22.9853C15.7665 23.3133 15.6362 23.6279 15.4042 23.8599L11.6983 27.5658C11.5836 27.6808 11.4473 27.7721 11.2972 27.8343C11.1471 27.8966 10.9862 27.9287 10.8238 27.9287C10.6613 27.9287 10.5004 27.8966 10.3503 27.8343C10.2002 27.7721 10.0639 27.6808 9.94917 27.5658L7.47858 25.0952C7.36354 24.9804 7.27227 24.8441 7.21 24.694C7.14772 24.544 7.11567 24.3831 7.11567 24.2206C7.11567 24.0581 7.14772 23.8972 7.21 23.7471C7.27227 23.5971 7.36354 23.4607 7.47858 23.346ZM7.47858 30.7578C7.59333 30.6427 7.72965 30.5515 7.87972 30.4892C8.0298 30.4269 8.19069 30.3949 8.35317 30.3949C8.51565 30.3949 8.67654 30.4269 8.82662 30.4892C8.97669 30.5515 9.11301 30.6427 9.22776 30.7578L10.8238 32.3562L13.6551 29.5225C13.887 29.2905 14.2016 29.1602 14.5296 29.1602C14.8577 29.1602 15.1723 29.2905 15.4042 29.5225C15.6362 29.7544 15.7665 30.069 15.7665 30.3971C15.7665 30.7251 15.6362 31.0397 15.4042 31.2716L11.6983 34.9775C11.5836 35.0926 11.4473 35.1838 11.2972 35.2461C11.1471 35.3084 10.9862 35.3404 10.8238 35.3404C10.6613 35.3404 10.5004 35.3084 10.3503 35.2461C10.2002 35.1838 10.0639 35.0926 9.94917 34.9775L7.47858 32.5069C7.36354 32.3922 7.27227 32.2559 7.21 32.1058C7.14772 31.9557 7.11567 31.7948 7.11567 31.6324C7.11567 31.4699 7.14772 31.309 7.21 31.1589C7.27227 31.0088 7.36354 30.8725 7.47858 30.7578Z" fill="#00CCB6"/>
</svg>
