<svg width="42" height="43" viewBox="0 0 42 43" fill="none" xmlns="http://www.w3.org/2000/svg">
<path id="Vector" d="M36.8848 0.75H5.67317C5.19821 0.75 4.68932 0.783926 4.24829 0.851777C1.97527 1.22496 0.245059 3.15872 0.245059 5.43174C0.245059 16.1862 0.211133 26.9067 0.245059 37.6611C0.245059 40.3752 2.58593 42.75 5.29999 42.75H37.1562C38.1061 42.75 38.9543 42.4447 39.7006 41.9019C41.1255 40.8162 41.7362 39.3235 41.7362 37.5933C41.7701 32.267 41.7701 26.9067 41.7701 21.5464V5.60137C41.7701 2.58199 39.9042 0.75 36.8848 0.75ZM12.6279 7.02625C15.6473 6.99233 18.09 9.43498 18.09 12.4883C18.09 15.5077 15.6812 17.9503 12.6619 17.9503C9.64247 17.9503 7.19982 15.4737 7.19982 12.4883C7.19982 9.50283 9.64247 7.02625 12.6279 7.02625ZM36.783 35.7274C36.6812 35.897 36.3759 35.9988 35.9688 36.0327C35.9349 36.0666 35.867 36.0666 35.7992 36.0666H14.867C13.3064 36.0666 11.7119 36.0327 10.1514 36.0327C9.43892 36.0327 8.69255 35.9988 7.98011 35.9988C7.3016 35.9988 6.65701 36.1345 5.94457 36.0666C5.91065 36.0666 5.91065 36.0666 5.8428 36.0327C5.80887 36.0327 5.74102 35.9988 5.67317 35.9649C5.23213 35.6935 6.14813 35.0149 6.28383 34.8114C6.75879 34.2007 12.0512 26.8049 12.119 26.7031C12.8315 25.6515 13.8153 25.0408 14.8331 25.0408C16.3258 25.0408 17.1061 26.6353 18.2596 27.3138C19.8202 28.2298 20.8379 27.0085 21.5843 25.7872C22.0932 24.9729 22.636 24.1587 23.1449 23.3106C23.4502 22.8356 23.7556 22.3267 24.0609 21.8179C24.4341 21.2411 24.8073 20.6644 25.1804 20.0537L25.9268 18.8663C25.9947 18.7645 26.0286 18.6967 26.0964 18.6288C26.3678 18.2217 26.7071 17.9842 26.9446 17.9842C27.1821 17.9842 27.4535 18.2217 27.6909 18.6628C30.2693 23.2767 32.8816 27.9584 35.426 32.5044L36.6473 34.7096C36.7491 34.8792 36.8169 35.0489 36.8509 35.1846C36.8848 35.3542 36.8848 35.5917 36.783 35.7274Z" fill="#00CCB6"/>
</svg>
