<svg width="28" height="28" viewBox="0 0 28 28" fill="none" xmlns="http://www.w3.org/2000/svg">
<g id="graduation">
<path id="Vector" d="M27.7098 8.11483L14.2075 2.04176C14.1425 2.0142 14.0728 2 14.0024 2C13.932 2 13.8623 2.0142 13.7974 2.04176L0.295079 8.11483C0.207116 8.15515 0.1325 8.22027 0.0801666 8.3024C0.0278332 8.38453 0 8.48018 0 8.5779C0 8.67563 0.0278332 8.77128 0.0801666 8.85341C0.1325 8.93554 0.207116 9.00066 0.295079 9.04098C1.08078 9.39697 4.59952 10.9741 5.29089 11.288L13.7974 15.114C13.8617 15.144 13.9316 15.1596 14.0024 15.1596C14.0732 15.1596 14.1432 15.144 14.2075 15.114L19.2533 12.8467L20.2535 12.3963V13.5047C19.6542 13.7739 15.32 15.7234 14.6125 16.0402C14.4188 16.1276 14.209 16.1723 13.9969 16.1715C13.7848 16.1706 13.5753 16.1241 13.3823 16.0351L4.29077 11.9459V19.1223C4.29006 19.2147 4.31438 19.3055 4.3611 19.3849C4.40782 19.4643 4.47515 19.5293 4.55577 19.5727C6.94282 20.8689 9.56576 21.6594 12.2646 21.8961C14.9635 22.1328 17.6817 21.8106 20.2535 20.9493L20.2535 22.5333C19.8509 22.6549 19.505 22.919 19.2789 23.2775C19.0529 23.6359 18.962 24.0647 19.0226 24.4854C19.0833 24.9062 19.2916 25.2908 19.6095 25.5689C19.9273 25.847 20.3334 26 20.7536 26C21.1737 26 21.5799 25.847 21.8977 25.5689C22.2155 25.2908 22.4238 24.9062 22.4845 24.4854C22.5452 24.0647 22.4542 23.6359 22.2282 23.2775C22.0022 22.919 21.6563 22.6549 21.2536 22.5333L21.2537 11.6169C21.2643 11.3164 21.0067 11.1477 20.7586 11.0603L14.6588 8.31776C14.5396 8.26183 14.4469 8.16071 14.4007 8.03622C14.3546 7.91174 14.3586 7.77388 14.412 7.65238C14.4654 7.53088 14.5638 7.43549 14.6861 7.38679C14.8083 7.33809 14.9446 7.33999 15.0655 7.39208L21.3687 10.2303C21.6154 10.3408 21.8274 10.5177 21.9817 10.7416C22.136 10.9656 22.2267 11.2281 22.2438 11.5006C23.2842 11.0298 26.6251 9.52897 27.7098 9.04098C27.7966 8.99959 27.8699 8.93407 27.9213 8.85208C27.9727 8.77009 28 8.675 28 8.5779C28 8.48081 27.9727 8.38572 27.9213 8.30373C27.8699 8.22173 27.7966 8.15622 27.7098 8.11483Z" fill="#A4A4A4"/>
<path id="Vector_2" d="M21.2221 12.793V19.3303C21.5883 19.0983 22.4725 18.942 22.4999 18.429L22.4998 12.2241L21.2221 12.793Z" fill="#A4A4A4"/>
</g>
</svg>
