<svg width="28" height="28" viewBox="0 0 28 28" fill="none" xmlns="http://www.w3.org/2000/svg">
<g id="support">
<path id="Vector" d="M14.8945 2.00024C8.31445 2.04231 2.95764 7.42701 2.93655 13.9896C2.93655 16.093 3.48489 18.0912 4.45502 19.795C4.18085 20.405 3.82232 20.9939 3.35835 21.5408C3.06309 21.8563 2.72565 22.1718 2.32495 22.4453C1.94533 22.7187 1.52354 22.929 1.08065 23.1183C0.933023 23.1814 1.01738 23.2656 1.10174 23.3077C1.24937 23.3708 1.397 23.4549 1.56572 23.518C1.88206 23.6442 2.19841 23.7494 2.51476 23.8335C3.06309 24.0018 3.6747 24.0649 4.26521 24.0859C4.87681 24.1069 5.50951 24.0438 6.12111 23.9597C6.66945 23.8545 7.19669 23.7494 7.72393 23.5811C9.72746 25.0955 12.2582 26 14.9788 26C21.6221 26 27 20.6363 27 14.0106C27 7.34287 21.5588 1.95818 14.8945 2.00024ZM14.9156 20.9308C14.2407 20.9308 13.6713 20.3629 13.6713 19.6898C13.6713 18.9957 14.2407 18.4488 14.9156 18.4488C15.6115 18.4278 16.1599 18.9747 16.1809 19.6688C16.1809 20.3629 15.6537 20.9308 14.9156 20.9308ZM17.1089 14.1789C16.6871 14.5575 16.202 14.9151 16.1599 15.5461C16.1177 16.0089 16.0966 16.4716 16.0966 16.9344C16.1177 17.1868 16.0122 17.2709 15.7591 17.2499C15.4639 17.2288 15.1686 17.2499 14.8945 17.2499C14.5781 17.2499 14.2407 17.2499 13.9243 17.2499C13.7556 17.2499 13.6713 17.1868 13.6713 16.9975C13.6502 16.093 13.6291 14.8941 14.0298 14.0737C14.5148 13.001 15.6959 12.6645 16.3707 11.739C18.0579 9.44627 13.8189 7.91079 12.9542 10.7504C12.8277 11.1711 12.8066 11.1711 12.3637 11.108C11.8154 11.0448 11.267 10.9607 10.7187 10.8976C10.5078 10.8766 10.4234 10.7924 10.4445 10.5821C10.782 7.00633 15.8435 5.97566 18.2899 8.12113C19.0281 8.75215 19.5131 9.69868 19.5131 10.6662C19.492 12.2228 18.1212 13.2534 17.1089 14.1789Z" fill="#A4A4A4"/>
</g>
</svg>
