<svg width="56" height="56" viewBox="0 0 56 56" fill="none" xmlns="http://www.w3.org/2000/svg">
<g id="teeth">
<path id="Vector" d="M49.8224 18.0683C49.6434 16.0875 49.0165 14.1732 47.9891 12.4702C46.9617 10.7672 45.5607 9.31996 43.892 8.23781C42.2233 7.15566 40.3304 6.46691 38.3564 6.22359C36.3825 5.98027 34.379 6.18875 32.4974 6.83328C29.585 7.84819 26.4149 7.84819 23.5024 6.83328C20.8014 5.91192 17.8736 5.89606 15.1626 6.78811C12.4517 7.68016 10.1054 9.4315 8.47928 11.7768C6.85311 14.1221 6.03567 16.9335 6.15083 19.7851C6.26599 22.6367 7.30746 25.373 9.11745 27.5795C10.9919 29.9258 12.2627 32.6958 12.8187 35.647C13.5362 39.147 14.4199 43.4258 15.0324 46.392C15.2353 47.3629 15.7621 48.2361 16.5263 48.8683C17.2906 49.5005 18.247 49.8543 19.2387 49.8716C20.2304 49.8889 21.1986 49.5687 21.9844 48.9635C22.7702 48.3583 23.3271 47.504 23.5637 46.5408L25.4537 38.8233C25.596 38.2557 25.9238 37.7519 26.3851 37.3919C26.8464 37.0319 27.4148 36.8364 27.9999 36.8364C28.5851 36.8364 29.1535 37.0319 29.6148 37.3919C30.0761 37.7519 30.4039 38.2557 30.5462 38.8233L32.4362 46.5408C32.6746 47.5037 33.2332 48.357 34.0203 48.9607C34.8075 49.5644 35.7764 49.8827 36.7682 49.8634C37.76 49.8441 38.7158 49.4883 39.4788 48.8543C40.2418 48.2204 40.7667 47.346 40.9674 46.3745C41.5799 43.4083 42.4637 39.0945 43.1812 35.6295C43.7372 32.6783 45.008 29.9083 46.8825 27.562C49.0741 24.9079 50.1305 21.4965 49.8224 18.0683ZM38.08 11.2433C35.0018 12.987 31.537 13.9344 27.9999 13.9995C24.4629 13.9344 20.9981 12.987 17.9199 11.2433C17.8011 11.1979 17.6937 11.1271 17.605 11.0359C17.5164 10.9447 17.4486 10.8353 17.4066 10.7153C17.3645 10.5952 17.3492 10.4675 17.3615 10.3409C17.3739 10.2143 17.4137 10.0919 17.4782 9.98232C17.5427 9.87269 17.6303 9.77844 17.7349 9.70613C17.8395 9.63382 17.9587 9.58519 18.084 9.56363C18.2094 9.54206 18.3379 9.54808 18.4607 9.58127C18.5835 9.61445 18.6975 9.67401 18.7949 9.75578C21.6166 11.319 24.7751 12.1747 27.9999 12.2495C31.2134 12.1729 34.3602 11.3171 37.1699 9.75578C37.2674 9.67401 37.3814 9.61445 37.5042 9.58127C37.627 9.54808 37.7555 9.54206 37.8809 9.56363C38.0062 9.58519 38.1254 9.63382 38.23 9.70613C38.3346 9.77844 38.4222 9.87269 38.4867 9.98232C38.5512 10.0919 38.591 10.2143 38.6034 10.3409C38.6157 10.4675 38.6004 10.5952 38.5583 10.7153C38.5163 10.8353 38.4485 10.9447 38.3599 11.0359C38.2712 11.1271 38.1637 11.1979 38.0449 11.2433H38.08Z" fill="white"/>
</g>
</svg>
