<svg width="29" height="29" viewBox="0 0 29 29" fill="none" xmlns="http://www.w3.org/2000/svg">
<g id="teeth">
<path id="Vector" d="M25.4115 9.53414C25.3219 8.54373 25.0085 7.58661 24.4948 6.73511C23.9811 5.88361 23.2806 5.15998 22.4462 4.61891C21.6119 4.07783 20.6654 3.73345 19.6785 3.61179C18.6915 3.49014 17.6898 3.59438 16.749 3.91664C15.2927 4.42409 13.7077 4.42409 12.2515 3.91664C10.9009 3.45596 9.43702 3.44803 8.08157 3.89405C6.72611 4.34008 5.55297 5.21575 4.73988 6.38839C3.9268 7.56104 3.51808 8.96674 3.57566 10.3925C3.63324 11.8183 4.15397 13.1865 5.05897 14.2898C5.9962 15.4629 6.63162 16.8479 6.90959 18.3235C7.26834 20.0735 7.71022 22.2129 8.01647 23.696C8.1179 24.1815 8.38127 24.618 8.7634 24.9342C9.14553 25.2503 9.62374 25.4271 10.1196 25.4358C10.6155 25.4444 11.0995 25.2843 11.4925 24.9817C11.8854 24.6791 12.1638 24.252 12.2821 23.7704L13.2271 19.9116C13.2982 19.6278 13.4621 19.3759 13.6928 19.196C13.9235 19.016 14.2076 18.9182 14.5002 18.9182C14.7928 18.9182 15.077 19.016 15.3076 19.196C15.5383 19.3759 15.7022 19.6278 15.7733 19.9116L16.7183 23.7704C16.8376 24.2518 17.1168 24.6785 17.5104 24.9804C17.904 25.2822 18.3884 25.4414 18.8843 25.4317C19.3802 25.422 19.8581 25.2441 20.2396 24.9272C20.6211 24.6102 20.8836 24.173 20.984 23.6873C21.2902 22.2041 21.7321 20.0473 22.0908 18.3148C22.3688 16.8392 23.0042 15.4542 23.9415 14.281C25.0373 12.954 25.5655 11.2483 25.4115 9.53414ZM19.5402 6.12164C18.0012 6.99348 16.2688 7.46718 14.5002 7.49976C12.7317 7.46718 10.9993 6.99348 9.46022 6.12164C9.40082 6.09893 9.34708 6.06355 9.30275 6.01795C9.25842 5.97236 9.22456 5.91765 9.20354 5.85763C9.18251 5.79762 9.17482 5.73374 9.18101 5.67045C9.18719 5.60715 9.20709 5.54597 9.23934 5.49116C9.27158 5.43635 9.31538 5.38922 9.3677 5.35307C9.42001 5.31691 9.47958 5.2926 9.54225 5.28181C9.60493 5.27103 9.6692 5.27404 9.73059 5.29063C9.79198 5.30723 9.84901 5.337 9.89772 5.37789C11.3085 6.15949 12.8878 6.58734 14.5002 6.62476C16.107 6.58643 17.6804 6.15855 19.0852 5.37789C19.1339 5.337 19.191 5.30723 19.2523 5.29063C19.3137 5.27404 19.378 5.27103 19.4407 5.28181C19.5034 5.2926 19.5629 5.31691 19.6152 5.35307C19.6676 5.38922 19.7114 5.43635 19.7436 5.49116C19.7758 5.54597 19.7957 5.60715 19.8019 5.67045C19.8081 5.73374 19.8004 5.79762 19.7794 5.85763C19.7584 5.91765 19.7245 5.97236 19.6802 6.01795C19.6359 6.06355 19.5821 6.09893 19.5227 6.12164H19.5402Z" fill="#5ECFFF"/>
</g>
</svg>
