<svg width="56" height="56" viewBox="0 0 56 56" fill="none" xmlns="http://www.w3.org/2000/svg">
<g id="temperature">
<path id="Vector" d="M33.9771 29.4873L33.9828 25.0494H29.2137V22.741H33.9828L33.9886 15.4464H29.2137V13.138H33.9886V8.02493C33.9886 6.44367 33.3588 4.93167 32.208 3.77747C31.0916 2.64635 29.5458 2 27.9599 2C26.3683 2 24.8626 2.62327 23.7118 3.76016C22.5496 4.90282 21.9141 6.41482 21.9141 8.01916V29.4931C20.2309 30.4915 18.8053 31.8996 17.7748 33.5963C16.6126 35.5007 16 37.6994 16 39.9386C16 43.1588 17.2595 46.1828 19.5496 48.4681C21.8282 50.7419 24.8454 52 28.0458 52C31.2405 52 34.2462 50.7477 36.5019 48.4681C38.7576 46.1886 40 43.1646 40 39.9444C40 35.5815 37.7042 31.6226 33.9771 29.4873ZM28.0573 42.4663C26.6775 42.4663 25.5496 41.3294 25.5496 39.9386C25.5496 38.542 26.6775 37.4109 28.0573 37.4109C29.437 37.4109 30.5649 38.5478 30.5649 39.9386C30.5649 41.3294 29.437 42.4663 28.0573 42.4663Z" fill="white"/>
</g>
</svg>
