<svg width="34" height="34" viewBox="0 0 34 34" fill="none" xmlns="http://www.w3.org/2000/svg">
<g id="clock">
<path id="Vector" d="M16.7334 2.85742C13.9362 2.85742 11.2018 3.68689 8.87603 5.24092C6.55025 6.79496 4.73752 9.00377 3.66708 11.588C2.59664 14.1723 2.31657 17.016 2.86227 19.7594C3.40798 22.5029 4.75495 25.0229 6.73287 27.0008C8.71078 28.9787 11.2308 30.3257 13.9742 30.8714C16.7177 31.4171 19.5613 31.137 22.1456 30.0666C24.7299 28.9961 26.9387 27.1834 28.4927 24.8576C30.0468 22.5318 30.8762 19.7975 30.8762 17.0003C30.8722 13.2506 29.3808 9.65567 26.7294 7.00425C24.078 4.35283 20.483 2.86148 16.7334 2.85742ZM23.6363 21.143C23.4685 21.4031 23.2079 21.5896 22.9075 21.6645C22.6072 21.7394 22.2895 21.697 22.0193 21.546L16.1264 18.0103C15.9576 17.8996 15.8177 17.7502 15.7183 17.5745C15.6189 17.3988 15.5628 17.202 15.5548 17.0003V9.92885C15.5548 9.61627 15.679 9.3165 15.9 9.09547C16.121 8.87445 16.4208 8.75028 16.7334 8.75028C17.046 8.75028 17.3457 8.87445 17.5668 9.09547C17.7878 9.3165 17.9119 9.61627 17.9119 9.92885V16.3332L23.2332 19.526C23.501 19.687 23.694 19.9478 23.7695 20.251C23.8451 20.5542 23.7972 20.8751 23.6363 21.143Z" fill="white"/>
</g>
</svg>
