<svg width="36" height="36" viewBox="0 0 36 36" fill="none" xmlns="http://www.w3.org/2000/svg">
<g id="clock">
<path id="Vector" d="M18.0001 2.57129C14.9486 2.57129 11.9657 3.47616 9.42845 5.17147C6.89124 6.86678 4.91372 9.2764 3.74597 12.0956C2.57822 14.9148 2.27268 18.017 2.868 21.0098C3.46331 24.0027 4.93274 26.7518 7.09046 28.9095C9.24819 31.0672 11.9973 32.5367 14.9901 33.132C17.983 33.7273 21.0852 33.4217 23.9044 32.254C26.7236 31.0862 29.1332 29.1087 30.8285 26.5715C32.5238 24.0343 33.4287 21.0513 33.4287 17.9999C33.4242 13.9093 31.7973 9.98756 28.9049 7.0951C26.0124 4.20264 22.0907 2.57571 18.0001 2.57129ZM25.5305 22.5191C25.3475 22.803 25.0632 23.0064 24.7356 23.0881C24.4079 23.1698 24.0614 23.1236 23.7665 22.9589L17.338 19.1017C17.1538 18.9809 17.0012 18.818 16.8927 18.6263C16.7843 18.4347 16.7231 18.2199 16.7144 17.9999V10.2856C16.7144 9.94458 16.8499 9.61755 17.091 9.37644C17.3321 9.13532 17.6591 8.99986 18.0001 8.99986C18.3411 8.99986 18.6681 9.13532 18.9092 9.37644C19.1504 9.61755 19.2858 9.94458 19.2858 10.2856V17.2721L25.0908 20.7551C25.383 20.9308 25.5935 21.2153 25.6759 21.5461C25.7584 21.8769 25.7061 22.2269 25.5305 22.5191Z" fill="#00CCB6"/>
</g>
</svg>
