<svg width="69" height="45" viewBox="0 0 69 45" fill="none" xmlns="http://www.w3.org/2000/svg">
<path id="Vector" d="M56.0688 19.2667C56.0688 19.0833 56.0991 18.9 56.0991 18.7167C56.0991 8.78611 48.2366 0.75 38.5375 0.75C31.5402 0.75 25.5295 4.93611 22.7063 10.9861C21.4768 10.3597 20.0955 9.99306 18.6384 9.99306C14.1607 9.99306 10.4268 13.3389 9.71339 17.7083C4.34018 19.5722 0.5 24.7514 0.5 30.8472C0.5 38.5167 6.58661 44.75 14.0848 44.75H29.6429V32.5278H22.3268L34.5 19.7403L46.6732 32.5125H39.3571V44.7347H56.0991C62.9598 44.7347 68.5 39.0056 68.5 31.9931C68.5 24.9806 62.9295 19.2819 56.0688 19.2667Z" fill="#DCDCDC"/>
</svg>
