<svg width="33" height="33" viewBox="0 0 33 33" fill="none" xmlns="http://www.w3.org/2000/svg">
<g id="visa" clip-path="url(#clip0_920_9760)">
<path id="Vector" d="M14.3723 21.3167H11.7612L13.3931 10.6899H16.0045L14.3723 21.3167ZM9.56452 10.6899L7.07518 17.9991L6.78062 16.4251L5.90228 11.6467C5.90228 11.6467 5.79604 10.6899 4.66365 10.6899H0.54829L0.5 10.8698C0.5 10.8698 1.75848 11.1473 3.23132 12.0845L5.49987 21.3169H8.22046L12.3747 10.6899H9.56452ZM30.1024 21.3167H32.5L30.4096 10.6896H28.3106C27.3413 10.6896 27.1052 11.4815 27.1052 11.4815L23.2109 21.3167H25.9329L26.4772 19.7382H29.7966L30.1024 21.3167ZM27.2292 17.5576L28.6011 13.5808L29.373 17.5576H27.2292ZM23.4151 13.2454L23.7877 10.9633C23.7877 10.9633 22.6379 10.5 21.4392 10.5C20.1435 10.5 17.0663 11.1001 17.0663 14.018C17.0663 16.7634 20.6779 16.7975 20.6779 18.2395C20.6779 19.6816 17.4384 19.4232 16.3693 18.5139L15.9812 20.8999C15.9812 20.8999 17.1471 21.5 18.9284 21.5C20.7103 21.5 23.3985 20.5224 23.3985 17.8618C23.3985 15.0988 19.7545 14.8415 19.7545 13.6402C19.7547 12.4387 22.2977 12.593 23.4151 13.2454Z" fill="#2566AF"/>
<path id="Vector_2" d="M6.5 15.5L5.66069 11.3341C5.66069 11.3341 5.5592 10.5 4.47745 10.5H0.54613L0.5 10.6569C0.5 10.6569 2.38954 11.0355 4.20195 12.4541C5.93491 13.81 6.5 15.5 6.5 15.5Z" fill="#E6A540"/>
</g>
<defs>
<clipPath id="clip0_920_9760">
<rect width="32" height="32" fill="white" transform="translate(0.5 0.5)"/>
</clipPath>
</defs>
</svg>
