<svg width="34" height="34" viewBox="0 0 34 34" fill="none" xmlns="http://www.w3.org/2000/svg">
<g id="writing">
<path id="Vector" d="M22.5039 24.1938L19.5999 24.7878C19.1048 24.8929 18.5912 24.8713 18.1067 24.7252C17.6221 24.5791 17.1823 24.3131 16.8279 23.9518C16.1129 23.2368 15.7939 22.2138 15.9919 21.2018L16.5969 18.2428C16.6959 17.6928 16.9929 17.1208 17.4219 16.6918C24.7545 9.42191 24.5697 9.39001 25.4079 8.9148V7.0338C25.4079 5.2518 23.9669 3.7998 22.1849 3.7998H7.69787C5.91587 3.7998 4.46387 5.2518 4.46387 7.0338V26.9658C4.46387 28.7478 5.91587 30.1998 7.69787 30.1998H22.1849C23.9669 30.1998 25.4079 28.7478 25.4079 26.9658V22.0378L24.0879 23.3578C23.6589 23.7978 23.0979 24.0838 22.5039 24.1938ZM9.96387 8.1998H19.9079C20.5129 8.1998 21.0079 8.6948 21.0079 9.2998C21.0079 9.9158 20.5129 10.3998 19.9079 10.3998H9.96387C9.35887 10.3998 8.86387 9.9158 8.86387 9.2998C8.86387 8.6948 9.35887 8.1998 9.96387 8.1998ZM12.9559 25.7998H9.96387C9.35887 25.7998 8.86387 25.3158 8.86387 24.6998C8.86387 24.0948 9.35887 23.5998 9.96387 23.5998H12.9559C13.5609 23.5998 14.0559 24.0948 14.0559 24.6998C14.0559 25.3158 13.5609 25.7998 12.9559 25.7998ZM12.9559 20.6738H9.96387C9.35887 20.6738 8.86387 20.1788 8.86387 19.5738C8.86387 18.9688 9.35887 18.4738 9.96387 18.4738H12.9559C13.5609 18.4738 14.0559 18.9688 14.0559 19.5738C14.0559 20.1788 13.5609 20.6738 12.9559 20.6738ZM14.7819 15.5368H9.96387C9.35887 15.5368 8.86387 15.0418 8.86387 14.4368C8.86387 13.8318 9.35887 13.3368 9.96387 13.3368H14.7819C15.3869 13.3368 15.8819 13.8318 15.8819 14.4368C15.8819 15.0418 15.3869 15.5368 14.7819 15.5368Z" fill="white"/>
<path id="Vector_2" d="M29.5965 11.1808C29.1249 10.7104 28.486 10.4463 27.82 10.4463C27.1539 10.4463 26.5151 10.7104 26.0435 11.1808C18.7736 18.5233 18.8286 18.2252 18.7439 18.6872L18.1433 21.6275C18.0883 21.9124 18.1741 22.2039 18.3743 22.403C18.4751 22.5033 18.5991 22.5773 18.7353 22.6186C18.8715 22.6598 19.0157 22.667 19.1553 22.6395L22.0967 22.04C22.551 21.9553 22.2188 22.0499 29.602 14.7393C30.0727 14.2664 30.3366 13.6261 30.3355 12.9589C30.3345 12.2917 30.0687 11.6521 29.5965 11.1808Z" fill="white"/>
</g>
</svg>
