<svg width="34" height="34" viewBox="0 0 34 34" fill="none" xmlns="http://www.w3.org/2000/svg">
<g id="invoice">
<path id="Vector" d="M25.4354 4.03613H8.18541C7.89016 4.03953 7.60595 4.14884 7.38451 4.34415C8.2632 4.65327 9.03629 5.20505 9.61419 5.93555C10.1921 6.66604 10.5511 7.54533 10.6497 8.47152C10.6685 8.63525 10.6685 8.8006 10.6497 8.96434V29.9092C10.6491 30.1449 10.7161 30.3757 10.8428 30.5745C10.9695 30.7732 11.1505 30.9314 11.3643 31.0304C11.5787 31.1291 11.8169 31.1641 12.0506 31.1313C12.2844 31.0986 12.5037 30.9994 12.6827 30.8456L16.1943 27.8394L19.7059 30.8456C19.9291 31.0365 20.2131 31.1413 20.5068 31.1413C20.8005 31.1413 21.0845 31.0365 21.3077 30.8456L24.8193 27.8394L28.3309 30.8456C28.5541 31.0364 28.8382 31.1413 29.1318 31.1413C29.3101 31.14 29.4862 31.1023 29.6493 31.0304C29.8632 30.9314 30.0442 30.7732 30.1709 30.5745C30.2975 30.3757 30.3646 30.1449 30.364 29.9092V8.96434C30.364 7.6573 29.8447 6.40379 28.9204 5.47957C27.9961 4.55535 26.7425 4.03613 25.4354 4.03613ZM24.2033 21.2849H16.8104C16.4836 21.2849 16.1702 21.155 15.9391 20.924C15.7081 20.6929 15.5783 20.3796 15.5783 20.0528C15.5783 19.726 15.7081 19.4127 15.9391 19.1816C16.1702 18.9506 16.4836 18.8207 16.8104 18.8207H24.2033C24.53 18.8207 24.8434 18.9506 25.0745 19.1816C25.3056 19.4127 25.4354 19.726 25.4354 20.0528C25.4354 20.3796 25.3056 20.6929 25.0745 20.924C24.8434 21.155 24.53 21.2849 24.2033 21.2849ZM24.2033 16.3566H16.8104C16.4836 16.3566 16.1702 16.2268 15.9391 15.9958C15.7081 15.7647 15.5783 15.4514 15.5783 15.1246C15.5783 14.7978 15.7081 14.4845 15.9391 14.2534C16.1702 14.0223 16.4836 13.8925 16.8104 13.8925H24.2033C24.53 13.8925 24.8434 14.0223 25.0745 14.2534C25.3056 14.4845 25.4354 14.7978 25.4354 15.1246C25.4354 15.4514 25.3056 15.7647 25.0745 15.9958C24.8434 16.2268 24.53 16.3566 24.2033 16.3566ZM24.2033 11.4284H16.8104C16.4836 11.4284 16.1702 11.2986 15.9391 11.0676C15.7081 10.8365 15.5783 10.5231 15.5783 10.1964C15.5783 9.86963 15.7081 9.55625 15.9391 9.3252C16.1702 9.09414 16.4836 8.96434 16.8104 8.96434H24.2033C24.53 8.96434 24.8434 9.09414 25.0745 9.3252C25.3056 9.55625 25.4354 9.86963 25.4354 10.1964C25.4354 10.5231 25.3056 10.8365 25.0745 11.0676C24.8434 11.2986 24.53 11.4284 24.2033 11.4284ZM8.18541 8.96434V18.8207H4.48898C4.16219 18.8207 3.84879 18.6909 3.61772 18.4599C3.38665 18.2288 3.25684 17.9155 3.25684 17.5887V8.96434C3.25684 8.79185 3.25684 8.63168 3.25684 8.47152C3.32219 7.818 3.6445 7.2172 4.15286 6.80131C4.66122 6.38541 5.31398 6.18847 5.96755 6.25383C6.62112 6.31918 7.22196 6.64146 7.63789 7.14978C8.05381 7.6581 8.25076 8.31082 8.18541 8.96434Z" fill="white"/>
</g>
</svg>
